<mxfile host="Electron" modified="2024-05-22T14:41:17.831Z" agent="Mozilla/5.0 (Windows NT 10.0; Win64; x64) AppleWebKit/537.36 (KHTML, like Gecko) draw.io/22.1.18 Chrome/120.0.6099.199 Electron/28.1.2 Safari/537.36" etag="g-ySVPtII62FO4dcN9AD" version="22.1.18" type="device">
  <diagram name="Страница — 1" id="1IisoiGx7eZ2buOxfEj1">
    <mxGraphModel dx="1750" dy="1035" grid="1" gridSize="10" guides="1" tooltips="1" connect="1" arrows="1" fold="1" page="1" pageScale="1" pageWidth="827" pageHeight="1169" math="0" shadow="0">
      <root>
        <mxCell id="0" />
        <mxCell id="1" parent="0" />
        <mxCell id="b-o21iaNYB_1QmSjUm_C-1" value="" style="shape=image;verticalLabelPosition=bottom;labelBackgroundColor=default;verticalAlign=top;aspect=fixed;imageAspect=0;image=data:image/png,iVBORw0KGgoAAAANSUhEUgAAAT0AAALFCAYAAACxsjR0AAAAAXNSR0IArs4c6QAAAARnQU1BAACxjwv8YQUAAAAJcEhZcwAAFxEAABcRAcom8z8AAGTLSURBVHhe7b13QxRJ9799v9rfHTeZlZxzkihJchIkCoKKYI7r7vd5QfWcq3pqbMZxV3cV6K7PH5eTu3ua6ctzKpz6x+DgoBNCiLwzOjrqZmdn3T8aGxudEELkna6uLjcxMeH+UVtb64QQIu+0tbW58fFx94+6ujonhBB5p729XdITQsSDpCeEiApJTwgRFZKeECIqJD0hRFRIekKIqJD0hBBRIekJIaJC0hNCRIWkJ4SICklPCBEVkp4QIiokPSFEVEh6QoiokPSEEFEh6QkhokLSE0JEhaQnhIgKSU8IERWSnhAiKiQ9IURUSHpCiKiQ9IQQUSHpCSGiQtITQkSFpCeEiApJTwgRFZKeECIqJD0hRFRIekKIqJD0hBBRIekJIaJC0hNCRIWkJ4SICklPCBEVkp4QIiokPSFEVEh6QoiokPSEEFEh6QkhokLSE0JEhaQnhIgKSU8IERWSnhAiKiQ9IURUSHpCiKiQ9IQQUSHpCSGiQtITQkSFpCeEiApJTwgRFZKeECIqJD0hRFRIekKIqJD0hBBRIekJIaJC0hNCRIWkJ4SICklPCBEVkp4QIiokPSFEVEh6QoiokPSEEFEh6QkhokLSE0JEhaQnhIgKSU8IERWSnhAiKiQ9IURUSHpCiKiQ9IQQUSHpCSGiQtITQkSFpCeEiApJTwgRFZKeECIqJD0hRFRIekKIqJD0hBBRIekJIaJC0hNCRIWkJ4SICklPCBEVkp4QIiokPSFEVEh6QoiokPSEEFEh6QkhokLSE0JEhaQnhIgKSU8IERWSnhAiKiQ9IURUSHriL1NvNNRDrau3W6iz+5Dc57n6hIYGe199AftMA8/Vf9xW4fNsk9uGhsK27Ta8luwrgfelj0WIL0XSE19EkBEiqzVx1dQ1uKq6eldptxXGjbrGAtxPuF58rqmE8Hyju15r7zP841qw++nHvMe/r9FV2vMVBvusMjiGWgOpSoTiS5H0xOdBJCnJVRuVyMjEda22yV2uaXIXq42aZneh+iS/2PMn4bk0H1+7EG6r7NYIj7kPP9v9n8NrBvu8VNPorhrXDOSIEKtq602CyTFLgOJzSHrisyC76oLkrtY2m+SaTTbN7qJJC/EgLwR1obrxC0hk5kFeJ55rtG0ZVY0mN24bCrcFKlP3C/zMc5UNtq0G//iCcam6wSRYb9FgIun6hiafVpf7biJeJD3xCTWFtPW6RXKIDsEhp+T2o8iSKO3j47IgpMKtF1t4zmOf9xFcIrIfKxrcD8ZPJrQgP8RWxAuuQOlzdv/nAheMq7afyoYWV9PY4uoaGn0KrOhPgKQnijKotbSQdrprli5esvTVp64F4SGuiwjrBEgLeSWC+iizkxTF5O9/+hhR/WhcrmtzdZ39rraj312x+0FigaLoUoTnf66s9yTP2/0KHjdY9NfkKuqbXS1Rn4mv9LuL+JD0hKvzaWydu27R3eUaE1WJ3IoRWsBE5Snc/yixk+Iryim8Hh4XMeFZZIecrja2u57hcbe0eteNTM64isYO//xPBZmdoKKuKLWEkteLhNfte1nqW1lo8yt7DkQ0SHoRQ4RHdEcqe9Wiu08juUReJ0RWEFtRZtyW3EdIP3kaTVrJ448SSm7D+368Yftv6XSDEzNudGrBtfUNuWv1LcnrJ/j4OSK5n0iD/T5MgDw+8b5P4TMXq+otZW/wbZXlzoeIA0kvUkj1ahsZDkK7HYIrRGklsitGaeVAQHablo1PLe3xxdpWi9463bWmLne1vsPR+fFRQsln+Gx9V7/rG510/SMTrmvwlqts7jQR1nqhhfclJIK7VNviqtp6XUXbTbufpMAfBRi2X4DHqec4tgsmvms1dRbZqo0vViS9SKmpb3DX6xv90A96QE9KjtvCfeSUpsxzQSjc0s7XOTjm5u6su/GFFTc+v+zmVzdc39i0u+ZT1kRO0Nwz6Na2d9z69j2L8IZNYs3+WD7KKtl24IfrNa66tctNL91xW3sP3Pzatusas1S4vd/9UtOakl+dT4s9xW19JOnoqHNVNTV2Lmo/OTci30h6sWHpLFGOT2dTwktkV6AwHCQIrTwlr/k0s8E1dg+YxHbd4fETt7i+6ZbubrjDo2Mvqc6hCd/jSy9tE8Lb2nF7BwduaHLKXalrdT9YqvuTUZReWlh2+8O1GtfQ2efubm675y9euBcvX7nHT5+7zf1H7vbKuusYnnRXLbJk+/+7Xmu3Bfmd2F6SDl8wrlTVmvhq1c4XGZJeVNRbhJcIjxT2o+g+jntDErSz/WDSILL60fjpuskjyOczIJhrDe1ubHbRPXn2wh0/e24R3rqx5o5MgE+fv3QT8yuu5eaIvWfB3T946Lbu7bnuoVFHW+L/LKVFej/YLfv/kX2mBMj+Oaam7n53x2R68PChOzKZvnv71r3/8MG9ePPGPbT9rN2770Ytwmyw/VyoaymK9KT4oM6+b52P+KprFe3FhKQXC/W1rsZur9VaZGeSSSK1IL0GEw1SqXeX6jtcTfuAa+od8YJq6B5015u73U9VTV46oePgBCaRH40bTR3u9vyie/b8hYnvuVtYQ3p3vfRevHrtU96ppRW3Yens4vKq6x4Ytc90+uOgra66rdfo8W121y1iQ8aJsBKC9NZ37rn7jx75iO/gwQP39u0b9+uv792HD7+6X02Ar9+9c3uHR+6WpdaV7b127I1epCell3DBxHfNIj6JLx4kvShAeLUmvDoTXojsEun5ISH2uMLE1j1y282ubLiNnQN37+DQ7T44dNv3H7nlzXtuZGbJNfYO+7F0yWftcynpARFbz+Att//goXtiaefiXUtv1zbc8ZOn7vDJE3dras5NzM67FZPhbYsIRyZnXUf/qKtt73PDt+fc4uqmvx2fW3a3l9dcS/8tP8UtkR6Rp0mv66bb2t13T168tPT4nptfvuP2LUV+8+a1e/f+nU95iQIPTIoPbZ/z61uurnvIjrPp09TZP65zF23b16pqXI3EFwWSXgTQZnWjliEbJryS6O6CSaW5b8TNr6y7w+Nnli6+c7++f+/eF/j11yR6evnmrVvZ2nENXf1JGkzElxaIQa/r9YZWNzY966O5WYvm5u+suZ3dPTe1sOxqLIqrNQbGJv3jERNckwmpb3TKPTw8do+fPHO37fk7G1vu6Nkzt7C+7Wo7+4vb/p+l2rTpbezsujfv3trxPnVTi6tucmbBi4+Ij7bE0el5Nz4z7x7bfY6bDo+ajn475uQ4i8dekN7PJr1LRkV1jauV+HKPpBcBTMS/QoSH8Apw4dNb2jU04TZ3D9wrSz/fvn3r28jeWXr4zoQH7+3+B7t98eKFW1i542pakyElPtUtiZx8CloQX0tvv2vrG7RIbthT39Hre2h7hidd763brttuG014bf3jbmVjx716/do9OnpiUd6iW7674Z69eO7uPXjkOobG7XgtPbX9/e+aSamt262ub7jXb165N3as9ywavTW94EanZt29+3tuz6LMQYsgRyyqfPT4yP3222++s4NI9Wpjhz9Gjx178b7B8ScdGzWuTuLLNZJezvHteNXJ9Kx0SkonRUVzh1tY3XAvTThEdcguifLeudf23Buet+devXrpllfXXHVLl322wd1o6nLXmzr98JS0OII8EAq9p0Rm/zVR0UlChwWdF8+ev3Rbe/tuZmnNTVoaS/r78PCx3/cji8zG55ZMepu+d5Z2u+6RCZ+O03P7v2sWjTW2u5n5Jff02VMv5VcWyW3ef+D6xqdd361xizLnTOTjPpWm15h2vlev37i1nX3XdPOWpfJEuHasQXr+NukouWCPb1TXKtrLOZJezqmoqXeXqoLsCu14XODVjb7TYHBi2u2YhF69emXieeueWVp5b+++W7yz6hYtstvY2nazC0s+wiLiYkjK3MqGu7245mo7bhZ6e5MOjjQ+GjQu1jSZhMbc7v4DL9fd/X0T0rRr7x90bb03Xc/AkJtfXPb7ffzkqZucX7H0dtsivRe+w6KpZ8BvD0nDZTvugVsTJsrDJCJFyhbxbZj4ui2CrGhmMHSbG5qYcsdPnpj0Pri3JscHFkX2WwR4yQ+NoYc4iVT98RYk+LM9d7kyGcZS7lyKfCDp5ZhaOi8scqGH0qegxWivwbVa1DOzvO76x2e9lJZoe7t3z42MT7ob9S2JuOy9vxSESbTVYukpY/DoLDg8euoGxmbcpZoWn3qm5QFIhYiqobPXPrNj6fFLt3lv17XdHHTMikA8/n322VqLIJHs9u6eG7VUdW5l1W3Ze2+OTbqLloITMSbbM+x+o6XKm7bNN2/e+JT8rcn6ld3fPnjkesdn3A0TX8/wLbe3f993cPxq0d4Tk+jY/LJPcYvbSvGTp879YrfXKmtcjcSXWyS9HFNpF+6lovAS2SEiZkaMz624oyfP3dHxMzdtqWZL76CrsnT3sqWspKOX6trd5fp237P7H0stqyzSW7G088WLVz4VfvkyGYJSZdFiMq6uEDkV7pNOM26v2SLD2YVlL7XWvkF7vt7S1GrfJhjg8zcaW12jCbK2rcvVtndZKt3hB02XyonPXq9vdVOzC+6JRYZIz8vv3Rv3+u0b9+jJMzexsOpqO2+61t5+S8tX3fPnT91Tk97Ewh13zdLy0m1+JDn+SxU1rrK6Wm17OUXSyykhyvvFIjAvvQJIprq1xy2sbrrnJq5ff/3gx9RNzC666yYppnIxjWxj577btpRxYGLGz6K43tTu5lfWTCAvfJsfHQ9LDAfp6Cumn0F6/7ta7SqbOtzkzKKbXVp1XQO3LHpstf0n70tLBhL58XySYrKNH64FIZ6E59hOc9dNt76x5dNyH+2Z8Ij4njx/7m4v3XEVtD/eqHc3GizVtYhxeW3DDU7OuSsmcqRcut2P1LkLdltRpZ7cvCLp5RQG214ObXkmOx+BGXQw1HXcdHc2dtxLEwZDUui0mDM50R7GOLypxTu+8f/3//vd3d3Z821/V+rb3PjMgkWHT4sdHWyjoZM2t0SmQRx0OtAGODW/6Man51ylRZA/XK3xz5cKJsE+A7aNNCff+xEEyfCb7oFhd29v16ewHNMbE9+myZohMPQQ315YccNTi66xe8TdaOr2A6D9IGyEGrZXZj8/36hxVyzaq65WT24ekfRyCqntRUttfVsb2MWOYOhNrWnvtVR1y70w6f32waRnt5NzC5b2trmLNS1u3KK+5y9e+rawO5tbXoakqsiQSCpEeisW6dVbGplI72QE54t32vYoE4V4i3LxQqtx/zEJAj2yXnL2Wikft/fxswGGr1AeHvHR2fLy1Uufdj999sLtP3zsO0Xo2X35+q1b3d5zdV0Dfn//ulLl/n2l2v33alUi4bDNE9s3qd6otmivWtFeDpH0cggX6jWLUn6psFTRC+8jSK+qpdMtWrr3wkTx+PFjNz2/5Fp6BizKIwVtdFWtXW5wbMoN3552DV19Xgg3GtvdwspdL0qiQyJBhrvUtPX6fZyUnknLHiOW/16r9h0RQWT/NfGwzkZb/y03MDnrZ3n8Utnkn//BIqwT0gsy4nnbBu15pdBGWNfa6YbGJ92dtXV34GeDPHFPnhy7B48eufWte5aiT/t0t6q1249L7J+YdW2DoyZ52veSNsi08NjfLya960jPV2Ipf55FNpH0cki1RXmXK2ljK5UeMqp1V+pa7OK/ZenqrOsbGXc9Q+NuYnbJ3Zpa8O19CAj+Y1L512Uioyo/g4NBxpvb93waSQ8uPa1Xals/EV4pCIzOkB+um5AtyiTtfPj42M/H3X3wyA3dnvNzcL0UbZ9eegUJcUsHzGVLTa9atEmFZSDdZn0NXv+vHR8p6Y2GVt+z22YCb+3pd40m7OsNbX4QdufALbe2ueMeHz91T+3Y94+O3ZRJvK6r32//Y9SXfBfaFv3UNPXi5g5JL4d8TnppEV2qaXJN3TdNdPNue++BF9Cz5y/c8tqW6xocd5UmPwYh+3Y+E1tSqqnWIsJ+t7iy6hbvrPnPs11SzfS20xCN/fdqtV/zondk0m3u3ndv371z//f7b+6DRYwfPlhK+vKFL0NFgYMLdlxEo2zTR4i2X6av0dGybmnqxr37lq7uuklLtRu6BxJh2XuQ1n9IXS9Vun9drHD/NP6fwWudAyNub/+BT39/tf2xzw+/fXDHlsIPzSz4+b1EpemI7yfjiom0ina9MudYZBdJL4cwuJahKmHsWanwkAk9oN2DtywFfOzT1TAj482bt+7w6Ilb39mzyOieW93YcYPjMz6yQkZIlIiqsskiqGqGwBSistT2SRmRELJj6EqjRVMzJqmnJtXff//dvXz50tLOHTezsOw2tpP2uHe/vnf37VhGZxZ9tRWqthBhEnGSjk/MzLmt7R1fVYXZGgePj1zP6KQfP+iFXALH9B/bP7NI7qxv+IHXv//2m/vNZPf77x/c6zdv3Prunk+zaXNEzunP/2THf/F6tau0FLfcORbZRdLLIaETI/SMluMHu8iRFz2sT588db++S6afIT5uKdUU2H946OfKUvIdmfgojDTUbtOiAF7/75XktYrmTl9J5b6lsO/e/+qroNx/8NCN3p71bYSkktXN7W5yZj6Zimavv2TKmEVyHRZtXrII87+WEtMBgbgp/NnQ3m3R6Jrbub9fnKIWIsLStJhjqGxqdxPTc+6eCe7hw4fu0eEjt2ufnV5cSTphbLv+u5DWFj4LP9njCxbpVVjErB7cfCHp5ZBEenbxloguDYJAFrR5jU/PuwcPH7nXJpwk5TS4NYiMkNEdi/rotAhSKQfyAAYVU1xgdXPHz5Qgknzy7JnJat2XhmL/pJPIk1uGn3QNDLu1jS2fYjOn9iEVVJZWTWyTXoCtN0f9wOLqlm63YKn1PUtXfaRXnbTrQZDfx2NK5IzArtc1u8aObtfc1efH7iUdLYnsAunvwmd/sdsbFRbpqTMjV0h6uaPWVdhFytSzspFe+sK2x1zs9IB29A265dV1Lz/mrD41ScGTp099bTpKQVW3diepcmobSIa0F0hlKR01Obvkjp48M9l98ENbdnbvu97hUd+OGMSYlox/XIjKGNd3UBAw8ntjkSdtgIcWjdLbW9/R56PTu5bqdgyOFdr0km2lheejvgIMlkZwdJKETppir3KB5POp+3Y8tOtdqzDhSXq5QtLLGQxXuVFl0VaFXfxILk1BCCew53+4nrRnXbhR7yos5W3uphDALWPENXb2uavMpmCsXck2EAPRGr2yfpK/Seng0WP39m2SIiPP23MLrtJSWS9HE0+p8Px27HEQH8s0tvcOuNX1TV90gKovjCVk1sjo7KKjOnOdpbjtN4fcddsu7XlBVmkQWiA89tKzfSC9E6/Z8+E4ILmfHNuVG9WuRp0ZuULSyxlF6d2wi/dzoiuDFxhSMvhc6AAJsvKpoL0nvD/Ii2rJHSbI1a2dRFKWyjJbg1S1tXfQ0uzGJNIqvP+PKLYV2n3aG4fHp9y+pbFMMXv15rXvXCG6Y+lHZlYwsNnDZ9mGfd5vJ8V/C7fpyI/vhCx9tIcE2W/qM2EbfE9JL39IejkD6TGo9hekVxBUKVz0XhAmjOLjwkXuhRAkwC3vKzwfPo/E+Czta1MLK774Z1Lm6b1PTUcmp31HBfugUyNsj338GV689n7G1tHe2G7iXFm761NtelwPHj/xS0tWWhr9P5NyEJY/7rAde+4iM0Ls+BjTR5TK9ihLT+HS6rY+d5EpaRYNX7EolvddLJScCtvglu/KsJWaanVk5AlJL2d8lN5HSaUJUvsYvRWeK8gCfMqYjowCvGbR0ZX6Ztd3a8JtWuT18tXrpGbd27fu4MEj3zOLrJCd335BIEUhfYYgWAZOD4zedivr225sZtGP0WvpuulnW1DMlEjy+atXFvXddz2jU+5KA3ItfCe2ZcfJvF+Gw9w7eOCmV9Zdc++wP97t3fvuoUlz6e62a7054gshUJp+26LJW7Mr7kZztx0L3zMR74+2XUkvf0h6OeOPIr0kWrP3tfX69SkGLH2sYCaEPU9F4at+9gLLJhZSP2TE5+zx/64y66HONfcMuPk7d/3cVnp3mZZGHbz1rS23tr7pBm5Nuqtsw6RxQmop0s8D+2JMXYVfTW3JHR8/8RWWZ5fW/PFVNbe76bl5t7e35x49OnQvX77ynRyHT5+5GTuWhu5BR3UYhrawFGXfrTF3eHjox+M9On7miw4wHm9iZsEt3Fl3A5MzJsIhN7e04qu0fPjtN0f15cbeETseS+n9fwaJ9C5beusLD5Q51yKbSHo5ot5AekyfYlrWp9Kz53wk1OPHz/VbREWPbGvfkF/Eh9kSDDMZnJjx08KSdq9EShT+7Bq85bYKMyoYzLxvkRTzc1kPY2Jm1hf+ZObEjcYO/9lSwRWlhxALUvzPlUp/TNTdu7OelIp6+vy57y1mDjBDR+raunwV5/XNLTdmkeQtkxaLDTEdjhp6WyYsqqpcrm3zFWUGxibc46PH7sN7CiPY67sHbmBi1qK7Wz7Ca+sfseNccA9NoKyz8f7X927n4KFruTlqx9Jggk+OL5Ee1VYU6eUJSS9HfF56iWC4kFlKsa6jx3XYhc88W8bTUQ35iUVNLN14eMyqZE99pRV6bRHev01M1xvb3JKlmNSsY0bEokVYLUwDs8jqal2zSWrJDzCeXb7rWE4ySK8ouvT9gvT8nN7KetczNOr2TKC0Cz58/NgNT05bmtvs/n250kux3o53bWPDbe/d91PkqODS0N7jZhdX/JCa9xZx3rV0t46V0yob3M1b4+7w8aF7b8fKTAyGv9DuiPzWd3ZtO/t+WcqkDl9SeXln/6P0fO8uab+kl0skvRxRTnrIhfapID0khfSaLCWsN0nM39nww0E2LUobn5kzKez4DgMiOtanILVlTqtf03Z4zM9k6B+ddNeYlnbFIrXLVSa5Dr/UI5P55y19rKRtzITh2+lSsgv49kTb5tW6VnfL0uzHJiSWdNyy6K1jYNjEVedFG8bUMTaPaWv3Hxy6/vEZE2Wj7bfSPt/i+k1wc8t3LFWfdtcKnRY8R6T324cPfnA183z/v//73W5/98/9yuwQEywVl4H7SK+5d9TOUyK9/0p6uUXSyxnpNj3fuG+Cob2Miim+cd4khvgYuMwatlzsdEZsmFRIKVfWN32h0O29A9fef8vPtWUboVcVcf6HTgrfK0tbX40vEsosiaL0Wj4vPQRKRwFzYueX19yLl6/9/lkVDRn/7zqVXSrdPy9VuP93qdKivaqC9O75OnmMBUwKBNj+7Rh+tG2R0iJ4jok1bAdGxy1qPfCR5/r2PZ82c/vAHr94+bIouxPSu39Seny3H+34kzY9SS9PSHo5I4n0ksHJdAJ0DIy63lsTfp4pwzh8mmmiQD6051Fu6dWrN+7Bw0M3ObfkpuaXfYpJpNfSN+R+QHr2/pCShuEqidQSsVU1dbil1bs+YlxY23SVtt0TwrP7iARZ/mKCYvweEqO4AWnmxOy8u9bQlhQYsH0xc4Njo03vQnWza7Bjv7u57Qc+D03O2fdIpJccT7LtQGjT297ddYt2TF0WnTb1DFqUOuHlxzS3sK7GSek9MOndsvNT77fj01s79kuSXu6Q9HIG0rtaaemopYjdg6Nu+959v5gPZdRbe4f82DSkR3p5sbLBUsFJi6AeWZT2xEdDFAdgkDHpamVz0plB9BXS4wSEwPOJ9KpbOn1738PHR27CpEmamYgjkZ6PNtmfSXdgbNJXdkF4FB/oHRn37Xr/ulzhIzx6XzvpMLFIc3N337X1j/plJxnszOc+So+5u0HGyXEUpWeR3sHDh75tksW/790/cPcPDk2wz/20uLCmb1p6lNdq6hmx401Jz7ZJBWWVl8oXkl7OSNJbKv9STr3RTyObMRFt3dvza8FerGlM0tNCtEdUNWjP75gYSGuJ8maXV/xYN8Tm00gvlvIgHhbgHp2acyNTM66iGeExRi+J7P5duH+tvtX3mD5+8sSLZ80iN198oCBO0m1E85OJmCUp9w4euV1LvYlUE+ltF6Rn6a3J8z8mPb5DaTT5c4WJfHTChPrAxHfoP7dyd8OzbKxatEdtvefPn38qvT6kV0jnOSY7HiI9SS9fSHo542Obnl24JgHG5bVZhLexvevmltdcTWuP+4HpZTeSaA0oFMBqZ7UdvT6tRIQ+kvMRVCKlT2UX7lc76vbR0XGhqsFum1xlS5ffFp0dVDeua++1VHPdr7vBzIqZxSUfRSJFIsh6e+9NS8GJRKmO3DU07hcHv2cpZ3uQnkkyLb1QpcVzQnpJert1755fia3NRNbQ2e+auvtdg0m27eaQm1+5446fPnVvTXikuvTw0ob5qfSS9FbSyxeSXs5g6UcvPVJShHW11l2pbTEB3PGN9UwbI5LqGBzxaSRl1Nv7RwoMmxQMu097XmVzl0kkWdLxU+khhuR5XkcULPuYtAke+bF21OEjwqQDgeju8OjIDd+ecZcZjmLCI529aIK9NZXU3Js3MdZ13rS0vCA9o7z0Ch0Z/hjCsXyUXr+ltw8ePXTP7BgePT72+394eORvH3FsT5/54/kY6SE9Ir1bJj3S21LpqU0vT0h6OaI4ZKWy2v3s2+EKUZrdMszkoNB7iZBY1ezpM8ME4EtIGUQ/dCzQIXFkz7OWBVPKkp7bhJPiS0Cu9LAuEc3Z9hm4jEyIopKqzO/cvb1912VSZXU0Bke39w37iJAOjPGZed+muGJiq7eIrJtI76AgPdr0uhLp7dvxD34ivcDJSG93f99tWnQ7NjXvFzkaGp9xg+PTfojM6samH98XjtFLz9L7pt4Q6X1sL6RNr1LSyxWSXs7w6a1Jz6e3dCIgA4NByERPDONYXLnrp2RNmGwmpue9dPx9e461bYE2upa+AXehuiFpO0sRpId4qDnX5ntjWUf3tcnr2E3OLvgeWjpSxqZn3fDEtKW4Pb79jvY/SscjNGZ+MLxlzPZFBLa0vukX6ilGepbedqSlZ5He56WXRJtEprTp7Zn06MSZXlj19f1gfGbR3Z5bcpsWfbJoOZ0pHyM9k57vyPhUeor08oWklzPS0kuGp5B+1phsOt3SnQ2T064JcMjPc2VWBm1pN0cS+oDHFhU2dPb5XtUggFISwdT7dTboHX339p2P8kijEdu/L1f4jhKWUyQCY6EehqTUmvzWtrbdsUWW43PLrsqivrHpz0svnd4G6V0odGR87pgGTHr3THrMvhibXfarrY2ayFn2kmEvzN0Nqa2P9hgYXZTex/RWkV4+kfRyhpdeRaFNz6THhYv06NUctshqy6KfwfEp19I75JbubphIDv2Qlf2HD/0tpaGoRhKGkiCuk2Kp8sNdLjP8xOT4wD7/lnT27RuLIg8tfZz1MyVCR8Pl2iZXbWKrsoiO9W7p1GCRcKa7URTUS2/GpHeE9LZKpHdg0rtl0utPSW/mi6V3d+ueG7Eosm+UNXzn3dr2ju9MocjpJ9IzwTb1ptv00umtOjLyhKSXM8pJz4vPLmI6KRh0THGBho6bvl2NMk609wESAzo3qFDM54MAglSQGe1yY7dn3NERZeWfu82de27n3q4vLTVp0RsVjZElvcJEgncsgmOf9bbPuvY+t7K2adJ7YtJb8iuffbn0jv5cejdMehatUvae9kqGrdw/eOg7Ml6+elWchpYeoOyHrEh60SDp5YxielsiPWTFMJFlS/HumxBmmEN7a9LSWrCUlvu3xi21nXC9duvT26qGk2Kx7TG3tb6923cGIBbaBFlYe3ZhxaK+I5PbmrvR3OWHo7BA0K3JaXf4+LGv4NLSO+wX++YYyktv088H/sP0diI9ZCV1bEYivTo/95Z9frAIlHLzlMBCbkSi2ybnh48enUhxy0svOW+SXv6Q9HLGCekVLtykZ9OeYziHCQ7pvXj10pdxCjMUKMHE7es3r30P77RJkcoqQS6ktHQSMM+2rq3bF+Bs7xt0V2qa/II+VF05fvrcLaxu+F7ZIL2RySn3KCW9uo4+Px2M3uGxuSVX1d6T9N4+eeJWtnZcfdeA6xlicPFDi9Ae+fLwFD5Y39p2Dx4flYzTK8guLb2K2qL03pvMgHV2Vze2XWvvgC9DzyJF9/bu++/7cZyeSa8nkR5zlX1FZuOCpJc7JL2ccSK9DdKzCC1I4Xpdm0llzI3cnvVDOGjfG5qY9rM1huz+iKWP1NprtpSSGnpJ1FOQ3o1aV2XSo0y8r3RCJRSjorHVzS4u+zZBhrlQKp5OCz6fDB85cHdMOvTC1rR2u3lLdWlDHJ6acxWtXb68PDMo5lbvuhqTImtuUJuPysyt/SOuofumW7m77nZsOzfHprxMS6XnQXp2jANUWUF675P1e6niMmoRKfOP6y2C7egftu3d9TIkymOIja+yUhicHKSnSC+fSHo5o1R6RCtFOdjFfKmmxVE9pXt43CK5Dnu+1l/kybSuGovSeuy1CddkKWWpXP53rRD12XPUumO+LLdEgI1dfa53ZMyk0utTzH9dqvDvrWntdH0WWTET4nJNs18oiHSY6sbVFuVR/47Isc8+28RCQhY50ibIcJdO40p9mx/M3NE/5EtbMWCa3mC2n5SfSqajBagX2Ds04g4ePvDFQT/89sG9tIju4NGh77kloqTzhZXa6HFmmUqkt7G776NMSkpRkUbSyy+SXs5ISy8R3kfpISja6ujMQAA3x257sSEPZkew+hm9r4ekmhtbfn0KP9bvhPiStkIKeTKflsHLDDBGVB7um6iu22tMQ/OPC/D4mkWaxfsGNfXC+z4+Tp5LHicUHxtX/HOt7nJts5dm+jtCdXOnm55Pipoy0PrYUmnPc3heGIgdnn/u9h48ckNT875UPuci2c5H6WkaWr6Q9HLGR+mdFB4QzdHzyoLaFN5stHTP16Gz1xAb9ztuDrtlSyWZLsYiPWnhhftMN6M3lh5RUkemejHOjsePjEO7f2jPAe15PIeAeI/HP05uk8eP3cNH9pyJmPt8xk8dKzz2U8jsvn+O7bFt2y9LQtK7i/hCGu5lZd8DKVeZ/CicwAyQ2rZevxraydseV9Pe7a5ZxOu3wXcsfFdgXvHFG1WK9HKGpJcz/kh6/kK2CPBCZb27WNXgC4qWvs44NwoO/FJV7yO69GtBjhVN7b5iycvXr3ybGJ0Bn4NOAsbFefx7U7cnsPfxPO/3nwkUXvevJfd9O9yvv7qHR8eWUk/6Yz4p56SCjE/ZU4Q0PhCeo1Ap7/8ozgRJL59IejkD6d1I9d6mL2L477Uq38lAqpsWRfF1ey6sTeFfRwQFGYRIiGrKzLpo6r7pp5t5+j7SViD93Mf3DSX0pvDPJa+13bTPgj1OthFet9cCNxNI1YlGS+Uc4LsmYgsU2i5PwHf+9LMg6eUTSS9neOlVVH1Wel/CSSkYPgoyiq8nFVJKQZblocMj6fT4l0VVRFbw8bMfnyPiol0t+Vz6vR/vB2mHqW7pggilcNyhzRLpnXj9Dz4HifQ09zZvSHp5w0vv8+ntH4FA6BX1HRWW4lIj75fqBnepttkPVPay8REgUZS937afRE9lRFmW5P18nojLb6/4+TTh/R+fC/sJ8Jw/7vRt4b5/P6K8VOn8EpLt3a57aNSPEWRwdfi+RcI2wn0jEXxSWkrl4vOFpJc7al2lpbcXfO/tl/Hfq0kqe72h1XUNJmvCzq/c9UNEqKs3Mbvk5lbW3MDEtO8AoC3Qt4EVpFqMAAu3xe2m8LKyz4RbeoV/qkjaDUP6iVC5TW8jLaFAevvF+4Xt/vPSDX97rc6+S/+Im1lc9uMEd+8/cH23bhdnmRS3Vdh+2E54HBZSYjW0GkkvV0h6OaPepMeK/BcKq6EVL2ajVBr+OZPML5V1rqm7z8+/ZYL+8t0t3zvK6mhDkzN+OtjO3oGX39DErOscGPXDRtg+4ksos+3Uc0RYv1QnFZmBBcJv2b7abw77ObqMF2SmBdWXkxLyhe0UJBS2ld5HeIwoGTPIGL2a1i43MHbb3bm74Y6Pn7jffv3V/d/v/+cePX7iFwT/paqxMA4v+Rzfv7gvKEqP5yW9PCLp5QwKiVbX1PrpUycuZqNUGnRW0CnRfnPQl3dirYy+W5Nu4c66HxZy26THBH+kR3UWhNc/Nu0mZpb8+xiXx+JApK1h2+ntcx+xEM3VtHW5YdsWdfqIJO8fPPCVWfYpUjC76Mao72e3rHz203XWy/i4nVIQFVEhy0SyfSq5tPUOuNtzC3as+35qHYUFPvjiAu/92reHT566XpM60eU/TZAQjo22uyC7ovR4zW6vVlT7dtJy51pkE0kvh9TU1LhL17loS6KYFCHCYaza6NSsr6XHFDSmgz19/sxt7jIFbNiXhZqYX7LI79gP6p23NJdhIrem5i0VHjXhtJwQXuDEfny7Wo+Pvp4+feqnfz1/8cKXc3/ylEotz3zJp62dPdfU1e87YPhccTtBRoXtIWpScQYrUzKL+xMULXj82A9nQXLw+2+/+WloDEpeWFv338VHbzVNvueXmSkUPECEdNaE/fjvYLc/Gdcr1XObNyS9HFJr0rteYXIoTBsrB5ESsyD6R2/72nnMxGCCP/X0iLpYRAdJJOvPdnvBbe7s+rLuc0ur/nPU52OAMzM5fKpo2z0hvYJEuE+xg4bOXvtcItfhyWkP826R7uD4bddk27pAqlv4THFbqe1w3NTrG7Vt3FnbdCN2DNToq2jucJTOmlm6Y9+Dld1YG+PQ1+5j3d+K5k5fOLVzYMQXR2BGyubeA9c1POkHJv/ncqXfB7IL+7xg/3FUVEl6eUPSyyOWjlVWMmylvPSCTFghbGF13S/5SOFQ6uENjE252o4+Lz5KujNPlQolnQNjrrl70KK1LT9TgvJQPE+xgiu1zb7zIGzXSyMF0VnSI9zoLlY1mlCS3uHGwupkzZaa1pi4QvUUHx0WJFcKKfnFqno/n9dL2CLQvYOH7vb8smvqGTKRd7hakzRjApHhlbpWE3cSzVJY9Mmzp17cq5v3/ALgvO4XDOf4U9Ij2rxUUaPhKjlE0sshdGbU1lT74RZeFimBcFEzVISOBUrFMw3s3fv3vr7c3PKqXyltgUjo4aHJ8I6vdUf7G/XtSIF7h8e9ZJLZEm/8HF1q5JHCpqO99P4YNtLQ3u1mF5b8FLjati7Xb/umPe+FXxbyuY+8EBdtf6Sv4fNp/Lg5Ex7p7I3GNh+F9toxLd/d9J9nmhoFSzlOItA+O1bWu2W6Gwse7e0f2D4WLYrtcxeqG03EdV5uxQgP2BfHbFypqPbto+XOscgukl5OqbGL9fKNKvcjsxLsQk6LiBSR0u2jltISKdEOxrKNpLl0Njw4PHZLJhKEMjA+7e5u7fj2PARHmks9vLCEItFevUVs9MiWpriho6C+o9sixLvuxfPn7plth2KeVDnh81Q4obOB22fPX7gliyAp/8Ti30goHDPbQ3qNHb1uweTMfocnZ/3YOyqvtPYN++UtERtLTVJPjxXPjiyqW7Hv0jU4ZrJs96ksXPYFC1r9FDa//aL0aE+scT/bc8xsIWoud35FdpH0ckutq7AUl4s3SKgoEJMRkR5pLJFdz61J13xzxN1o6nSTc0tePmuW/nX2j/hCoQsrq/657fv7vuQUkR3lpxj3RkpJdZL0sBUPAjQqm9pMUncsonvhxYZgkRwFCO5sbLrdgwNfzDTIj/2wuBDFAvyQGNtGkB4Q5dEOeG8PuT3xtzOLq66tnxL3Xb4kPauvTdPzPD7l6tp6fDUWP9jaUuufbjC3uMUvlESlFi9Xv22OP4H9qrpKfpH0ckxNtaW4TEdLRUxABObLvltERYpLAVHq11W1dpn0Fv26uKSKDEjuGhr1EiFFTJZJHPSpIx0Sg2OTfi7sFYuYSktQEU1erG6waHLaHVnkhex8oQAT28uXr9300qpr7BnwxUwRoI/63r31lY5pcxu250PPcIgg2S6RIzNF6A2mPXHNIr5Hj458eks7Y9/IbVfT2usXOL9qVDd1+A6SVjvumrZev77GDya6H/2wGI75pPAYPE1EebWiRkNVcoqkl2csxb1mKe7PJg0/Fq0AEmGls16L8nb27rvjp0/8rAUEiOD2Hzz0j5Fhk6WujKOjvNP8yrpr6RvxMjyytBiogoxMkFFRetwatONt7ewU16GgHZB9Mf6vqrXH/VLd7K41tvuIDMm+e5+Ud2c92rXtXb8gUEibw7EjKTozmEtLWyG19xjg7GdeWCRKJwvr2rK278z8shubnnfd9j0ZmvJLVbNvL7zR1O5aTIIsUnShis4Tjj2RHvtgNktFlYSXVyS9nFNVVeUu2IWcjvaImpBgu0VpBw8f+0G8r01Mi6vrJhCmoS26vf0Hbm1ry3cMMP5tffue6xgY9W181LRLFsp+69vgqlu6km2zj4KUmFkxZJEgbWshyqPjY/Peru+tpUryjEV7dJos2X4ZB0hJqaQU1VuT4FGhNLxJ6Uph2+H4CxK8Xt/iWPeihd7f1m4/zIY2ybtb227LxEeqXmdRHjNBiPxaLbJkADNSpBYfS0NetFT3Y1tetfvRtkuUV1NT/nyK7CPp5RzG7F21aO8nH319nJrGhPzr9e1ubmnNr/aPbCgIOj4175q7B/yMi9mVVb82LtESkqL9D5kcWCS4aNEenQmDEzN+sO9/ribj3ODflyrdtYZW2/Yd2/Zz984khvTe2O323r6J9ZbJqM9vd3t3zz15+szPzuB9CI/3PrVjmjBpMQAZ6RUHD9ux/9u+y79MrFUWsU3PL/qhK0R2N0dv+3Uw6NWtbOryVZYrWzp9KfqVtXVL0R/5jpu7FkVy3IzdI5IMbXps/8K1KlepsXm5RtKLgOqqanfRRPFDSnpESz9cq3Ut3YOW4u6bbJL2tqPjY4vAVlxb33AyMNmiOCoN91sKyrAVel4nZxeStkCL+uo7+vxcWZ+CFqRHpRbq7TFchE6KtPSevUhWJmNpx2uNbX74yuTsvK+2/NaizSC9V69euxlLnZnq5iOx1IwJUvOrFuUxbKW+o9cvcEQP7X07PhYTIlJlSUumu7HqGSXjiRyX1uiRnrTPddg2k3U2/Pg8L70kyrtWWW3/USi1zTOSXgzUJtWUadvz7W12cftoz6IlJvsjiP2DQ1+Z+MNv793b96SXh34IC721yILOhZ37993E/IJv62PZRnp26RH1UkJIXh5V7p+XbyTSs8+9NHmFCA6Ygnb87Jk7OHzsli11bukbcJR+WrYUl8W4gyAZEjOzfOcT6TFzoqqpw92eWXDzy2uuZ3jS1ZiUmT3SPXTLtzci56MnySDkrd19vwB5k8mdKWv/tCiUWnyh4os/bk9VUkaqNpm/XPY8ilwg6UVCtaW5V25UWjTDwjeIL5EfFz/TyLoHxtzG9p57/vKV+/XDr+7dr+/c1OKKRVEzfuEc1sodmZp1PSMTJrwF13lzxF0yYYaZDEGkQHFPKhpPzS/7gcdBZEiPDpKJuUW/ri7j/W6OTvo2vkSQSfl5ePbihZ8Vcpk2t9CmZyC9G/Wtbmpm0T169Ng9tdR4b/+hG6dYQVe/SbLDp+L9Fv0xt5bxiF5ydkzhWItwvPwnwBq9dt+ntSa9cudP5AdJLxpqLc2tcZdNdj8WI75EfMiA1Le6ucvdnl32kqNjYXR6zs9bXdva8cNVWMh79Pacq23t8SltiL5OYNsjgmRZyK7BWxZBPiqmrNzSQUIJK6Z/0Z7G+DlKQbEwUBAe7Yv3Hxz6qW8MLaH9Mb0POmUuVTe6NpMb7YbM7ECux8dPTaTbrmNozF2sbUmiOTsWUvkQ0QXZFbHHtHeyQLrS2jiQ9CKDAqOXLNrzFVgQgV34XnyFxz+bZCosWmrpHfJzVqtMhF0DI67ToiZWQfMzGBCHj5rKSK8AoqpoaHPzS6u+o4SFt5He6zdvfeo5btFeU8+AjxqZNREWB6IqygtLgacXSW1pe7P9lJFreI5FjhiAjIy37+27ByZPeoUpkuDfx+cLgkseJ/f9Y4OU/5ql/sxgKXe+RP6Q9CKEjo0rJj4f8RUu/iA+LzOLjujpZV4qMB6uOEfVv/552QV4Dx0DzV033apFX4js/bv3Ce/fu72DB36oyv0HD/3Ql18Zo8fA5dev3erGjmvouOm3Q6RWuu1A8XjtPjX4WEyciskMl2HcYPF9fDe+o/9M4bF9P0pHXdMg5OiQ9CKltrrGXWfgciHFLS8/hFIg9TjIpCiVwnvKPU8aTA8r5Zyom0c0lwxAfuNem+D82LzCoGRq6i2ubbq69pu+Z/lzwvskRbXjShYMCosQJau5+RS+5LM85yVpn7lGVWSNx4sOSS9S6KFkDB/zc6kbVyq+z/KJRE5SKkCERJR4o6Hd9QyNmfzW/ZSx5xb5MYTl1as37uHjY4v6Nl334IQfW8d+PidYv03gPf5+al+F2z/EtvvL1Urfm10r4UWJpBc7tTV+1sbl60m6i0w+ER2UE0gZgvRKxQdEfcyMqGnptrR3wLX2DruW7gFX09addGxYdPcxSvt02+UoFWPpY47dz7a4Uu1+tGO4fD3ppSWl1dCUOJH0hKs3AVRXV/v1ci+Y/OjkYLzd18juS6A39V8XK9w/L9xw/7Rbf//iDff/LlwvDhQu97k/Iy1aL73CEJdkTq3dt+0S3V27Ua1FfoSkJ1IUor5rNyrcxesVify8PE5K5pvwF6JIKIqtzHMJ9tikh2D/d7nK/Wy3Vyx9r6pKFvhRdCckPXECqi7X1VS7apMf62ywwNDPhSEuQSjpwcJ/RYr+/aScPvU8+fyfbeuE3DyFBcdNbn6dC4M0ljm0Vy2yq6y0VLbGZFdf/vuK+JD0RFmIiOot8qu1tLeS6K8gwAtXKt1Pxg+0u/mZDhB6TxkMjHx4nLTNJRSeL943WV0xWfmI7FP+7Unel1DomQXbbjLDItn/D/baj5a6Mt7uoomOqO4G4+6qa5LvINmJEiQ98acgjwbuWwRYU1nlKm5UuqvXK91lJGjCQTZEVhdMPJ7C41/8/cqT2Gcueqp9dWJgjV6ep44dryX3k20k2+RzyWeTbds+7T6Co17gDTsmn74WIjqJTvwRkp74S/goylNrQjTZ0F6GdID7BkVM62ss4ipQBzxvEWR93UfqoLbaR5YNRcJn7Xmj+Bywv9QxlDs+IT6HpCeEiApJTwgRFZKeECIqJD0hRFRIekKIqJD0hBBRIekJIaJC0hNCRIWkJ4SICklPCBEVkp4QIiokPSFEVEh6QoiokPSEEFEh6QkhokLSE0JEhaQnhIgKSU8IERWSnhAiKiQ9IURUSHpCiKiQ9IQQUSHpCSGiQtITQkQF0hsbG5P0hBBx0NbW5m7duiXpCSHiQNITQkSFpCeEiApJTwgRFZKeECIqJD0hRFRIekKIqJD0hBBRIekJIaJC0hNCRIWkJ4SICklPCBEVkp4QIiokPSFEVEh6QoiokPSEEFEh6QkhokLSE0JEhaQnhIgKSU8IERWSnhAiKiQ9IURUSHpCiKiQ9IQQUSHpCSGiQtITQkSFpCeEiApJTwgRFZKeECIqJD0hRFRIekKIqJD0hBBRIekJIaJC0hNCRIWkJ4SICklPCBEVkp4QIiokPSFEVEh6QoiokPSEEFEh6QkhokLSE0JEhaQnhIgKSU8IERWSnhAiKiQ9IURUSHpCiKiQ9IQQUSHpCSGiQtITQkSFpCeEiApJTwgRFZKeECIqJD0hRFRIekKIqJD0hBBRIekJIaJC0hNCRIWkJ4SICklPCBEVkp4QIiokPSFEVEh6QoiokPSEEFEh6QkhokLSE0JEhaQnhIgKSU8IERWSnhAiKiQ9IURUSHpCiKiQ9IQQUSHpCSGiQtITQkSFpCeEiApJTwgRFZKeECIqJD0hRFRIekKIqJD0hBBRIekJIaJC0hOnRm1t7RdR7rNCfCskPfHN+bsi+7ufF+KPkPTEN6GcqKChocG1tra6rq4ud/PmTTc8POxGRkY+gecHBwddb2+v6+jocE1NTZ/dbum+hfgaJD3xlwkSqqmp8Y/b29tdf3+/Gx0dddPT025pacndvXvXbW5uuu3tbXfv3j23u7vr9vb2ysJrOzs7bmtry21sbLg7d+64ubk5NzY25gYGBvz26+vr/f5AAhR/BUlPfBVBckA0RvR2+/ZtL7j19XUvNwT24MEDd3h46I6Pjz1HR0eex48ff5bwHgifefjwobt//76XISJcXl52U1NTXoJEkOF4JEDxpUh64ouorq72NDY2ur6+Pjc5OelFR1SG4NKiQmAIDx49evS3YBtBiGkRIlciwSDAlpaW4jFKgOKPkPTEZ0EeSIRIih/K0NCQm52d9elqEB18C7l9DWkRIkCiwMXFRf9D7uzs9Cmw5Cc+h6QnyhKkwQ+ETgbSStLWkIqetug+RxAgHBwcuNXVVTcxMeG6u7t9J4pSX1GKpCdOECRBe1mQ3f7+/rkS3ecIAuQ+7Yt0gND5Eb5X6XcVcSLpCQ+iAzonaLMjXUR2iOS8y64cHDPHj7Rp82tubi5+x3LfX8SDpCe8CEgFGR9HTyxtZEEcpTLJEkHYpOUzMzN+rCDtfZJf3Eh6EcOFT9pHjyydFGtra8WhJlkXXiB8Fzo8SHn5nkSzEl+8SHqREi56hnrQ9sXQkyCJUnHkgSC/EPXRyxvOQ+m5EflG0osULnbSPdruGPwbxFAqizzB9wu9vLT10XZJWi/xxYWkFxlc4LRrMceVwb2ks6HHMxaQH9+bdJceatJ7iS8eJL2ICMJjYj8XfBBAqRRiIHxvBlpLfHEh6UUCFzQXNhVNuNC56GMVXiB8f6a00a5JB4fG8+UfSS8CQoSH8OiwkPBOwrmgAozEFweSXgTQWM9QDUV4n4d2TSI+ymIREUt8+UXSiwBq3FGWScL7POHcEAkTEauNL79IejklXLBMvF9ZWfGDcyW8PyacH/6DIDKW+PKJpJdDuFCBAbiMw2NcmoT3ZYTzxOwUCqTSFlruHIvsIunlENqjmGDPzIMw8Fh8OWEA8/z8vJ+PXO4ci+wi6eUMIjzSMhrkaZgvd1GLP4eIjylrFGCgzFa5cy2yiaSXI0L7U09Pj0/PwsVbekGLPyecNw1ezh+SXo6g2jEFBEjLSM9KL2TxdSA+pqsxT5f/SDjHEl/2kfRyAu14jMfjjxnq4Ym/D+KjXZSFkEIh0nLnX2QHSS8nID2qprBGBMNTyl3A4q/DXGUqMIcipOX+BiIbSHo5gIuQ6VMsiEPju9rxvi0hzWXhcS4YzrfEl10kvRxAWx6DkO/evaso7zuA9IBODQYth1XWyv0txPlH0ss4RBz0LI6PjyvK+84Q7dFJFKK9cn8Pcf6R9DIOEUcYoqIo7/vCfyjMzQ1T1BTtZRNJL+Nw8akt7/Qg2ltYWPDr6Up62UTSyzC05aWjPEnv+8M5pidX83Kzi6SXYYg0KIO0u7sb3ToXZwXSo+Ao0TUDwdW2lz0kvYzCxcYfj2EUqqJy+rCoEj3mSnGzh6SXUZAeSxiqA+P04T8YijkwJ1dLSGYPSS/DUElFqe3pg/SYmkbpLi4gSS9bSHoZhIuMckezs7O+N1Gp7dnAlD+luNlD0ssgSI/FusM8W0nv9CG6Zswe648o0ssWkl7G4AID/mj0Ipa7IMX3B+nRtMBMGOY9S3zZQdLLGOHimpqaUq/tGcJ55/zTe85AZUkvO0h6GYOLi/a8UChU0jsbOO80LbDSHCW9JL3sIOllkLCsozoxzhZSXJaLZHaGpJcdJL0MES4sLjJNPTt7kB7tqsyKYbxe6d9LnE8kvQwRpMegWHoOufAkvbOjtDOj9O8lzieSXoZAekxyZ70GBsdKeGcL0uPvQKeSlonMDpJehgjSYybAeW7P47i+xbF9q+18Lzi2/f19P0icHtxyfzNx/pD0MkRWpBcLnH/+DktLS+rBzRCSXoY479Ij3WMdCdI91oolCir3vi+BoqjT09N+HBwpJNsu976zJEiP70qPuqSXDSS9DHHepIeIjo6O3PHxsb/lMbJiGAe9mvQuh/eE9/GY405/Njyf3jbfj+2EDpvwPuBz50H4HAPfkTJTFHOV9LKBpJchzov0wsVOBWEqvZDaMWwDSRHpLS4u+vtEaJRWZ73YwcFBv7YEkRurtvEefnh8liE46XGHQJTIexAKkRQ9pMxzpZzW2NiYl+FZff9AOA/MgWYutKSXDSS9DMFFxdAIxHGW0iMqQ2hIqLOz0wsPKSEoJIfgbt++7Y8TofE+fmSMZSMiIm1l2A33kRji4zHCDNLb2dnx20FwfJaOAsTC9kgl2QbHUO74TgtJL5tIehmCi4qFgM6D9IjEkBLSow2PSA1REZUhwSArbhnLhhwQG58hUkWSYSodn0GM3AbphUG/lGUnmuQ+0V0YIsLzIfU9KyS9bCLpZQguqvPUpofkGDNI9EXEhsSI9PhBISpuicgQJMeK6JAXQzyIBHkvEiON/Zz0+Azb4pb90WbI90d8VC8ud1ynRZAeEa6klx0kvQxxXqTHftk/bXO03QERH2kqEViI0BAi7XkcL2LjPQiSx7yGJEO7H9Jk6EdaerQBhogR8SG50KuLNM+D9DgPRLnqyMgOkl6GOC/SC+ltaJdDSERqQWREZaEzA2nxno6ODl9hmPfxHr4DkmM7ISUmTQzSC9O7iOjYLoRIj/SeaJHH5Y7vtAjS0zi9bCHpZYjzIr0AwkJUSIhbHiMlOiSQFo+5TySEBEkB+bERIRKlEc3xPXgv70t3TNDWR5sd7+OW13ku/Tz308dz2nD++Y6akZEtJL0Mcd6kF/ZPu1b6cbhFbqSoRIREg4iB6A0xnvWxfwv4DkiPv4eklx0kvQwRpEeqR1R0HsTBMQRKn0MINPLT/kaayv1w3On3ZxXSfATO36O5ubns30ycPyS9DBHajGgXI4oiwjrv8uAYkV9IXfMiPEB6pOhEsaqnlx0kvQwRpEdPJ21oWZAex4ccIC+yC/Cd6Eyhh7r0byXOL5JeBlG5+PMB556peBqjly0kvYzBxcWsjLDQN9FGuQtSfF8QHuc/jD+U9LKDpJcxuLgY78bgX9rKJL2zgfNOOyUDpamaLOllB0kvY3BxAUNBGLtW7oIU35/QnsegajoxJL3sIOllEC4wUipSK7XrnQ1IjxkntOcReZf7O4nziaSXUWjXI7ViVoJS3NOH/2yYPsd/PpJetpD0MgoXGqkV48QU6Z0unG/OO7NLGJSs1DZbSHoZRSnu2RFSW8ZLSnjZQ9LLKFxsVFFmitd5mZIWCwwKV2qbXSS9DIP4qERML6KkdzpwnqnwwtQz/tNRpJc9JL0MQ5ShFPd0IbVlCqDq52UXSS8HULopL+WazjthQHJLS4tS24wi6WWc6upqX5VYc3G/P5xbqtvQgUGJr3J/D3H+kfQyTkixiPaoQKwxe98PxkQy51lRXraR9HJAVVWVr9xLtBeqGItvBxEeUFGFhY2I8tSel10kvRzABciFyHzcs14sJ48gPNryqJDMTBhFedlG0ssJtO2RdrFID9VXyl284utBeETPrHhGTznnWlFetpH0ckK4EGlkJw0rdwGLrwfpMeWMi4RqKoryso+klyO4IBkwyyI8DGEpdxGLLwfhhc4LLpRy51xkD0kvZyA+0tyFhQUNYfkbhLSWFdwoH6XOi/wg6eWMcGFyoWZlxbTzRjhfFGmlc0hFQvOFpJdDuEC5UCk9tbW15S9iie/L4VzRPEBJfpWOyh+SXk7hQg3te6rC8uUwuJt2vJmZGT/2sdy5FdlG0ssxtO+xaA0XsMT35wTh0R7K1L5y51RkH0kvxxDtIT7+yGH8nsRXHs5LqJPHusLlzqfIB5JeBCA/UrX5+XmJrwzhfNDxwzSzcM5Kz6PIB5JeJBDxIT5FfCcJBRoQ3sDAgHpqI0DSi4i0+NTGl0R4jGWkUIMKCcSDpBcZoY2Pzo1QeDQ2+fF9ifCIeOm0oAoy50bCiwNJL0IQH7M2qBoSqrLEIr608JheRuSL7CS8eJD0IoWLnDJJDGBmOcMwcyPP8gvfDdEjfH785c6NyDeSXsQgPhrumbLGUI3QwZE38YXvhNjX1tb8CnLqsIgXSS9yQmrHDyGP6W4QHqX0acek/U4dFnEj6Ymi+Eh36cXMS9RH2x3RHUs2Et0xLS9839JzIOJB0hNF6ODglqlrLDSELJAG8siS/MLYO9oqx8fHfWcF0V34fiJuJD1xAqIgSs9zn/mnY2Njvh2M8WznWX4cV1p2pOpMJwuyU3QnApKeKEuQH9JgbQh+JCHtPTo68py1ANk/x3F8fOwLBVDwk8gO2dFRwfEruhOlSHriDwnyQx78WBjiwhxeoimivyDA04gCQzSH5IDUm3qBDDDmR0xkGo5XkZ34HJKe+GIQH0Khw6Onp8dHVQgHAYY1OYKQggiDDL9GiOH9fDZEcsBzTJ+jojGrk5HCshASx6OoTnwpkp74aoiiggBJI0kn+RExw4F5rEzeJwJjmAjpcBj4nBbY5+A9vJcoEpEyhAap0qnCnOHR0dFiW10QnaI68TVIeuJvgXDSEuQ5prgx4JlUmGgMGdIeSIcIy1MiMaK1AI+B15Db4uKiH1OH4BhCQ+9rGEwcJCfRib+KpCe+GUFGfwTyYrwca08EeEyK+iXbKN2nEF+LpCe+G+Wk9bWU264QfwdJTwgRFZKeECIqJD0hRFRIekKIqJD0hBBRIekJIaJC0hNCRIWkJ4SICklPCBEVkp4QIiokPSFEVEh6QoiokPSEEFEh6QkhokLSE0JEhaQnhIgKSU8IERWSnhAiKiQ9IURUSHpCiKiQ9IQQUSHpCSGiQtITQkSFpCeEiApJTwgRFZKeOBVqa2u/inLbEOJbIOmJb0qQVk1Njae6utrDa01NTa6lpcX/6Nrb211HR4eH+62trf61xsZG/3k+E7YhEYpviaQn/hZBcEFSzc3NrrOz0928edONjo66mZkZt7Cw4FZWVtzq6qpbW1tzd+/e9ayvr3vCY167c+eOW1pacnNzc+727dtueHjY9fT0eCmyv7AfSVD8VSQ98dWkIzGit97e3qLgkBsC29racvfv33ePHj1yR0dH7smTJ+74+PgEPA+lz8Pjx4/dgwcP3O7urtvY2PDCRITsh/0h1/RxSILiS5H0xBeRFgzC6evrc+Pj4z6KQ0oHBwdeVAgLkXEfDg8Pvfj+CnyWbQQxcru/v+/3t7i46CPBgYGBE1Gg5Cf+DElP/CFBdvX19T5tHRkZ8REXkRxiClHZ35Hb15AWIffv3bvn02F+xF1dXb5NEDFDue8jhKQnyhJk19DQ4GU3Njbm29xIOb9FFPetCBIk0iStJvojCg3pr+QnSpH0xAmCKJAdPavIjnQyCOY8iK4c4diA6I/2Rdr+Qm+w5CcCkp4oghxIY2kjo8MA2T18+PBcy66U9LHu7Oz4yA958734flDuu4t4kPTEieiOoSbLy8u+wyBLsislHDtpLz2/tEUyDjB839JzIOJB0hNeAkR3k5OTvoMia9HdHxG+B0NfZmdnXXd3t4/6yp0HEQeSXsQgOwTQ399fjO6CKErlkWX4PqGzg6hvaGjId3SUOyci/0h6kUI6SyM/Mx6YFRGiu3LSyAMh4uN+aOvjx8+5ULobF5JehHCRM9+VHk56OoMU0pLIKyHqI6qdn5/3Y/s4HxJfPEh6kUGEh/C44MMsiliEFwji4/szbY5xfaF3t9w5E/lC0osILmoGGjN1jEHGscmulPD9GXTNdDaJLw4kvUjgYiaVY8oW7XdEOqUSiJEgPmZzDA4O+mE7El++kfQigIuYAbpM0leE9yml4lPEl28kvQhAeKENT8IrD+eFCJhUlyE8El9+kfRyDBdt6LQIMyzKXfAigfNDJMyYRQYxS3r5RNLLKVywjMNjPNre3p6E94WE4SwM5+HiKHduRbaR9HJIEB7zTTc3N/3FLOl9OZwrpq0xLS/M1xX5QdLLGQgvTC2jYT7vMy2+F5yz7e1t/x+HenTzhaSXM7g4+aPSU6uOi79OOG90bDB4OZzb0vMtsoeklyPCfNqJiQmfnpVeyOLrQHz8x0F5fC4UpCfxZR9JLydwMZLWEpWEAgLlLmTxdSA+5idTVFVpbj6Q9HICUR418cJ4vHIXsPh6QprLMBZmtHCuJb5sI+nlAC5CohD+kEQlasf7toRoj97csOBQub+DyAaSXg5g1TKiEBrdldZ+e8J/IvSGU05fszWyjaSXcUKUR5uTBiF/X+7fv++mp6f92D2aE8r9PcT5R9LLOFx8TJm6c+eOn0JV7mIV3w6iaUV72UbSyzghymOIiqK874+ivewj6WUYLjqKglIjTyWjTg+qLXPeFellE0kvwyA9Kv4yXUrCOx04zywsRHStntxsIullFC42xuVRDUTTzU4XompK7lOnUClu9pD0MgrS6+3t9R0YKipwulB+amNjQ+tqZBRJL6MQYVABRIORTx+kx3kfHx9XiptBJL0MwkXGxUZqS6qlRX5OH5oUlOJmE0kvgyC9np4ePx9Uqe3ZwDknxWXMniK9bCHpZRAusqGhIVVFPkNCisvFQzmvcn8ncT6R9DIGwiOdomYeA2WV2p4NnHem/U1NTfledEV72UHSyxhcXEQWas87W4iuOf+h5JSklx0kvQzCXFtmBWgWxtnCuadgK4VbJb3sIOlliHBh0XgeykhJemcHUTazYQYHByW9DCHpZYhwYakT43yQ7syg8EPp30ucTyS9DBGkNzY25i+2cheiOD2QHp1JLKhOZ0bp30ucTyS9DIH0mPZEaaPzNN+WslZIOLY5wHxXpEenEhdSub+ZOH9IehkiSC/03J6FYNhnGi56hs+wfgTiI/opfQ+U+2zptksp957SbZR7z2nBvhE9pb3Ug5sdJL0McZbSC/tibNrq6qrvSNnf3/edKfQkM3SDx0dHR15+vM6Mha2tLR8JIkdepy2Sz1OeKb3dNGyT/bAdPsN35fPAttgG22bNCnpPec9ZyI99hmEr9KhLetlA0ssQZym90GhPREdHSn9/v29bRD6Li4se7rMwNq8BU+WoBMMcVZ6nQAKf5XnuIyy2nf4e3A/zWknjERyiY/vIhecRDD9cerGB84EkS7f1vUlLj+8k6WUDSS9DhIvqLKRHBIekEA7CQkJEeAzZQH4BJuBTconXeR8N/IiSHxkCpNGfdBgp8j2I3tLfA7kSuVHBZHh42EdzRIVsg/fzWQZnIxnW+GW77A/xnPY5YV9EpZT34rtJetlA0ssYVFfhYj+LSI+ICxkRrXFLCktUhpCQEfIJixQ9f/7cp7aMYUN0vJ8pW2wDuA9Ej+Wkx/b4YSJapMd7Z2dn/b4YDIxwnzx54vfB+3jttDtSgvRI1yW97CDpZQwiJ1K805ZeaGcj8iLt5CJHPkRYCA0ZEZkRgRHlHR8f+/fyHl4L0kNywH22U056yAtR8sMkveU9PCbSC9Jjv0iP13kf6bOkJ74ESS9DcFGdRZteuLiRGLJCMEBkR4TFehFIjePiOaI7nie9bW9v/yTSCxILEkx/j7AvekRJgdlGiCKRJJ9jm0SbyJ8fL5zFDJVwrJJetpD0MsRZSQ9o0yPNJJrjR4N4aMMjvUQ+pNzcR1Z0LiABoI2P4+U9pL2krkSMoWOC++W+BzLkh9nU1OS3wX5JaZEpKT4zIHieoSJs67SFB5JeNpH0MsRZSi/ARc6+gfvheY6FKA6RIbjQq0u0xuO/IqXSfSFethk6McLr5T57GvB92D/fWUNWsoOklyHOg/TYJ+1uEPYfnqMnlkiM6IsIjR8XbXAhhU0fb+njcoTthn0hPaJFfrBEVzxOH8dpw35pR0TEWgc3O0h6GeI8SO+PIPIifUVypLqkwzwu996/Ct8buZ5lhBfg/PP9ED3pfrm/mTh/SHoZIkiPxnwutvMmPeCYiMACRGLl3vdXYftnGd2l4TgQMB0sKjiQHSS9DBHSJ3pHGarBhXcexRcLSI92TDp0tE5GdpD0MkSQHuPUaNP6K50D4tuB9Ejh+U+o9G8lzi+SXgZheAQN+pLe2YL0iLj5T0idGNlB0ssgjFM7ixkI4iT8p8PYQQ1XyRaSXsbg4mIJSDoz6MEk2ih3QYrvC//ZhJ5bBklLetlB0ssYXFzA1K/SKVzi9OC8h04MIm9JLztIehmEC4yUipkA53G8XgyE9jym3El42ULSyyBcZPzhaNeT9M4G2vPoTGL2Cc0N5f5O4nwi6WUULjRSKybsq13vdOE/GQYlUyWGQcmK9LKFpJdRuNBIrSj3RNRR7uIU34eQ2lLuihky5f4+4vwi6WUUpEeUQe+hhq6cPgxVociAUtvsIellGC44/nhKcU+P0GtL9ZiWlhalthlE0sswSI9eXKIOzc44HfjPhXU7aFoo9zcR5x9JLwfwByxdVUx8H2hKoIAppaSU2mYTSS/jVFVV+WiP6EMdGt8X/lOhIjQdGJSrV2qbTSS9jMOFR5Vi2pgU7X1fGBPJ2Eg6kBTlZRdJLwdwAbJuBFFIuYtV/H1ClEcZKUV52UbSywFIT9He94PzSZTH8CANRs4+kl5OqK6u9o3roc5euYtX/HVoM1VbXj6Q9HICFyIXJItgsyhPuQtXfD1EeUTPLDhOSXi15WUfSS9HcEEyYJY0jAu13EUsvpyQ1rKAOYUFOMeK8rKPpJcjwgVJp8ba2lrxwi29mMWfE84bc2yJnpljK+HlA0kvZ4Q0Vyum/T04Z0zvI62lk0jCyw+SXg7hAqWaL4uCn9f1cc8zTDUjrV1YWPCdQxJevpD0cgoXKhcsFy5Tp8pd3OJTEB6938xnpplApaPyh6SXU5AeHRtMUdNykV8G5wfCIGQJL59IejkG8XHh9vf3+ws5XNTlLvjYCedme3vbXxBqx8svkl4EID56IOnYkPg+hfNBWruzs+NL8Gs8Xr6R9CIgRHwSX3k4FyynKeHFgaQXCRLfp4RzECI8UloJL/9IehERxEcjfVhQKFbxhe9NGx4Lp0t48SDpRUYQX29vr18sPMZFhfi+CB/xE/mS0qrTIh4kvQjhAgfG8VEUM8zTjUF+fMcwnzaMw5Pw4kLSi5QgPgoUMNWKdq0ghVJR5IHwveiwYJHujo6O4nkoPTci30h6ERPER3rH6l6ku3mctsb3IZ2lJt7w8HBxDJ6EFyeSnvAN+AiAH8P4+Lhv3EcUWV9LN3wH0nfKbZHOUowhfN9y50LkH0lPeJAA1ZeJ+ujkYJnDsIh41uSXlt3i4qKveEwBBkV3AiQ9cQKkQCREWx9DWyhYkBX5cXzHx8e+o4KCAfTM8j34PhqOIgKSnihLEAUREvJAfnR2IJajo6NzI0CiunA8u7u7vl2SgcZhMW6i13LfT8SLpCf+kCAO5EfkxxAXOgRIHdMCRD7lpPStCakr+wWiOtYEIY2lk4LIjuOV7MTnkPTEFxHSXu53dnb6aArRUL2F9BchkVoGCQYR/h0Zhs+nJcfz9DATdVIy6/bt266vr684Z1ZtduLPkPTEVxMEyMBeBMgPCAESARJ1kWYy0yNMc0tLKy3FUtLvAT5LJEdUieTYPvthfV+G2KRFJ9mJL0XSE3+ZIJsgHIaDMOiXNJgBwAhqdXXVFzhAWgwMRohEhogsDc/xGu/hvXyGSI6S90SVRHOkrp/btxBfiqQn/jZpAQUJEQUCImQwcGtrq19GEXkxhITOkQCSJHJjHB3SpP2Qz0HYTul+0vsX4muQ9MQ3Jy0n0s9yKWiQWVpq6c+Wfi79WSH+DpKeOFXSEitHuc8I8S2R9IQQUSHpCSGiQtITQkSFpCeEiApJTwgRFZKeECIqJD0hRFRIekKIqJD0hBBRIekJIaJC0hNCRIWkJ4SICklPCBEVkp4QIiokPSFEVEh6QoiokPSEEFEh6QkhokLSE0JEhaQnhIgKSU8IERWSnhAiKiQ9IURUSHpCiKiQ9IQQUSHpCSGiQtITQkSFpCeEiApJTwgRFZKeECIqJD0hRFRIekKIqJD0hBBRIekJIaJC0hNCRIWkJ4SICklPCBEVkp4QIiokPSFEVEh6QoiokPSEEFEh6QkhokLSE0JEhaQnhIgKSU8IERWSnhAiKiQ9IURUSHpCiKiQ9IQQUSHpCSGiQtITQkSFpCeEiApJTwgRFZKeECIqJD0hRFRIekKIqJD0hBBRIekJIaJC0hNCRIWkJ4SICklPCBEVkp4QIiokPSFEVEh6QoiokPSEEFEh6QkhokLSE0JEhaQnhIgKSU8IERWSnhAiKiQ9IURUSHpCiKiQ9IQQUSHpCSGiQtITQkSFpCeEiAqkNzIy4v5RW1tb9g1CCJEHcFxNTY1rbW11o6Oj7h+NjY3+SclPCJEnguy4j/AGBwfd3Nyc+8fExITr6Ogovin9ISGEyBrpIK65udkNDAy45eVlt7u767a2ttw/Hj586O7evev6+/tdfX29N6PkJ4TIGmnZNTU1eachu/v37zs8d3BwkEjv8ePH7tGjR25vb89NTk76MDD9YSGEOO+kZUcau7Ky4p2G7A4PDz37+/uJ9BAeTyA/TLi6uur6+vokPiHEuSd4qpzscBpuw3FwQnqB8CZeoJeDDUl8QojzBl6iKQ5HDQ0N+TT23r17JzyWdhuUlR6EqI83LC4uuu7ubrXzCSHOBbiourrad1AMDw+7paUlLzu8dXR0VFZ2gc9KLxA2sL6+7qM+dhJCyXIHI4QQ34tS2RGQ0RtLgPa5yK6UP5UeBHvy5oWFBdfb21s8gNKDEkKIbw2ugZaWFp/GIjva7ILsynnrc3yR9AJsHPkR9TGNgzyaA1HUJ4T4HgTZEdnRQRFk92cp7B/xVdIDdoT8GPMyMzPjOjs7i42J5Q5aCCG+huCTIDtGkczOzv5t2QW+WnqBEPUxtIXBfw0NDf4gFfUJIf4KQXbcIjua0QisdnZ2isFWORd9LX9ZegEOhoZEDWgWQvwVguy4T5NZkF0YevJ3I7tSvon0wkHduXPH3bx500d9kp8Q4o9IO4KCJ8iOQgDILj2DotQ5f5e/Lb1AODiivtu3b3tjhy+W/qJCiLhJy44A6bRkF/hm0oNwsExjY2Q0X4biBRKfECJNOrKjze40ZBf4ptIL0ODIwbNhyjKHWn3lvrwQIg5wAC6gCWx+fr4oO3zxrTopvoTvIj0IX4R0lwHNTGNT1CdEfIROCoa3TU9Pu+3t7TORXeC7SS8QvtTGxoYbGxsrDmguPTFCiPxAcBOu866uLjc1NeUnNdD0dVayC3x36QGpLmP6GFxIWEvUF05M+kQJIbIN1zRzY7nPdU6nJrJ78ODBNxlY/C04FekFsDtfmqiPycLk9+EECSGyS5AdTVjIjnG7yI409vj4+FzILnCq0gtwEmjrI+RlXY50KCyEyA7h2mXoCbJjrR1kx3V+XiK7Us5EehByeqax0ZsTenih3MkVQpwfEF2p7Mjg0tf2eeXMpBfgBDEokZPW3t7uT6jEJ8T5JAQmBCl0UIyPj7vNzU0f0Z132QXOXHrACaOhk2lsVFRQ1CfE+SItO4aeEKQgu3D9nsc09nOcC+lBOHGheEFbW1vxZJf+AYQQp0OQHWks7e9cmwiDICVct6XX8nnn3EgPOIGEyGEam4a2CHE2hGuunOxCgFLuGs4C50p6AcRHVzfhc6jQLPEJcTpwrTH0hDSWERZchwQiISgpd81miXMpPQj/m1ChmQHNoUKz5CfE9yFcW2EGBbIjskN0eZBd4NxKL8BYH6I+xv5QvEDT2IT4diC6cD0F2TH0JI+yC5x76UE4+SHqo61PUZ8Qf5207LiewtxYZEegkUfZBTIhvUAY4X337l2/DFwY2lL6BxVClIfrJT1dLMyNJZs6rzMovjWZkh6ExlSGtlCmJkxjk/yE+DxBdmEGRZgbyzUVi+wCmZNeIPyhGNqi1diEKA/XBKRlR5sd105ssgtkVnoQoj4qsDIdRgOahUgIsqMJCNmFubHhmil3PcVCpqUX4A9JmwRRn4oXiJgJ2Q7XAL2x6eliscsukAvpAeIDihcQ9bEGLz8CiU/EQPhPPsyNDTMoCAbC9VF6zcRKbqQHQXyMHl9aWvJhvdblEHkmyC49g4I1KLI8N/Z7kyvpBcIfmrA+DGgu94MRIqsE2UFzc7P/nYdBxeE//9LrQiTkUnpA+wUwoJm1NflfUFGfyANBdi0tLW50dNQPPeFCRnRqt/tzcis9SP8I+GGEdTkkPpFFQo8ssmNlQQbp8596+A++9PcvypNr6QXCj4JOjtnZWd+rpahPZAVEx8BiOueQHUsscOEyzk6y+3qikF4g/EDCNLYwoLncD02IswbR8ftk/Cmyo7K4ZPf3iUp6QMrLj4YBzcw7ZF2OkDaU++EJcdqkZUeb3crKih+RcN6WUswq0UkvwP+UYUAz63KQ7kp84qygqSXIjjSW9mciO36jkt23JVrpQejo4ASEaWyhZ6zcD1OIbw2/NUTHLbIbGBjwY0wZeiLZfR+ill4A8fEjI+rr7e1VD6/47gTZcR/ZUTQD2dEbi+gku++HpFcg/NBUvEB8T/g9hd8Ug4qJ7PjPFtmF32Hpb1N8WyS9FEF8RH38r6uhLeJb8SWyk/BOB0mvDOHHxzQ2GpT5kYYfbvqHLMSfEWQHTIcMstvb2/OdFJLd6SPpfYbwY+THyYBmrcYmvpa07AYHB/3QkyA72pElu7NB0vsD+FHy42SMFAOaNY1NfAlp2TEInsiO5Q34TUl2Z4+k9wWEqI8frqI+8TnojQWaQ/gPknZhpj7yG5Lszg+S3lfATA5SE+Y+0jajaWwC+A0wsLhUdiFTkOzOF5LeVxJ+xGEaG2OsFPXFCaIDqp6Qxi4uLvpsgN+IZHd+kfT+IkR9DG3hh866HJrGFgf855aeLhZkRwdFkF2534s4P0h6fwP+JwdOIFUwNI0tv/A3RXTcIjt6Y5FdqGenqC47SHrfAH709PAuLCz44gW09Ul++SDIjvtp2XHhSHbZRNL7RoSoj0VZiPrU1pdtguxotqDNLhQC4IIJf+tyvwNx/pH0viHhYqCtj6ivp6dHUV/GSP+tguwYZ8eFkv4bl/7tRXaQ9L4D4aLgxIbV2CS+803678PQkzCDQnNj84ek950IFwm9etPT066jo6N4caUvNnG2BNlBmEERZKe5sflE0vuOhAuGi4dpbEQPId0tdwGK04W/A+12RHZBdvwnxd9OnRT5RdI7BcIFxCj9mZkZP40tXHSlF6L4/qRlxwwKZKe5sfEg6Z0SXEhcUER9a2trPupT8YLTBdEF2Y2MjBQLAYS/jWQXB5LeKcPFBQxtCdPYuBAlv+9HkF1os2PoiaaLxYukdwaEyIIBzQx01Wps34cgOyJqpgpSIYcmhiC7cn8bkX8kvTMkRBlUaGZdjjCgWfL7ewTZEdkhO9pRiazDOS/9O4i4kPTOAemoj9XYVLLq6wn/WXCL7IiekR3VcPiPRSmsCEh654SQ8hL1aRrbl5OWHR0U/KeB7NL17MqdbxEvkt45gws1FC/QamyfJ8iO+0R2yG5ubs5HduE8lp5bIUDSO4eEC3ZjY8MPrSCC4SKX/BLZBdKyC2XZ0+dPiHJIeueUkJqFaWzt7e3Fi75UBLEQZEebJ2128/PzXnaaLia+BknvHBPER7rLuhwMaCa6KSeEPBNkR6rPHOapqSnfGyvZib+CpJcBwoUdprFx4QcRlJNEngjfkal7yI6OHkp3SXbiryLpZQQu8BD1MY0t76uxhe9FZw7pPe2byI5zoB5Z8XeQ9DJGiHDopZycnMzVNDa+Q5Bdd3e3j+yC7FiISbIT3wJJL6MgAf54zCOlUR9RZDXqQ3asMMZ9qk0zJ3l9fV2yE98FSS/DBBnQzjU6Opq5qC/Ijg4KIrsgO74TslObnfgeSHo5IER9DOHIwjS2IDuOE9mRppPG8l0QuWQnvieSXk4IskhHfcjlPEV9iBioekIHBUUWOF6OWymsOC0kvZyBPPijMkuB9rEwje0s5RdS7iC7iYkJL7twvKXfQYjviaSXQ4icGLhLykjRTAY0n4X4wj6RHePsSGP5sWlQsThLJL2cEoRChWCGfjCg+TSKFwTRAW127JcOijCDIn1sQpwFkl6OCdEUsgkDmr/nuhxhu+npYvy4NINCnCckvQgI7WZMY0sXL/hWhMgOodJ7zD4kO3FekfQiAfEgP0T0raaxBdkR2TFAms4T0limyrEvdVKI84ikFxmICAEipzCNLcirnNjKwXuRJdIksmPBHX5EpNEaVCzOO5JehISojz9+WJfjSzo5eJ1BxaSxRHbIjqEnyE6RncgKkl7EBEkx9Yt1OVpaWooDiNOy43FadpS3CuPsFNmJrCHpRU466mMaWxjQHOQHQXahg4LP8RnJTmQRSU94gsSI+sI0trAGRahUHN5X+lkhsoSkJ06A+O7fv+/b+kIHRYgGy71fiKwh6YlPQHJpyr1HiKwi6YmySHgir0h6QoiokPSEEFEh6QkhokLSE0JEhaQnhIgKSU8IERWSnhAiKorSY8V8IYTIOwiPmpL/WF5edkIIEQMrKyvuH/wjhBCxIOkJIaJC0hNCRMSK+/8BolVT8avDtL0AAAAASUVORK5CYII=;movable=0;resizable=0;rotatable=0;deletable=0;editable=0;locked=1;connectable=0;" vertex="1" parent="1">
          <mxGeometry x="100" y="36.87" width="229.42" height="513.13" as="geometry" />
        </mxCell>
        <mxCell id="b-o21iaNYB_1QmSjUm_C-2" value="" style="shape=image;verticalLabelPosition=bottom;labelBackgroundColor=default;verticalAlign=top;aspect=fixed;imageAspect=0;image=data:image/png,iVBORw0KGgoAAAANSUhEUgAAAVkAAAMACAYAAACO7BTNAAAAAXNSR0IArs4c6QAAAARnQU1BAACxjwv8YQUAAAAJcEhZcwAAFxEAABcRAcom8z8AAIQ4SURBVHhe7Z0HmBTF2rbP/30neMzpGI8550DOWTJKEAQkKAYEFERUBMGMgKiIgOScc84555xzzggIgvn9667dXsf9BkWgVtBn97qvmemurq7uqb77rbd7Zv42ceJEmzRpkhBCiAD8bf/+/Xb48GEhhBCnmQMHDtjfDh48aEePHhVCCHGa+eqrr+xvmPbrr78WQghxmjl06JAkK4QQoZBkhRAiIJKsEEIERJIVQoiASLJCCBEQSVYIIQIiyQohREAkWSGECIgkK4QQAZFkhRAiIJKsEEIERJIVQoiASLJCCBEQSVYIIQIiyQohREAkWSGECIgkK4QQAZFkhRAiIJKsEEIERJIVQoiASLJCCBEQSVYIIQIiyQohREAkWSGECIgkK4QQAZFkhRAiIJKsEEIERJIVQoiASLJCCBEQSVYIIQKS4pI9evSoffvtt/b999/bTz/95Pnhhx/8NObFW0YIIc5WUlSy3333nZfrtm3bbMaMGdavXz/r27evjRo1yjZt2mT8USbesmcSnAx0QhC/l6jfqO/8tUgRyR47dszLc/369fbhhx9apkyZ7JZbbrErrrjCc91111mqVKmsbNmyNnToUN+oM7UjRtsCOljEiUJfYbRGv/nmm2/ilhF/ToJLNupckyZNsty5c9s555xjf/vb344LEj5y5MivdkTq/DXBRfN/rUxyTmQZtmPx4sX26quvWp06dWzJkiUntJ4Tqfv3cCp1/dHtiJY50eVOpuyJlj9d/No6o3nr1q2zL774wvedIUOGGMccJ+x4y4g/F0ElS+fizD1x4kQfvUYiLViwoO9w8+bN89Iieq1WrZoVLVrUd0CWowMiNfK1CJdpPFIf06NpsetiGumIaH4UcR6vM8dGpbHLUAfPY8tSP389evTwkXe2bNls5syZPqf8448/xi1PndQV1R+t6/ceXFE7o7pYV1Qfj7H7IXl5nse+pny0bPI2/xbUw7Kx2xTVxWPydkTE7gseo/0ctSH5ckyjbPL2Am2ILcuyTI9Xd/KywLSo7njrjtpKv6OOaD6PUbuiumNfR23kMXa9PGca6bH8+fPbnXfeaS1atLCvvvrK96fYdYg/J0ElSwf78ssvrVy5cl6u/+///T97+umnbeXKlX5e9EdHo9zu3bt9g6Lleb1lyxbbv3+/79AHDx605cuX29ixY23u3Lk+GqCDRh2ZZUlJTJ482YYNG2bz58+3nTt3JpWJbRvQ0ffu3WvLli2zCRMm+GUQP+ukrtiDkMd9+/ZZjRo17H/+53/8SYPyW7du9dBGInDKsi6WpX3UNWfOHBszZozNmjXLlz18+LAvc6IHF+VZN7nsBQsW2IgRI/w+YF+wXuqJrYu279ixw8M2Mo19uXTpUp//ZlSxefPmpBHDibSDMlE72CbaMXLkSBs9erStWLEi6b1IXhf1R/si9r1BOhs3bvT1UW+0DsrSru3bt/sTMPWznkWLFvn3kj4QW5ZH3kP6VPQe0jcoG60/agvQDurmfYhddwT7i33F/F27diX1x2jbo+m0kXnsx2nTpvn9unDhQt8W2hT1N9ZP3+7QoYPddtttdsMNN1jDhg1t9erVvh3UlbwN4s8F/SSYZDnLDxgwwHcuJJslSxbfEaMoIipHp4wiATpnRNWqVe3qq6+29957z4vw3Xff9XX97//+r2XNmtXXRT0sy/zXX3/drr/+ei9z1vf3v//dMmbM6C+ucXBGHZ9HOnfbtm0tb968dumllyZF2dTNgVCvXj0vhWgZovHSpUsnlWUd1P+Pf/zDLrnkEmvWrJk/wKLIhPLPPfec3Xzzzb5OliFVgpyJ4hEV5aJ9EA/mI9FevXpZkSJF7Nprr/XrjNb/3//+148AkEp0YLMvEFm+fPnsgQcesDZt2ljHjh0tc+bM9q9//csve+655/r90rx5cy8Nlvu1tkT7i3aUKFHCt4MTDXXBTTfdZDVr1vQnNeQT1cV7w+spU6bYM88849+baDnactddd/n3lKE0ZVnPmjVrrEmTJvbwww/bP//5z6R1sI/ZB0g0OjnQeRFwsWLF7D//+U9S3eeff75PTXXr1s2/J+wT6kZm9IV06dL5fkRqiveB+bQ36keVKlXy+5b3m5MB6+LCLOXvuOMOK1CggN8X9BG2nXXyftCGkiVL2vDhw72s2Q+cCCnHNYioHP2BfsP7UKZMGX+CYB2/9h6Is5dgkqXDMJTmIKLT08EaN27spUGHj7dMBPPhqaee8gcawihVqpSvh855wQUX+JQD0QB/RJ+FChXyHfi8886ze+65x1KnTu0FzXqvueYaH0mwndTLwbR27Vp74oknfEe/8sor/UHHUI7nLIMQX3zxRR8RccDQ9htvvDFJVDxedtlldtVVV/kDCJmxbdQ9ePBgL7ioHurmwh7yRpK0h2iGSDM6wOPBgUc7K1as6Ledgxhpc6CzbUiF/fP88897OVEeyRPRIXP21b333uvlxrK0n+UieSHLRo0a2Z49e47bDt5H9hn5Z9bDSYbtjtoRiZ/2Pfvssz5aph0sw4mtd+/eljZtWr8+ynGhE4FF+6527dpeYLSbiBjB/fvf//blL7roIp+aYX+xXk6IRLbUjTy7dOni32fK8r5TL+2J+htt/Pjjj/17yPYh2e7du/t2X3755V5+RKLRtvNI9Iwo6Rf0KU4QbM+GDRusfv36vn+wLx966CHffvYn+5X6IsnnyJHDxo8f7/fdoEGDfGqJPst84Dn18L6wT1etWuXXIcn+OQkqWQ4cDjw6Hp2WKIQD5Lc6E2WASJADjgOIOtKkSWMffPCBP7g42DhoECBRFNEBBxfzGe4RLRNNPvLII35ZDoqpU6f6dQPzyQU3bdrUD58Z0jENQUVSQLrTp0/35Yn4iMpz5szp5xENde7c2acCiOCYTx4PyeTJk8eX4cB74403/LCYg4h0QfHixb38OBFwALINx9sf7AMESLRG1EmKgIiS8uSDiSqR+IMPPuhzxbyZtIHtzp49u28D+4V9wLYiFNrwyiuveNkx//HHH/cnqV97X5iHMFk/0uJ9RFxMj7YJgXIyIVJkW4H9zcmQ9bC+WrVqeWkhbOogoidSpB5SIZzIECr7J1euXF6IRHm0j3r79+/v92UUHSNd6ma9n3zyiY8aSStwwkufPr2fd//991ufPn2SRNqzZ09/4kGOb7/99v+RLG0jukTwjz32mN8GtoX1EjAgcepFlPTP2bNn+5ME2xO9t2wr+4n3g744btw4fxwQjbN9XPxitEFbOTmShojd3+LPRTDJcuDQeRABnZIogwODjny8gzmCZYFOzMFLhMpBR4dGhNGHF4iUEQrCYx1EvhyssX9ElXR6DhoORGTKQcN6OAkk/+MiFukJ5M4BgdDZSawrin5ZF+1BdLSHemgPbWaIilwvvPBCe/PNN33eLfaPoSRSpAzpDSIklku+DyLYV9Qd748okYOeaA+x8D7S/ljJErUhGeqhrUC7idIQNGmESPYn0w62Pco30g5SMNRFWz7//HMf7UWjAobm/FEPy9EWnvN+cLIqXLiwj/SITmkT7YnKRPuZspGQ6VO8t8gP6dMvAAm3a9fOjxw48SI1lmE7GOafimRZjj7JPMryR7vYXtIyd999t18n6REic+aRDiFi5z3n/WjVqpU/aUUXTH/reBBnN0Ely5AukiwH4MlIlmWJGpBlND1anj+iSWRIOS5KcVAQHXExglxl165d/XwO3urVq/vIgjYAfxyQHAxErEQXRHxEHUgWQbRv394fEBy8RFUMJVkXES3riNrDwcSBTrSGVBgOclDGtodHIikiciL7ypUrJw3zk++DCOZF7SRHjIyQKLJGHsgA0ZAT5gQSSZYhKttMqgWpUk/UVqJPThbIgDw5d3T8lmSj/UWZ2HbwgZKXX37ZD33ZX5999pkXDick3g/ax4ggStdQT1QnbYnaRLTOyYcTKpIjFcS2xJYFtoO6OaEiO5ah/VE9wOiGkQ7bzjZyQmG0wj7kxHSqkmU7WZYTKPJnnWzbwIED/f7kBMs930Tg1Mm2vPbaa16yt99+u7+7gAAkdl+IPy9BJctjFPkxVKKjIyM6ZfLysbAsIFkOOgTNQZ18Wf4Y7iM11sGBQWQXwXLkz5gHRBcMt/kjf8oQlItrXASiPAdHdJEKmIYcTkSyHGwcsKwjyilSH4KPbVPsRTYurCD440mW6bw3DNMZ4nMxhzwjJx32S1QP9RI1xkqWC4OU44TBxZxon9JWpBvluE9EssiAtAViJyKL2sH+jm0HAqIdtJl1vvDCC3bxxRd7ETIiiB1FRPAaKXKyJBpGRAiMyDO5hGg7bWSY/eijj/p1MoohxcP7E1uOkyaS5D2gLLI8EcmS7kGQ8ST7zjvv+PeTi12kA+hLLMP62DbSGeTCWeeTTz7p00jMl2T/2gSTLB2PP6JHIg6iKjoh0yHeMhGREJAsyzEEIypNfoDyR2en/ugiD8NkIJIDLkKQIyWqIcriYGCjifwiAROZMFRFSERfCJQLWxxQJxrJIlmGw0iWC0scaOR2j9cerlDTdvJ58eTGNNbL+okEWScnKu61ZL+89NJLXh6IkvbHkywXlziJkKuM9ilt/T2SZZ8jWOqPrpDTDvK8bGuVKlV8pEg0TTvYr/Qn1sk8JMtFQCT6a5Il3YG4SQGQCoh3UZC200YkiwBpC/uYnCf7P7ZOZFm+fHm//hORbFQ30Sd5aiTLfdvxJMuFro8++ijpghrLSrLieASVLAc8t+MQvRHxIFwilOQHWnIiIUSSRTJEssmX4+/TTz/1UkO0HJzkOIEhZXJYN7LkoIyu/nOBhJwlaQTaS+4VoXCQIY3fI1mGj9FJhaiM/CxDa0jeFvJ0sfexxkJ9TI8+Jce+I8VAVM06aAt/5C2JYjl440mW/Y7oTlay0TJEipRju8mXEpVGQ2XKsf+IVmMli+S4cs5+5HYsLmIxPfl7GK2TNvCecHJjOfZPrDiBtlOe7aH90ftHmoftjsqwLUxDxKyfW794jWRJ13DRkf1G7j26hSva59wVwAkQUUqy4nQQTLJAJ+KA5vYlDgiiFATHsJ+OS+eMDhxec1DxGB3cJyJZhvxRhMWQmjwwf9EnsSD6o37+uDhDhMMyHGisiz+WYYdwaw9DfqKdWMkytCfKYTnkF91DyfJsKwcaomeYzgHFc6LAqO5I4tEf7WH7Y7cJqI90Bvlk5EV9DL2RdVQPwuCOA0RKFBlKsjyyjzlpsN1E+8glaj/7m9vR2FfkoZEs+wsJEykSTbMvuOsDsbAfY99z+gL7DglGFzCJkmkjZaM2U5ZyPBL98x6x3bfeequ/kBTdPsd8tgXhcWIilUSOleiXuvjQAOvh/SUS5/Yp9lm0reT+o5w599+eDsmyDvLn7AcufHFXBeVPJHUmzn6CSpYOBHzOH1FwAJH/5Aov8yNhcDAxbONTUZEQ6Ni/JVkOcqLC6OIaBzlS5CCL6gVyZ1zQIFrlj4gwyo2SY6TD88cy5D85yIgeiXZic7Ksizwqy5HC4OIKywAHE49EfdxkTxmGv9zRgGhj24MQOPCi27FitwnYftqEZLkFiRMCcmPf8EcdiJRbmNg/US40lGS5uBWdyLiPFclF7eA9Y13sryiSZX+xLMshFZZDPnxSDbHwx3zExSfHGGEQ+bKNtIlcOuKOZE4/QeZEhOxLIk5kSFRNDp0THlF/dAKLvd+WlBB1sc9ZN9vOnSG0KUOGDL5NbAd/vCeczBAscuaWrFOVLOtkf7311ltesuwjLqBxwuGP+cn3u/hzEVSyQCdk6EdUEF1UorORSyOXx32UHOiIiYg3us+S5Yg0KM8QK55kgU7K/avk2SjLQcVwj6v83DzOJ6Kol2kc0PwRzUTpAgSFzIk6ud+WslwpZx4HBLcCIQ3Ww34iHYBQkBsnDOpnGkNoREBZomNkQR2Iju0kkqE9fLCA26Y4gLk4wzYdT7REd5EQaAuCb9CggZcR9/1ywEc34Uf55kj0rIOhMncwxJMsETkSQgoI63iSpTwnHkQatQOBsI3ke9lf7EPExEkuagfvH3dOsE+RDvsL4XIhlOWJVtl/5MCJMonMSX9Eox72GzlsPpLNMoiU7Y72GX2KW+CIlOlXnIwoy8e22XYkyfQoiqU9QMoHAZNiAvYjr6mb9lAf09k3pAuiDyMgWSJztp/+QX9JLllOKoib94T1kt+l37BvmRfl1jlhMZ99g3C524P9Ha8fiLOf4JIFOhrRBZ0q9mp/chj6cRtMdECQmyO/iYCPJ9lIBBygRKBRXRxgXAzj4OY1UufiGfUSCRGJICnmIU0OKvKByLh169Ze2kSyUbqA9bAd5GG5cMUy0bIcVETrfCCB6JpcK5+kig6q2PZErzmgqevXJMuBSySNQKLlaCMS4ALa+++/709SnIRiJUski6A4mR3vwhfiQn6U47a1eJIF2scIgCFudCKL2sH2cFGPvDsnEiJQ2kHUGK2Luwx43xFwtGxEdBsbZXhf2G+kciLRxsL+Yx1sG/VGdXMyjVc30T+3eZHSifYny7Cd1MGFTvpW7DLsD0ZFCJC+gWSj9wjJIkROaIxQ2OZ4kSyCZ90IH8myLGW4TlC3bl2f4ojWxz5k/7H/OcnE2//i7CdFJEsnRFB0RIZQDG0ZxtKZiWq4UZ1hJh82oEx0EBFBcWEL6ZFOYFq8+iNREd1wgYWDmroRCZESoiJdwMZSnk5P1EnnJo/L0LlChQr+wGHIyP5gCM0Vb+SOlKM2cSBwcBPJsAyRKflBok7aznzaw8HMiYX2kJKgLBfNOPARFvsBGSXfllioi2EldXOAs6+IZjlB8PFPpMRtVZwIOIHQTtbNAU1KhvVwISdKS0T7D2FwUiKny0Ur0iBMj+Ynh3awbQzJGTJzixMSYRjOdpB/ZV9G+4v9HK2P9jCfdhKFEzXyvnBvLW0k2qXd0XpYlveKG/t5b1gX7yWRMxEf701UN+V5H5EmJzXeC95L9jefwIq+HwJitwWh8R5yx0PUV3ikjaQu2KZOnTr5bYr6HWkKolr6Iv2J/c3JN6qfbaBO3u+WLVv60RLbHbt+0gbc3cDIh3YSPXNxNGpn1Ebx5yJFJBuB3Ij0eE4H5cAFnjMNEXMQxC7DAQGx0+LBctQdHahR3dEBT92xHZmDP7Ys+4D10EamR2WTr5vplGE6y0AkiVioP2oP8ykXrSeqI7Y9x4PlI2lHdbDuqP2Uibd/mBZvesRvzU8O64vaEbu/mMZ2HK8+5sUuG20D+z3attj9wOvovYp9H1mWedE2R3WzH2PfD8pGJ5vj7eOoTbHr4DFad+w6YjneNsZyvPmsi3pj1xntw3htFH8eeL9TTLIR0cEVHSDRwZO8s0Ud83idPh7HqzteWeqPLRtbLlp3vAMgmhe7jnjlIHl7ovUcr3w8KJu8ndHyPE9eH8/jTY83/3hl4kG539OOWJIvy3PKH68s85KX/z11H69sRPJ1xC4TzUteRzQ93rwTmQ/Mi20rr+OVE38e/hDJCiHEXwUvWYYu8WYKIYQ4NUhfSbJCCBEISVYIIQIiyQohREAkWSGECIgkK4QQAZFkhRAiIJKsEEIERJIVQoiASLJCCBEQSVYIIQIiyQohREAkWSGECIgkK4QQAZFkhRAiIJKsEEIERJIVQoiASLJCCBEQSVYIIQIiyQohREAkWSGECIgkK4QQAZFkhRAiIJKsEEIERJIVQoiASLJCCBEQSVYIIQIiyQohREAkWSGECIgkK4QQAZFkhRAiIJKsEEIERJIVQoiASLJCCBEQSVYIIQIiyQohREAkWSGECIgkK4QQAZFkhRAiIJKsEEIERJIVQoiASLJCCBEQSVYIIQIiyQohREAkWSGECIgkK4QQAZFkhRAiIJKsEEIERJIVQoiASLJCCBEQSVYIIQIiyQohREAkWSGECIgkK4QQAZFkhRAiIJKsEEIERJIVQoiASLJCCBEQSVYIIQIiyYpgHD161HMMjh2zb775xr6Fb7/1fPcrRGWOT2JdDur95ptjfh3HjiWsE+K1SYiURpIVpxUvVS/Un0GEX3992Hbu2GxLli60aTOm2fgJ42zU6JE2YhSMspGjx9joUWMdPI6xMWPH2viJE2zS1Ck2GaZNtanTp9n0GdNt1uxZNmfOXFuwcKGrb4mtWb3S1b3FDn910L5JWneCfGmLhCv+SCRZcVpAZglR5THXqQ7ZuvXrbMzEida8Q2erXr+BFa9c0/KUfc6yPF7R0j9WztIUKWupC5exVIVKW2pHmsLudaEnHWUtVUGel3XTylhaVy7do08mPBZxj+55ekeGx8pbxqIVLVOxipa1xNOWt8zzVqZKLatR70P7qFkrGzxsmK1Zs9oOHjzgI2kvXQlX/AFIsuKUQFzI9ciRI7Zj504bMXa81Xy7oeUvX9mL866cxe2GTIXt6nT57Kq0ef3j1ekhv12TIX/S86vd86vcoyede+3JZ1emyWtXpXGPqR+x/6TO7ciTxBVu2hWp3PSH3XPHVW7af119N2cubPfmKmY5ndBffONt69a3r61ctcoOHTzk28sJId62CBECSVacFFHkevjwV7Zi5Spr0aGrFX2muj2Q73G7KXMh+6+T5rUZCrjHAnadk+x/Mxex6zMVchT8BddlLJD0/L+ZCti1juv8a7dMxsJ2bcZCTsYFnXwL2DXutZ/m6ryW+p1Qk3Cvr0mXKHEn8yvTPGJXpspt16Z9xG7LUsjylq5kDV2EO2/REjvkIm3arqhWpASSrPjd+Fzn0a9t/cYN1qZLNytc8QW7LXuRBLE6aV7nJJsk1MzgpOtkGQmVx1hYzj9G+NeUK+ii3IJ2Zdr89kDB8la0Sj3L/EQVL1lEilSTcy0RshPtNU68vL4qUbZwo1t3oQqVrX33nrZl6xYn2mM+so23jUKcLiRZccIQ+XHl/+DBgzZ60mSr9Goduzt30YRo1ckxQapOpi5yJBqNpsXKNJarnQSvTOOG+S7a9ILMEBOZusg1Ib2Q1zKWqGSvftjUPmzezgo9Xd2LlHmxcr2S9IET6dVpkWtCVBvL1W4dPrp15R7IU8xef7eRzZk330finDTiba8QpwNJVpwQUXpg245t1rZHb38R64ZMCSmB613E6QULkVATH2PlGgkU6V3hZEeUemO2YnaT4xonVSR4dXqkmJCLvSlLYctZprLVbdLS6jT5wtIUqWBXOyknRLEJEat/7uq8KVtRuyFrcbvk4bx28QM5fP1e0k66lEGyXrju8arULqrNmN9KPFvdBo8caYcO7Pe3hMXbbiFOFUlW/CZEsEho3YaN9m7T5vZwwZJObHmdOPPFRKoJj7FCjZ7HTkuIKvNaqkcrWOW3PraqH3xuL7z/mVWs08juLVDWy/Gyh3PbDZmLWJX6H1mHvsOtct0P7aECpb3AvYiT5JlwQez2nEWt0hvvWaMOfeyZ+k0tTckqdlWmx+yCB3LZpQ/k9BfEkCwRc8SVTrTXpstj+cpWsh59+tr+vXskWhEESVb8Kl6wLoJds36d1fvoM7s3t4s6XTR5XSRPFxEmSDRBsF6kPhp9JClyjUCwV7ll789f2j5xQly7ebv1GTvJMdHmrlxrLzds6aRdxG7NUcxqffi5TZu/yNr1HmAZiz9llz2U265IlcdHuFeDE63PtzrJpi5c1j5v39n27N9jX3//g01dscEadBlkJWo1sHuLPG2XpspnF92Xzf6TKpddiWT9HQukD3Lb1alzWo7i5axbrz725f69Pk8bbz8IcbJIsuK4HHWQr9ywaYu91aSZ3Z37MR8RJsi1oBNnfrvCieriB7LZ+Xdn9lx0b1YnxBxepn547iNXok/kljCteJXaTqBLbd+Xh6zHsPHWZ+R427Z3r/UfP83K1nrHmrTrZtPmLbRGrTvYAwVK2QWuzvPvzWYX3pfdyTK7Xf5QLi9Jhv1EvhmKVrTmnbvbvCVLbNPmzRb9bXX1D5210Oq26mpZKrxs/0mb3y59yEW2XrCJbUqV265x8s1TsoL1GzTIHRAH/Ukl3v4Q4mSQZMVxSIhgd+7aZU3bdLQH85VMGGITkbqo9fLUee3yNAXt/sLP2RM1G9vLjdvby03aW7m6H1u6J6rZFekKOtnmTBJsJFmWL1b5VZsyZ6HtO/CV9Rw+3vqOGm+7D3xpUxYttxY9Blj3gcPt9QZNLc+TVe3uPE9YqiIVrXi1ulaiej0rUqWO3V+wnF3+MJFtLhed5rGMJZ62zgOH2PxVa23EpOm2avUqs59+SFSt2Y+OyctWW5XGre32vGXtsgcTUgi0hxzvVQ/ntOvcyeLxp6vauHHjk04u8feLEL8PSVbEhe8AOHjgoA0YPtpyl3nOXzDiAhNX+7lnNU3x56z2Jx1s5LTFtmHnITv0rdlX35lt//Jrm750nTXq2M9ylq/u0whEnF5org5/dT9fKWvWoYet37zN+o+dakMmTrWVGzdawzad7YU671vn3gOtfc+BVvP9plbulXetZY+BNnjSDGvXf7gNmzbHPu4+2FIXf8aJNpdd7kSbrmgF69y3v23fu99Guci1TY++CaJ1fxt37LIeQ0ba1Lnzbf3u/fZeh352V/4nXTRMRJvbt4doFm7JmM+qv/6mrVyxzEtW99GK04EkK/4PyOXo0a9tzvwFVr56bbveidJfxWfony6/5a5Qww3zJ9qXXx3xIov3N2PhYivy3Ms+2rzCRYpIFoiGIcOjT9qLdd+36m83cjSwp2q9aTnKVLbCz9W2MjUbWJHK9SxTqapWq1FLW71pq01esNS+6DXQFq1cbUs3brZyr3/gIuVcPlpOVbC0tezU1b48uN+27j9orfuPskatOtuCpUtt2oIlVqV+Y2vnlv3xxx9t2abt9vx7n9sNWR91bcuR1B74z8M5LFW+EvZ5mw62e9fOhGhWohWniCQr/g/crrXdSabxF+3svjwlnIASbpsiEk1V+En7rFNvO3j460Sd8vdT4iN/P9qSlSutcu137Nashe3WHCXstlyP++URrpeZe/R5W1dvwgWzfJa+WEVr1X2ALVu72SbMWWI9R062AWOn2fK1m+yrr4/ZhLmLraWLbhcuX2XrtmyzZ+p+aJe6Yf8l92e3WzIXtDcbfmI7XJv5W7lll73bqodVf6exNWjR1p6v19A6DxhuP/zwgx357nvrPmaGpS9VxS2fI+EkEOEi4/+6E0HJp6vZxEmTkvZF8v0jxO9BkhW/gCiWG/THTZlqhZ1sEnKpCVfzb8paxNIUe8qqvNXYJs+Zb998+40dOHDQJs2YaZ+66O/dTz+3j1u1tzIu+r0jdwkr+WJ9a9dvtL3+URsvW6QWRY1XOIhCmZah2NPWqf9w27XvS5s6b4FVrf+ePVKmkv901nufNLdFy1bY+DmLrG2fobbAPZ+5eKmVqPq6XfpAdrvkgWx2ZaqcLuJ+w1auWecl+52LWJdu3GH1WnW3NCWesTRFy1uHfoPsp58STgYL122y0q9/aJenym//caL+j1s+SbSuTfdkK2LvN/7Utm7elCBZRbPiFJBkxS9AKlu3b7OGLVrZfXmLOfE4Kfqr8Xmt0LOvWudBE6xFz+H2SoNm1qRVO6v9QWPL+Fg5f7fB1XxKK31+PxSvVKehzVq00o5+852NmbXQ8j5Ty1+kIhcaCQ253eaEVv2thm5ov9yGTZxqBSpWs4vvz2r/viODnXdXRrsz+6NW083/vEtv+6RjT2vdvY89/8a7dnOWwnbZg9k9/3F15ixVyQYMHem/cYu/H5xQ1+7YYx+062N5Ktaw1z5sYiv9BbGfbMve/Va7WWe7IbsTvxP1fx52oo1wEfZ1LpotXuEFGz1mrH195IjPT8fbV0KcCJKsSIIoFknNWbDQnnihpl3tLww5nBz5RNbz9ZrYpu377Oi3P9jIybPtiRfrGh9/vTdfWav8dlOr+kFzu79wBRfFlrSGX3SxPfsPeOHNW7banqrdwN/yhRS9YJ3QbnWCLf9yfav5bhN79tX6lu3xij4vSnR7mZt/GRe2nECvTZvHbslcwG7NXNBuyJDPi587BJh3uZMidd7oplet/Y6t37DRr/OnH39wov3RNu3cY0069bVsZV+wwk9VsW79B9jsxcvslSat7fpsRX0kTB20J6E+RJvd7s9ZxD76tLnt2LJFkhWnhCQrkkCyXx444EQ00DIVr+hzlORjL3dSuzHzo/bqh81t++59XmK79u231xp+brflKGG1P2pl2/d+aTv2f2l1m7aze/OXtervOCFv2+HLLl+70V5+v6ndkKmQjxwTRJbDMhd/ylp26WOftOtmDxcsaxffl9ULE+ld4h4vceW4rxXpXnp/NkdWF+W6x8Q6KJcgWTffyfK+3MWsSfPWtm/vHr/e777/3sZOm2vlX33f8lWqZcVffMsKPl/b8j9dwx4s+KSrP5erLyEajury9TluSJ/Xnn7pNZs9Z66P7nWngThZJFmRREKqYIe90eBjNxwvkDCsd5Est0rdkMlJtmFz2/NlQnS6esMGe6b2e3aDky8CXb9lm23ZudPe+PgLu7/Ak/Zqg89t687dvuyyNRvspXc+sesyFPQXqogaqftmF5k+kKeo3ZwxnxcbXOIkeuG9WZxYc9mlD+exC91rhMsHEGLFmhxEiWjTFnrCPm/X0TZv3Wo/fP+DfXXkmG3b/aUd/uZbO+Ze95swyzKXfdHOvSebXXBfDrv4gZz+AxSsN5It7bjc1ZWlcEnr02+gfX3ksCQrThpJViSBZJevckP7mm/aVT5nmnA3AOLhU1KV6zaw5WvW2YJly+29z1tb3gov2k1Zi9n9+cvYc3Xes2pvfWj3F3zCbs76mL3Z5AvbsXuvl+y8pSutbI23fB3R8Bx8hOpewyVuiH6Bk+slTnrpiz5lVd/51Kq+97mlLvaMk2wOJ1snQlfm0ocTJIgQL7w3s51zW1r7xy2p7Z+Oc25P54SZ2W7JlN+eqPyytercwyZNn2kLl6/wF8yGj59qr7voO9sTL1jBZ2pZjQYt7EV3MsjyZDXj6xR92xCt47IHstod2QpZg4+b2Y6tm/2+ibfPhPgtJFnhIVLjKwxHjh9vhSpWScqbRo/INlvJZ6xa/YZOph/ZB626W9+RU+2tph3tgYIV7F93ZbG/357RzruHqDC7ZXi0nLXp1se279ptQ8ZPsywln/cSSz40B1IAFzg5Iudn6zT0H7nlj3sBhk+fZ6VrvmvXZixs57kyFzn5EdnyFYkPFy5rj77wupV6+W0r8VI9y1nuRbuZPOv9Tsp3Z7IL7kxv16bOaXdmK2w3ZSxgl7rpd+Yqbo1adbWd+/YnrWPi8jX2hFvvleny2sVO9Jc/gGSz2c2ZCtiLdd6xxUuWSLLipJFkhQfJ7tm7xzr17GeZi5b3V+yRayTahLxndstRurL1GTnZvv424WOre/YftCETZtjbzTrZ641bOUk2tnvzlvZDfr7r4JlX61nparX91yFefN/PUSz4aPSezG4duf1XGrbpMSjp/tv1m7bauk1b7Eenwc279luDdr38p7wuuC+7nXd3ZrsmfX578uU3bezsBbbj0BHb/833NmHhKiv4XG0nU+6fzeojZO5UuJDvPrg7q88J12/S3PYkCjb6W7Njj738SWv7b6aCrj2ZfLuQ7PXp8lj5KjVt+ozZiXnZ+PtOiF9DkhUeL9k9e619j/6WsWgFu9zJFRFGoiUfimyzP17Jug8YbkePfZuoqF/+bdm51+o1bW+3ZCtmF9yTxUuUC1ZIGi53Q34fvTrhIuK7cj9utRo0s7mLV/iocu+XB6xV935WoEI1F1FXtbbd+9r+AwcMpY+dvdgqvNHQrsv8mP3jtoyuXbks2+NPW9U679mgEWNs3Ix5Vqzqmz6fi2SRJSkG0g1E13fnKmYffPaFrV231v/A4t59e23GgsX20nuf2C0uir7YyZgLbCx36YPZ7AoXNecqUtoGDR6eKFnlZcXvR5IVHiSyY8dOa/JFO7s/b3Ev1Z8FG93ilJBDzVSsgrV1Mt6XeItW8r/l6zdZ2ZpvOynncXJLyLn66BB5uWj4Qiffa9Lks2LPv2Y9h42zI0eP+eXGTZttT7/6tl2fIZ/Pr557Rzq7OXMBe6leA5uzaLH/MMHOLw9Z234j7bk3m1jpl9+xzKWr2m05S9gbDT9zEfV0K/FifSdVvkfWrddLlgtnCYK/Os0jdn+eYlaofGUr/9JrVqryK5bhsQrGx3PPvztjwjKJbWXZS+/LamnylbIe/Yb4W9skWXEySLLCg2S3bN1q9Rs1sduy5veSQaoRSZIEJ6L78hS3yq+/Yx179rfZ8xfaxs1bbP3GzTZj3gJr0qaTZSlZyUe+sdK60EWvF9+fw9I8WtHfR7tm41Yv103bd9gHLdvbwwVL2wVOdpAgZBftuuH75S4qzVa8on3WtrPt2JVwx8JhJ+Y9TrgDx023gpVethpvNbSeQ8dY4edes4tc1BqlC34mu13kHs939f3z1jT2Pzc9bP9zcyr71+3pXbuy+DxvbHlODtSRukBp69F/mCQrThpJVniQ7MbNm+21dxvYjRlye9HECjZWtESFF7mh/sX3Zrbr0+e1dIXLWJ4yz1mu0s9ZqkJl/EdxmY/YAFld4OTGz8WUr/WOG9bPt+++/8F/XLXnkJFW5JkaXsj/vjODXeyEF60nEh518emvmzK65Wu8YWMmTbMfvv/ey3beirU+RXBbzmKW3kXYN2Yp4r+gm++45UKbr8Otn9wsF80uftDNc1yU+BrxJjy6eQ9wdwMX1ljevXZtSeUk202SFaeAJCs8XrKbNlvNt96z69ImpAV+lmokvYiEeUiM26jOvTO9H97/6/YMTpSZ7AInOYbolz6QIGOiwqylnrPWPQfatj37fO51zuLl/k4FPlZ7gZPrhXdn9vUeDyR5notwL7ovs6Uq+IQ1atHOtmzbbke++dbGzVtqpWp9YJc8/Iidc0cmF5kmyJT2sW4+5IB4L0yMZvkQwmWu7KUP5XHlctgFru7zKeOibOZ7ESdK9sF8paxLn8H+O2YlWXEySLLCg2Q3uOF+9brv2jWpE6LP5JJNuHiV00kPGWX1w2wkSlSY8AmtBC4GJ6sL781mN2ctYtXf/djmL1vF1wa4v59s4vQ59vjzr/l6iFARaCTF5HKlHRe59XAP7UMFy9ibn7ayOp+0sTxlq1mN+g1sxaqE743duu+AtR042nJVeNkuc/K88B6Wy2qXP5zDcpd9zpp362PtBo6yki+/Y5Vqf2DDJs60QY6n32hgxSvXsja9B1nbwWOtULV69p/Uj7hty+wle3/u4tauS2874g4USVacDJKs8CRIdpO9VOdtuybVz5KNcrC3ZX/UilV+3Sq8+p6lK/aUv0/1ukwF7Jbsj/lfmPVDcIbaTrBIl4tMjz5b03oNH2sHDx/x39g1be48/yXgzdt3t6zFnnGCTohQkWs0vI9Em3DBzInSRcqXuQg0X/lqNmDUBNv75UEbOGay5SrzguV/srL1HTTUNrkI/KDryN/+8IPNX73BajT6wu7IU8p/Wuz6jHmtXpPPbN/+vbbPtaN5r2H2Qv2PrG2vAdam71B77s1G9kn7brb/4EH76tsf7KPOA+z6LMX8bWLcM3tvzqLWpmN3O3zggCQrTgpJVniSJPuGk+zDTnyRZEkPuMe7chezirXe8lFpscqv2euNW9ikeYtt6bpNTlbDLOsTlZ1oubiV2f8SQoWa9W3xyrU+yty0dZt90LyNZS5a1l7/4CPr2n+oFXq6pot+c3rJJkWtDj9Md9OIIrno9d/0+ezZ2u/b3CUrbQ/fqzBwhGUt9az/GZuSVV+1QaPGW+e+g63qG+9bz4HD7KsjR+1LR6fBoy3948+6SLqQNWrZ1g5/dci15Cdbs2WHfdiutz1e4x0r88p79m6LjrZkNV+R+JN9dewba9l7mN2So5RdcJdrw71Z7e4cRa2lk/ChA19KsuKkkGSFB8mud5Kt9sZbdlWiZJGrjyzd4z2PlLBCz75iuZ58yWo1bGGLV623KXMX2MRZc23zjl3Wrs8we7hwOf/JrZsyF7I3GjWzpSvX2LAJU61E5Vft6tR57Pp0j9j7zdrYsPHTrNgLtV3dOf2Q3os1EZ+GcHVwS9WdOR+zd5q2to3bdtomt44PWrR3si9u/747k//6xfKv1LdJs+db9yHj7MECT/ovCa//cXNbtHKljZ+zwIpWrWu3ZHvUGrVo44b7SDbhj69BRMYHvzpiXx/9xr7/4Xv76acf7eCRr615j6F2c/ZSdp6TLB9iuMtF6i3bdrVD7hiRZMXJIMkKj5fsho1WtXY9+88DGe2cO9LZP29La+fcmd7JMKvdmKmA3Ze3lOWtUN26Dx1nazdtsU59BtoXXXrZ2o1bbdn6zVa6Rn1/0QlB3+UEyYcabs3ymE8LXOCG30iwSZsuNnrqHCtR5Q0XveZIyOsmyhXOc9Erks3CjyP2H+7TA3OXLrdnar9rV6bOZf9zS2r7n1vT+u+mrfDK2zZz4TIbPHGmpSn6tL8d6ypXJt2jZS1bqWfs+kyF7UYn/EYtWtvOXTts285drq2bbfPW7a7jH/Zi5d5bfjHhxx9/8J82a959iN2craSdd2dW/yu5dzjJft6msx3cv9/fYRBv3wnxa0iywvONk+w6J9nKr9a1m9LntsyPV7LHKr/mfwmWX3RFfAzj0xYp54bsI233vi9t8JhJ9mHzTjZj3hJb4KLWki/WsYv81fyEC2J82otokJ/x5uo+dxJ82r67jZ+10JWt61MRpBfI4ZI/PdffYZDdij5X0ybMmOelN2T8ZMtbvopfNxK+00WyDxd60m7PVcLK13zLZi1absOmzLZ0JZ5xJ4SMdpFbJ7eLXXB3Fjv/nqx2U5ZC9kGzL2zK7LnWsHUXq/RGA6vdqKVNdPUfO/aN/92v77//3j8ecOv7vNtguynb4y5a5mIbXxLzmDVzyx3Y/6UkK04KSVZ4kOzaDRvsuVp1LHX+Etaqa1/bsWufTZi1wPJXfNFLjo/BXvlwLqtSp4EtWbXW5jrBTZ4539Zt3mqtew20BwuWTbjT4BeQZ83h0wJ35HjMPmnf1QaNm2IFnqruo1jSC0S/CPK/6fPbi/Ub24o1G2znnn3WrGMPe7BAKfuHi6j/eXtau80t/3H7HjZx5kKr+Oq79mSNN51klyVKtpKrI4NbTxbXVid5VyeSRLINW7SxDVu32KLVG23KvGU2b+la27n3SyfXH3wky+OPPzjJfpUg2RuzlfApCe5ouD3bo/bZF53sy337nJQlWfH7kWSFJ4pkn3eR7LVpsluq/KXs1fc+teETp9trjT73P3j477sy+qvuN2QsZM84yfUYNMqGT5hqjVt39j/LjdSidEFykB8ph8ervGLFKr9iV6fN5+SZ3v52cxr731vS2h05i9kHzds7se/13037WoNP7br0ef0HCa5z6+aLw+9w0Wub3kNs5fqtVq3eR1a2Rj2bsTBBsumLP23n3JHw6a0o9eAlm7mwNWjW2uYtXuYi8NHWuGUXa9Sio1tXW2vfq787sWz2giVdQCT7GZLNXtz+fU9Gt3wmF8m66LtlB9u3d68kK04KSVZ4ktIFr9W1y+7LYOe6yDJ1oXLWonNf+9zBbVtXpHnE/4TMVWn4ku08LvIs4O+DvTpdXruCX1BwUS5fW5hcsKQPLnHRJc/Pc/XekrWw/8Lv95p3sOpO5C++3cT6jRxv+w4ctKlzF1rxF15zQ/0sdq6TesGnX7JPXfRa7pW37f4CZaxlj/62dO0mq1KvsYtk69sMF8kOnewiWSfZfzvJIvMkyTrh35SlsL3f7AubPm+Rte45xOp/2s7Rxt76rI216dnf1qzb4D899tOPP/qfOP+s6yC7wUWy5/hIFsk+KsmKU0KSFR4ufCHZqk6yVzyQ2QmGuwSKWO1GLWz2ouU2cdZ8GzZxmo2cNMNGOUZMmm7DJkyzoS6S5Xmf0ROsqpPlrdkeS5RqrGQTItlz3XD+7lzF7fNOPe3ot7/8Fq9vv/vOBowabwWfesluz1HMbnQRKD99U6VeAxe5brKmnfpY6kcrWMuu/WzZGncyQLIv17OZi5c7yc5xkq3kf3zR54MdFzqpn+8i2RtJF7Rsbes3b/IfiBg/Y46Nc4ydMddmu2X3HfjSR7EJOdkj1qzboMR0QUa3fGa7Pcuj1rRlR/ty335JVpwUkqzw+PtknWRfrF3Prnooi4sCyW3mcFHl6zZ/6WrbsHm7jRg/zfoMGWO9B49KYMjoBIaNsVYuwiz9Ul27PmMB/wGCWNH6C2DudeYST1nnvkNty/ZdNnrSNKvfpIV98Hlb69JviNVt3Nzuf6SkpSn8pLXs1tda9RxomUs9Z8++8b6XY8M2Xe3hIki2f4Jk30Syb3nJDpk8y9I6yf7LSZb1INgEyboTRdaCbh1f2KwFi6xNjyH25kdtrU7jVv7ncT5p291Wrt3go9iEdMFh+7zbALsxa3E7x0XR57tI9vYspAs62n5JVpwkkqzwRJKtXru+Xf2gk5QTFL99laFoRevQZ5h90a2/5S1X1Uq6oXyNtz/yvzD78rsfOz6xqvUaWa6yL9iVqXLZhS4CRLARXOlHtPzU9wgX+X777ff+u2NLPFfTznPD+3/fkc5/jSJphP+9JY3lfrKKzVmy3OauWGuPVqltz9dtYAuWr7JGSLZw+aRI9gUkWzNBsoMnzbI0xZ92kk1MFySK9vx7s9hNWRIkO3XeAmvaub//yZl6n3Ww3sPH29oNW9y2H/XpAiJZPpnWrNtAuyFrCfvXXZntfHdyuC2rk+wXimTFySPJCo+X7MZNVuONt+yaSLJumH9HzuJW/5PW1t1Fri+93djf5zpz4RJbuHKVzV++0hatWm1jps2xiq++nSDZxCgW+MTWFU6gT1R73abOmW8HD31lu/fstUGjJ1oeJ2XK8t0CmR9/2spUr29pH6tkeSu8ZJNmL7TJ85dawedr2fNvNrCFK5xk23azVEmR7AZ7od5HPk+LZPkOgjTFKvp7ey9O/M6BSLI3Zi5o73/eyuYuWWY9h461jzv0so4DRtjSNevtBydW/hJu4XKR7Fcuku06yK7P+rj/OR3ywreRk23V2Un2S0lWnBSSrPBEkq2OZB9ykvSRbBbjy7vLVn/Thrso9IPmHS132SqWt2w1K1ixuuMlK/zUS/ZI2eftjhyPerlFqQL/PbAPZrPiz71ss+cvtrXrN1njFm2sTddeNnDEeCvyzCuuHN+JUMTea9baxk+f44T6kRWs9IpNmDXfJnnJvup/vHGhi2Q/bNfNHnq0grVwEfXSmHTB9EXLbODEGZbWRdzRDyn6djgucJHoTZkK+k988d0FR1zUiugPHzlq3333XWIu9ofESDYxXeAke2OWEnbOnZntPCfZW1wk+3HLDrZ/r27hEieHJCs8ySWLrLyo3GOm4k9Z32FjbeO2HbZs9Tqbt3S5zV+y0uYvXWELHFNclPr2Z23t3kdK2gV3J3xi69p0j9iD+Upa8WdrWMPP29izr9a3Bx8p5m+nGjV5lpV44XUv2TtzFbVP23bykeaL731qBZ18J7tIdurCFVbo+desypsf2tKVa61xhx72sBNpqx4DbcW6zV6ypV+uZ9NdO4ZMnWPpij5l/06UbELbEz6UgGQ/atnWjnx10Eet3/3wvU2fu9BefqeR1Xj7A5sya7Yd9b/M8JMd+uqINY8ke4eTLJ9Sy+Ik20KSFSePJCs8sZIlJ+tFlXgB6Zq0j1ihp6rbu83aWdOOPe2TDt3tk/bd7dN23a2Ze924TVf/dYGUI4Jl2WvS5LJUBUpaukeftBsy5LML785gN2XIaw2bt7Oh46fZY8/XcmUZjhe2Bp+3tkmz5lrleh9Z3qdq2KipM22cE23+Z2vZs7XfszmLllqDVl3s4UfL2+ed+7jIdrU980YDK/niGzZx3kLr7+pL46Lcf92W1ouV9V/gJMtHdG/KVMA++qKdHTmc8N0FW3fttcbteliOJ6tY7nLPuSi6lf+YLX+Hvz5mLXoOS7i74M5MiZItbJ+26mRf8okvSVacBJKs8MSTLJ+c4mOvl7iIM3PxSvZKg8/ssRdes6vS5vNfdM3XGqYqXM7fTlWiah1/Z0Ek2YvvzWSXsrx7PMfJ718uyrzswWyW/YlKVqJKLf9FL3yXLD+smL3UU1b+5bqW5rGKdkv2om7+q1a6Rl27I3cJe6hAaatQ803LUeZ5uyZdfstXoapVev1de7BQWbs77+NWvtabVqJabX/P7jm3pff31vLlMkiWn5rhlxvqN2rqf4mXv6NuO9du3marN2219Vu22tpNG/0vNPC376uvrWH7PvbfTI+5SDaDqychkv3kC91dIE4eSVZ4fpbs23bNg1kTREm6wAmLj9JWf7uxjyA/dZHrf51M/35rGi/ZEi+86vO17fsNs7R86suJDdF6nGD5lNcjLmos+9Kb/hNaZV6qa6VfqmNlXqzr4bav0i+61zxWq2NPVKvrqGOl3LxSbvoT7vEJF7GW8tS2Ui+94b8joaQv43CPJau6eU7yTM9Vropdn7mgT1nAfx7KYdkff9o+bdPFxk+dY5NmzndR8zybPGehTZ670CbOXmAT3bSx0+dY0y79LPuT1eyiB3MkiPruTHYb6YKWHW3fXklWnBySrPDESvZqJ1kkGXshi598qVizvuVyESW/94WAuMXrzpxFnQRr+w8R/DddXl8ekDOf8irrpMh3EaTU38R5S6zI86/6r0284J6E28n8fbpsz71ZXHSd3UXmfCk55LBLHsjuP6XGF9twN8H5frt+3obbshRykm3vJKucrDg5JFnhiSRb4413fCQbSTYSLa/PZQjthuORhLi4hMAY9kOsmH1u1M1PU6Ss1Wnc3Fp3729tHK269U943qO//1nxNj36edr2dI8eN63nAPd6oLVztPXPHb3c895uGrjn4Kf1HOSeD7L2fYb45Wq894ndl/+JhEiWNiQ+0h6g/efdlcGnFc51QuV3w5hG5HreXQllou1Dsrc7yX76RQelC8RJI8kKD5LlhxRfrf++XZ86e5IwY+GWLj4iGzsNmZ13Zwb71+1p7N+3p/VX+M9xj+c6kfHZ//OcyP5xazr7fzel9j/B/b83p7b/vSWV/d3xDx5vfthNg4fc/ISf6f4fVyahbEL5v7OMf/x5moc6fb0J5Sn3r9vSeGFGooyFH3xk3f+6M53PNV94X0JKI4p0eYwtj2TvyFrYmrbqqAtf4qSRZIUHyW7dttU++Kip3Zk5v10UV7Jc0IoklMV/ofe/70rvP1WVpkg5uyfP43Zf3ifswQKl7dp0+f3XF/LNXXxRy/n3uuG4q4MLUojZfyrLrYNbxH6GW8Yom9nOcZL+5+0ZEr7Em+XctCjPGuFF6KB8ND8SZATrOOd2J1cn46vT5LYiz1S3p15/zx4sVM5/ogvRJl8mwks2WxFr3q6rHTxwQN8nK04KSVZ4kOyuXbutVftulirf4wmiSZQrRAKLZMuw+oH8Ja1S7Xfs/ebt3bB9sL3e+At7t3kn6zZkjDVo2cVKVKljN2Yu4qJaN0y/B8G6epxkk+pJfI14z3X1/cPJkK8/9LdeZS1kt+csahfen9X+7qLTf7hImWG+b1ciCdFnoqgT641AkP+8NY39y0He+KlX6luXfoNt846dtmDlRnvshTft3Lt/3q7kgub1+W599/Brtd3725Ejh/XzM+KkkGSFB4Hs2bPXuvXobZkKl0mSjZehv5UL2SZM41dkczxRyWq918TeaPy5NevYy8ZPn2ufOxl1GTzaFq1YZ+17DbPXGjS3Sq81sIcKlvMXls7zkePP0WzCcwSc0W7IlN/yV6xuuctWsyKValiH3gOt55BR/s6CLCWfcfOqOeGVSGiPE2vUvgjq8zlXBykKPuKbu8xz9v5nbWzCjNl24FDChxH4W7Bqoz36Qh0n/4SvUyQaJzebVBfydq/Pd5H6A7kft659h9g3x45KsuKkkGSFB4EcOnjQJk6YaIXKVXGySbj4hXQi0V5E/tIJkotZNd/9yOo1aWlNO/TyvyQ7ee4Cq9Ggqb3XooPNW7LCpsxeaA2/6Ook3Mqqv9PUHihQ1kWcWX6ZMkgU2vl3Z7D7Hilhn3fsactWrbPtO3cn6tBs5+59/u6ETv2GWeYSlRJkSjt8LvVn+HLv/zzEDzNm899vW/GVejZr/sLEWn75N3b2AstSuor9/db0dg2fTCtUxm53AucHIy90wk9oU8LdEXmc4IeNmui/b1eSFSeDJCuSIOe4YuVqK1+ttl1M1JkoWIguEN2YuYC/Lev1hs2sfe8htmLdRuvuIs5SNepajnIvWi4H3ynAtNkLl1vT9j2t1vuf+R89vC5jfhc1ZvilZJGmk9qVqXK6KPZ5e6PRZ/Z+83ZW56Pm9nrj5vbWZ3w1YQvLX+FF/yOJ3JYVpRhoE2kBuDN7EatRv4G16NzHKtdrZHkrvmgVa71t7fsMti07dtmX7gQybd5Cq/9pK8tZ5gXL+sTzVsudFIaNn2p9R021x6u/4790/DwXvXrJuvVclTaPPf1yPZs7f5FPp8TbZ0L8FpKsSAKRbN6y1V6r/75dlyrHL29n4vl9Wb0IW/XoZxNmzvUfTmjba5A99dq71qRDDxs1ZZaNmjzTfy3h0683sM79htscJ1q+q+CzDr1dBFze3ybF97RGkvV1u+E9YrshYz67N3cx91jAcj3xrL3souVaDT61klVf91/Uwt0BCJVlkyTtlmPaf50Qy1R7zQaPnmTLVm+0fi76rFK/ieUoU8Vylq5seZ+sYtlKPmulqr3hI+Y5i5fZyvWbrd/ISfZ07Q/ttpzFfZ3cJ8sXy5zv2nld2rxW5/1PbNOmzZKsOGkkWZEEw+H9e/dYh85dLXXe4gnyS5QZw2eG01XebGibt+/23786fvps/9Mxzbv1t7Ez5tm7LTpagy862YwFS62ti3Jfefczm794pR+iz1q0wn96i58BPzdGlEiSYXm24uWsQ48+NmzMBGvYvK0NGT3e9uzdbwcOHrZ1W7Zbp/7DLZeLQLmrAan+LOiMdnu2wlaheh0r6+rPVupZK//KW9ah3zCfxpg6d7F90bWf/56F0VNm+sh7+oLF9kHLTpan/It2S/bidkWqR1xb+PACEWzCF8Mg2/tzFbe2XXrboYOHdGeBOGkkWZEEkj169GubPWeeFatY1S5yAvP5Tzc054Z9PqJa7uU3/c/Q8DHUep+0spfe+dhGTJxhPYaMsZrvN7XO/YfZ9t17bMq8xVa1XmP7oFl7mzR7nvUdPdEed1Hk5Q/n9JJluO9vvXKPWZxg+w4d7qLFr+2nn360Y98cs70HDtiufV+6197RdvTYNzZk3FTLU65aUgQbRbEP5nvcWrhIesnytTZ0wnSr4dqRrXRVK1ippn3opD9z3hL/7WE9XRufdlH3/fnL2JWp89oVDz1i9+Ypaw/kL+d/2DGhTQlfDMMnwopUqGbjJ09P3C+SrDg5JFnxCxgWr1+3wWq/3cBuSpfHR3dIlnws98jelqOIZS/7vGUvV9VSF33Knn3jA5sxf7EtWbXOPvi8vT1Vo671HzHGpjqxVXztfXuwQFnL5ob+WVyEeWv2onbxA9n8LVfnIzRX9x2uvkbNW9uu3TEXu1wE+36rzlbzw89syer19v0PP/jp+w4css+79LP78pX2kbXPybo6Lnsgq93/SHGrXPs9Gzh6shPqBpsyZ5E1bN3NCj/3umUs/oylLVzOHsxbyv+8TbaSz9lDBcvblWny2xWpE34Y8iIn1eh+2/PuzmLXpc9vtd//2Das3+D2iQQrTh5JVvwChsVf7t1rPXr1t/QFSvkINkoXXOYEWem1d2zxirW2fdce6zl4lNVt8oUNHjfZRZCTXeT6oT1d6y0bMmai9Rk5wV6o38T6jhhv+w8c9CmEsi/Xt8seyunrJAq9wkXGZaq+ZnMWLrYoZN21d5991qWvZSxZ2R4sXN5e/bCpLV65xn508/lfsWGzPe3EfpFry3lI1snaD/ORrnu8OXMhK/ZcTfu0fXebOmehzVu8wvoNH2vN3Gtu56pc50PLXqaq3ZytqONRS+9OFBmKPWNXpytg5/mfnOF2tWyWs+QzNmTEWDty5IgkK04JSVb8AobFRLPLli23StVetSvuy+pzs1zVv8Q9z1/uRRs7ebb94KJLfu2gTuOWToTNbMyUmTZhxhz/k95jps2ymg2a2XstOtnqDZvswKFDNnbqXCtU6RX/JS3c5I9ob8pYwD74rJXt3p3wNYQ//vSDjZsxyx6rXMtFwe9al/7DbcjYSbbarSeKZr88dNg+7tjH33LFrV9Es5wEznPt47sSMhR50iq+XM/yV3jJcjxR2Wq9/6n1GDTSWjpxF6/yut3jotmMxSpajXca25BxE23S3EVWq1Eruy5TEfv3nXyfQWa7Nk1ee+3dj23jxs0+daFUgTgVJFnxf0Aqe9zwvXuvfpaxQOmEC2AuSrzonsx2Q/qCVqfhF7Z7z5f2w/c/2LS5S+zldz+1Sq+/7/OfbzdtY6VeqmuvNGzuhuwLrZ+LBht+0dle+7C53ZWruJ17R8ItUtR5V86i1rFnf38PKn/kY7lj4YV6TSxvxepW96MWNm32fN+mxAJ2xJXtPXKiZXz8GS9qf7eBq48PE1xwb0bLWqKCtevex6bOWmBdB4y2KvU+9tEqv9pQ+Onq9nGbzjZ/6XJbs3GrDRg71Z6u29huzPaYv+vB1+Ei2dwln7Xhoye49RLF6q4CcWpIsuL/gGS/cRHcunXr7Q0X8V2f+uf7R5Fj+kcrWvf+Y1yU961337otW+2Tdj0sW6nKVuCpGta6R3//I4t9nGDf+Ki51XJRbb5y1fyXdjOsjy5cPZi3pPUZMsrfqeD/fjL79rsfbPGq9f6HEwu7YX/Jqq/a4NHjXXsS1vXN99/bsMkzLWvp5/3HbL1kXZvuzvWYlXuxtv+O2pxlq1r5mm+76LWfjZ8218bPmGuTnaxXuIh41pKV1qRDL8tfqaZdlTa//eu2DC6C5Qu6M/kvtbktS2Fr1Kytbd++w+8DRbHiVJFkRVzIQ/J5/elu+F76uRp2KUPyuxBtQuSYrcRz1rX/CDt4+LCX374DB61l9wHWddBoW7l+o/UePtbe/KSVvdHocytdtba/55Rv60KwgKzvzFHE2nbv50SWEMmSguAugM79Blt/F0k27dzLilZ+xT5t28UOHUpYzxFXttvQsf5XFBLSDhl8ezI8+qR16tHP1rkIddKcJVa7SSvLUbaK5S5fzV75sJk1adfdqr39sT1QsIz/wph/3Jra33fLLVtc8PK/0vBAdqtYrbYtXLTUCfYbCVacFiRZcRwScrMHDx6wwcNGW45i5Z0k+RpBRJnJRY+Z7b48peyVdz+14ROm2/QFS32E2LLXYBs9fY4169zbqr31kWUp/rQTdNakNMHPks1o16XPa7XIfW7a7gWKZOctWe6G+B/aw4XKWvrHyltNN3/OouX2/fcJOdm9B7+yt5t19D83c0GiYKnr8geyWeqCT9jLbze2UROn+U95LV+70Tr0H2YlXqxj16TPb/+8JbX/wpgoxQDc4fDvxNcFy1a20WMnJV7sUppAnB4kWfGrENHt83cb9HOifdILykuK6M9FphfeRURa1HKVqWyZnFBzPlHZSlV53fKWq+pvg/LfLXuHK+ci10hswB0Bl9yf1bI+/rT1HTYmKR3www8/2oq1m5xoG9qT1ev4T4xxZwF/3//4g42ZPt/ylH/J52OjKBaQP+sirXFL5sJW9sU3rW2PQdZz6BirWr+x3Z69qG836QruhfW3pjm4Z5e0Q9bHKtiAIaPsiIvMv3XbHG9fCHEySLLiN/n222/sq0MHbejQEZb/8Qp2oRMZw2suhCEuvqybL9/mS7j/yRdo3/Cg/4JthuNResGL1ZX1gk58jRi5LaxQxRdt+Php9m1itEqOdt2mzT518O23CfLlb9r8pf7rEy91w/pYwUYgTi5e/cu155+3pLX/PJTbrnWiv+T+bAnzE9dN9Br9ogMfn81dopL1HzzKHwysL94+EOJkkWTFCfHdd9/a4UOHbMKYcVb+2Wp21QNZfAQYfew2HrECPB7UQdmsJZ6xZh1626r1m3++EJb4t2n7bmveZYBlK/m8XXxfNh+txquL3KqPUgH535He/nVHOhetZvC3oEXlkPG5Lgq/9N4s9lj5ajZm7GT7+kjCySTetgtxKkiy4oQhT/nN0a9txdKl9ubb79udGfLYeU5kCR8u+H1y/UVE60R73p0Z7Zo0j1i6IuWtjBvq13yvqdV8t6k9Vesdn4K41t8J4IR5HMF63LoRaGzdUVogeo7UyQ/f6NZV5dV3bNbseXbUbRtpkXjbLMSpIsmK3wWi/c4NqXds3Wo9uve04k9WsmsfzuZFSb7TS84JNxLbiYIYyamSZjjHyRRpk8c95/Z09s9bU/vfDouVZzySz+c10DYiV+q4xNWbp/jT1qlbX9u6dbu/TUsXuURIJFnxu0m4j/YbO3rksK1esdxatGhpeYuWsf8+nMN/qQwXuv7tIGqMxBsrv1gJHm+6v0Dlhvn+U10xQ/14RDKFKJIm4kXaiPV815bL789mmQuVtQZNWtjChUvta9d2Tha6TUuERpIVJw0RIFfiD391yNatXWv9+va1Ki++YmlyP2bXpsphl5AjJS/qIlFun/rnrWndkB/SJDwmvXY4IfKLtwnwPJ2dcwe/fAtpXHQblU2XNB/+6aZRL/zDreMfXHBz8/n47pUPZbd7sxexMs/WsPadetrq1evsq0OH/AmCT5nF2yYhTjeSrDg1XCR4zEmLq/L8DtbBL/fbiiWLrU+v3lb/nQ+tdMWqljFvCbsrUwG7NUNBuyVDIbs5QwG7KWM+u9FxveOGDIm45zdlyu+/5OUWyOLKOm7KXNBudsvf5Ja7IUP+BNK78p78dmP6AnZzxoJ2h1vm4ZyPWtEnn7W67zW2Hn0G2IL5i2z3rt0+78qFLX3IQKQ0kqw4bfDJLSRGdBv9JtZh18F2bd1qK5cssTkzZtnUyVNt4oRJNmH8RMcEz7ix423c6HHucZxNGDfBz5800ZWZ6MpMmmTjHeNcubFjxtmY0WNszKjRNmZkAmNHj7WJbplZ06bb6uUrbM+uXXb4cMIvy9IG3xaH8q7ij0KSFUFAcogNIvESSf5uTnS5xHVEqQDWSxsUtYo/GklWpCxHEwR8uom7LiHOACRZIYQIiCQrhBABkWSFECIgkqwQQgREkhVCiIBIskIIERBJVgghAiLJCiFEQCRZIYQIiCQrhBABkWSFECIgkqwQQgREkhVCiIBIskIIERBJVgghAiLJCiFEQCRZIYQIiCQrhBABkWSFECIgkqwQQgREkhVCiIBIskIIERBJVgghAiLJCiFEQCRZIYQIiCQrhBABkWSFECIgkqwQQgREkhVCiIBIskIIERBJVgghAiLJCiFEQCRZIYQIiCQrhBABkWSFECIgkqwQQgREkhVCiIBIskIIERBJVgghAiLJCiFEQCRZIYQIiCQrhBABkWSFECIgkqwQQgREkhVCiIBIskIIERBJVgghAiLJCiFEQCRZIYQIyB8i2aNHjwohxB9KPDeFIMUkG23YkSNH7PDhw37FQgjxR4CDIi8ld9XphvUFl2wk1/3799vOnTtt8+bNtmnTJiGESHHwz7Zt22z37t126NChJEcl99bpIrhkafzBgwdt+/bttnbtWlu1apUQQvzhrF692jZs2GB79uzxkW0o0QaX7IEDB/yZI9qos4U1a9b84jkniNhpQoizH7zEsc0IO5Rog0mWxlL51q1b427cybJu3Tpbv379L2AnxSt7uli+fLktXbrUVq5cGXe+EOLsBq+QPojnslMlqGQJw2l8vI36vRBFrlixwmbOmGETJ0yw8ePG2bixY23i+PG2YP78pDLJl/u9UMeyZctszJgxNsHVjWCnT5tmw4YOtXlz5yaUU0QrxJ8KjnvytYy8T3c0G0yyXOg6nVEs0erixYutb+/e1ql9e+vds6f16dXL+vft68UblWFn8Yjcj/c6qvN4ZZHs6FGjvMgROzLv0bWrzZg+PWHZmDqEEH8OOPaJZs8KydJILnZxZoi3MScDOwDJ9uze3Xo7uc51UeWiRYs8RJsM5RcsWOCH9TNnzrRJEyfa3Nmz/XTKEv3OcDJe7gRKfeRifFkiY1d2motWeY1oEessV8dstzzliGh79eiRJHNJVog/Hzhmx44dpz03G0yy3K7Flbt4G3MyRJJFdgP69/fypP4oCl2yZIkNHjTIejkB93JRbjcXeXbr0sUGDhhgfVz0i5w7d+hgI0eM8BKlzvEuQiUiJjru7soPccuzDiLZoUOG2Ihhw7zAJVkh/vzgEe6CQopnjWS5KBVvY06GSLJEse3btvXSQ5ADnXDnuIgzmte9WzefQ509a5b1cGLt5MQ6edIkmz9vni/LcvPc8zWuziVumfnz59vChQtthJNv544d/bJM79+vnw1ygka4kqwQf34k2UiyTqyIkwiVyHPE8OFeoMzr06ePDR861EeqDPMHDRxo/dw00gAsT56V5efOmWOr3XzkOnnyZD+9X9++1qF9e5vqXhMVEy0PdstLskL8NZBkEyWL7IgyESfTkSl5VC9ZN+yPhviIFskOcGWRJmVHjRzpo12kPH36dB/pIusJEybYUCdnItlpU6b4SFaSFeKvhSSbKFlyq0SnPCcvuzIxv8rr3skl6wQ6wEWov5Csi2S5FWuki4A7uoh4iotcV7jyzOvoItlIsoh8cEy6gPVKskL8eZFkEyUbmy7gQtfwIUP88N9Hsk6+JxLJLlywwN990LlTJy/T0W46F8vI9XrJJk8XuEhXkawQf24kWbcDkCcfPuCDAUMHD/Y5WXKwc5xkmTfJyZALV0S4pBGmOGFOmjTJz6MObuEiKkWiy5Yu9c+RLKkCbuHiNR9soDwXy1g+ugVsPPOcnJO3Swjx5+AvL9kIdkRyog8YxD6H6MMF8V5HzyOi19Hysc+TzxNC/PngGJdkhRAiEJKsEEIERJIVQoiASLJCCBEQSVYIIQIiyQohREAkWSGECIgkK4QQAZFkhRAiIJKsEEIERJIVQoiASLJCCBEQSVYIIQIiyQohREAkWSGECIgkK4QQAZFkhRAiIJKsEEIERJIVQoiASLJCCBEQSVYIIQIiyQohREAkWSGECIgkK4QQAZFkhRAiIJKsEEIERJIVQoiASLJCCBEQSVYIIQIiyQohREDOOslS58aNG+NujBBCnGmcdZI9dOiQbd68Oe7GCCHEmUYk2cOHD5/5koUjR47Ytm3b4m6MEEKcaaxbt8727NkT12enQjDJciagwZwd4m2QEEKcSTDyPnDgwGmNYiGYZIGwW9GsEOJMh4v0IaJYCCpZOHjwoG3ZssVvyKpVq/7PxgkhxB8BPgLSBLt27fIpzngOO1WCSxYQLQllNmbNmjVJGyeEEH8ESBYXcQcUEWwowUKKSBbYCPIdO3futE2bNvmNE0KIP4KtW7fa7t27vQDj+ep0kmKSjSCpLIQQZwLxHHW6SXHJCiHEXwlJVgghAiLJCiFEQCRZIYQIiCQrhBABkWSFECIgkqwQQgREkhVCiIBIskIIERBJVgghAiLJCiFEQCRZIYQIyB8i2Xhf1CCEEClJPDeFIMUky0YdO3bMP2elQgjxRxF9f2xKyJb1BZcsG8JP0bAevk+WX0rg93SEEOKPgB8R4Ptk+UEBhBtStiki2dhfRoj3LeVCCJGSrFy50v86woYNG/xPzyDCUKINLll+DYEzR/SbOtHv65wJ8PMTEG+eEOLPD07CATt27Agm2mCSpbFUzs88xNu4k4WfGI9+Kyz59Ojnx5nH898S6Ap3Nlu+bJmtXLEi7nwhxF8DnHLW/VotkiXnEYnvVEGYK5wMp02bZlOnTLElS5b8YvrMGTNs7ty5fhgwf/58GzZ0qE2fPt1WJQ4LkkO7prh6hg4ZYnPnzIlbRgjx14FrRaQ2T3c0G0yyJJNPZxSLFBcvXmx9+/Sxdq1b2/Bhw2y5kyvTly5dagP697fhw4fbMheZLliwwIa5+bGSRcaxcOYaPWqUdeva1Wa4crFlonXGlk8+L978X5t3PH5tmdh5QoiwhIpmg0iWMwFnBH6VNt7GnAyRZHv36mUtmze3Th062LSpU72MECvyHTJ4sBduFNkS0UY5F8og3YkTJtic2bN9nWPHjLGePXr4spRZtHChf84j9SBrIuZZM2fa5EmT/GuWoywR86JFi2y6i6yZF0XRa1w7SUGwbpblkeib+bRroauDdrOe2GicdlI/ZZPmnWE5bCH+zOAYcrPcCXU6o9lgkt2/f7+tX78+7sacDF6yTmr9+/a13j17WrcuXfxzxItA+/Xr54f+yBGx9XPzJk+c6MU220m1r3vdpWNH69CunfV3ZalrnJNsLydZJIrgBg0caEMGDfIiRMg9une3no4e3br55bq7qHe6EyTtQbCUpUx3N7+ra8+4sWO9LOfNm+fX0ad3b+tFW91yXTt39icIylOW18OHDvXtZ5kpkyd74bMuYPk5s2b5dSHhaD8IIcKAY7gLCin+pSXb14mLVMEEF5EiKsRG1IeUIskSNSK+CePH+6iUVALiIi3Aa8S22omLSBYJUm6wE+YAVwfLsr7JTnod27f30TFCZdkubn2IdZlbB2WoC7xUncRZPlo/IkWaU52U58yZ49uNqGkvkfQw11amkQ/mJNCPSNzVTV1T3bqRP+mMFcuXS7JCpACSbKJkiQ65qIVYhzoBIk+G2AMGDPDTI8kRMfrUgIsGuzk5ImCiWn9ngquLRyRLRNy5Uycfpc5yZVkPUps0aZKvg4tsa11ZouX+TtaDXbS71K17uZMfspzkouVRToYsj2hj1z9i+HAvSdbL+omu5zuJMm30yJFepETMXIBjebZtlJvOSYQImvVF0hdChEWSjZEswmKITRRIxDrQCRZhxZPsbCdOIl6ER84UYSJRJEtU2a5NGx+xkuMd7yJan1dNlCyRKDlXXlMv0kPstGPkiBE+sh3kos8xo0f7srGS5fUYJ1/qQ9C0jbKkMoiER7nlkyTrIlckS2RLO6kbcRNNs654+0MIcXqRZJNJ1t9Z4EQ5ftw4L8kvWrTw0xFYJFmizAVOasiMKJJhP9IjCqW+KJLlwhVyQ3RclELgTDueZIlgESJRLRE1kS2CZch/MpJlnTwnimW7WB/RL8vG2xdCiNOPJJsoWS4ekSdFlESj5ET7O7k1b9bM51UjyRLhImBeI9POHTv6ZcnPEnkiPn93gZMxF76WLF7sRdzHlZnnlieSpY7oDgbkycU1xMqQnzZ07dTJ51FHuOG9j0RjJIvkSQkgyqVuXZwAuLAWSXakk3rPxFQH24V0aQv1Uh8ynzFjhhc+64+3T4QQp4+/vGQRDWIlOkV8RHpMW+tAikiK/Cn5TqJLhv7kWLlPlmksx8UxRIh8qYsLTv7i2IIFvi4uUCFg0hBAOaTIRTLWx/Ddr8M9Zzoy5GIXy/iI1AmTehE29c5k/U6SRKfMm+aWRcK0B4FSJrotjOmkNzgJ0EYiX9ogyQqRMvzlJQvIhuiVNEHsdHYO62LeL8q56bGv+TIIiMoxn+eRxPxrVw+PyecBr2OXZZ1RfbQpmpd8/VF5pv1iXTGvo2WiNlJ37PJCiLBwvP3lJSuEEKGQZIUQIiCSrBBCBESSFUKIgEiyQggREElWCCECIskKIURAJFkhhAiIJCuEEAGRZIUQIiCSrBBCBESSFUKIgEiyQggREElWCCECIskKIURAJFkhhAiIJCuEEAGRZIUQIiCSrBBCBESSFUKIgEiyQggREElWCCECIskKIURAJFkhhAiIJCuEEAGRZIUQIiCSrBBCBESSFUKIgEiyQggREElWCCECctZJljo3bNgQd2OEEOJM46yT7KFDh2zz5s1xN0YIIc40kOyOHTvs8OHDZ75k4ciRI7Z169a4GyOEEGca69atsz179sT12akQTLKcCXbv3u3PDvE2SAghziS2bNliBw8ePK1RLASTLBB2b9u2Le4GCSHEmQIX6ffu3RvXY6dKUMlyRuDMEOVmV61a9X82Tggh/gjwESDYnTt3+qAwnsdOlaCSjUC0RLTkPNi4lStXCiHEHwZyJZW5adMmH8GGEiykiGQjWA9X78h9sHFCCPFHwEV5LnJxF1Q8V51OUlSypA+ipDJ3HwghxB9Bch+FJEUlK4QQfzUkWSGECIgkK4QQAZFkhRAiIJKsEEIERJIVQoiASLJCCBEQSVYIIQIiyQohREAkWSGECIgkK4QQAZFkhRAiIJKsEEIERJIVQoiASLJCCBEQSVYIIQIiyQohREAkWSGECIgkK4QQAZFkhRAiIJKsEEIERJIVQoiASLJCCBEQSVYIIQIiyQohREAkWSGECIgkK4QQAZFkhRAiIJKsEEIERJIVQoiASLJCCBEQSVYIIQIiyQohREAkWSGECIgkK4QQAZFkhRAiIJKsEEIERJIVQoiASLJCCBEQSVYIIQIiyQohREAkWSGECIgkK4QQAZFkhRAiIJKsEEIERJIVQoiASLJCCBEQSVYIIQIiyQohREAkWSGECIgkK4QQAZFkhRAiICkq2aNHj9qxY8f8Y7z5QggRmpT2UIpINtqYQ4cO2b59+2zXrl22Y8cOIYT4Q9izZ4/hvSNHjgSXbYpIlpXs3bvXNm3aZGvXrrWVK1cKIcQfxqpVq2zdunW2ffv2JNnGc9fpIKhkOUOwAjYEubJhsHr1aiGE+EOJXLRhwwYfBMZz2OkgeCRLaL5mzZrTJlfqSk68cmcbbAcnoj/L9ghxNoFoSWXGc9ipEkyyRLH79++39evXx92o3wvyQdSLFy+2BfPn27x582zRwoU+9D/bxUT758+da2PHjLFZs2b57ZRshUhZtm7d6oV4unO0QSPZbdu2xd2Yk4Eob8mSJTZ44EDr1KGDdWzf3tOje3ebMnmyrUwUUzyiOk50eizxysS+Pl4d0fRfmxe9ZttmTp9uvXr2tHHjxtmKFSt+UU4IER4CQqLZs0KyUS52y5YtcTfmZEBERLE9unWzXj162GwX8U2ZMsW6de3q5TTXRYKIich26dKltsSVXbF8+S/qIEJctmyZn4/IohQGj0xjHtNjE+Sxy/I6dpnodbReTgLUE7tcVNaXdyx1ZZYntotprI/1Tps2zXr36iXJCvEHgWNIbx4+fPi0ijaYZE9nqgAiySLYgQMGeEFxt8KE8eOtc8eOPppFcKNHjbJuXbr4KLere5w0caKtctJbtGiRDRs61Dp36uTL93T1THfRI3WOGDHClyVC7u2EPXnSJF92kFvPYrcc0hvpyiB01kN7KNOvTx8ve+Q6nLpdvR1dHf369vXDfsotd8uOHT3aRgwfboMGDfKR92RXB+sdNXKkb2t3d+Lo65bp4yQ7YcIESVaIPwAcw0X6050yOCsl29fJDWki1UEDB/roFtkhU+TG87lz5vhySHPhwoU20ckLCSLh+fPn++F5NB15IlGi4ZkzZtj8efN8frSHmz5r5kxfV5/eva1927Y2xgkTcQ4bMsRLdo5bF0Lu2rmzjXdR6NSpU73AKc96KDtk8GC/bF83bbw7KVAf9bPeIa4exM120L5xY8f6SFiSFSJlkWQjyTppRsLq5SI/ok8iQj8Ed9EtUSUSm+EkityIFKPUQlcXxRKd8ppokTqnOSl2cYJEmDOcYJe7ofvadets9uzZhqCRMNHwALcc8qROREx51ouEET+RKm1Ajog0iqKXuvqQMMKnTuaTMiC3HImYabSDbUPUKyRZIVIcSTZRsgypifiI/IgqkRxiREqItb8bdiM9BEa5To65Tm5EhwzxiXrbt2ljA/v39xEraQeG7wi0nZvO8gsWLPDrQsish2hzuJPoGBdl8nqoe93TCZGoFXGyvglOjqyDG5yZ3tmJm/YhfdIRSJo7IiLJsn5ysEiWbZvnomiiY6SudIEQKY8kmyhZhDbACQoRITRkBFxUGpyY8+TWLub5XKuTHZErZTZu2OCj3fFOlh3atbPhw4b5ejZu3OjnI+EuLtol8mRdDOlZnpwpw3hSEUSgTCMyJb3A7WREvCNcXUiW++0muXqSItmlS5MkG12cQ7JDXUQcRbIsQ3RMnT6SlWSFSHEk2UTJdu/a1cuJK/KRiHgkIo3ymuRduYCE6EgtzEzMqzJt+rRpSfIc4x6ZhxQZrvtl3PRo6M+FsTatW/uLaCzHOok2v2je3IY4oSNQpD0qUeZc/KJOpEzETaTMMkOdgLmwNce1gbYi0YlOwJwQaDMCH9Cvn28vz5UuECLlkWTdDkBqXKBCZMmjPZ4TaRLlMpTnDgTKEq0y/Cet0N+JDPmR+yS3yoUvJEtZP91FyUTD0RCe9bE8qQIEzzqmTpni6+FiVdQG5iF2Ug5czEKY1LvGtQtZE9FyaxYX6ygPy1zdY9wypC+IhElBROkPXfgSIuX5y0s2ArFBvHmIiav5yIw8LVEmwkqa54SHWBe6+Uxnp65NnE6KgXkrk8nbry9ResByy1z5qN6o7jVI2a0T4XKXA3UzPboX1pd3z5OWcTCN+3mROc8px7JRGSFEyiHJJhLJLt48YF4kuORlo3nR/N+aHs1LXjb5tIgTrSN2euwyxysnhAgPx6EkK4QQgZBkhRAiIJKsEEIERJIVQoiASLJCCBEQSVYIIQIiyQohREAkWSGECIgkK4QQAZFkhRAiIJKsEEIERJIVQoiASLJCCBEQSVYIIQIiyQohREAkWSGECIgkK4QQAZFkhRAiIJKsEEIERJIVQoiASLJCCBEQSVYIIQIiyQohREAkWSGECIgkK4QQAZFkhRAiIJKsEEIERJIVQoiASLJCCBEQSVYIIQJy1kn24MGDtmnTprgbI4QQZxpnlWTh8OHDtmXLlrgbI4QQZxpIdvfu3XF9dioEkyxnAhpMw+NtkBBCnEls2LDBpzlPZxQLQSV76NAh27x5c9wNEkKIMwWCwZ07d/oReDyfnQrBJAuIljMDZ4h4GyaEEH8kq1atsjVr1ti2bdtOey42IqhkIxBtFNGyUUII8UezcuXKYBe7YkkRyUapg127dvmLYUS23N4lhBApDf7hzqetW7fa3r17g6QIYkkRyQKiPXbsmB05csTf3sU6hRAipTlw4IAXX+Sl5K463aSYZGNhw4QQ4o8knptC8IdIVggh/ipIskIIERBJVgghAiLJCiFEQCRZIYQIiCQrhBABkWSFECIgkqwQQgREkhVCiIBIskIIERBJVgghAiLJCiFEQCRZIYQIiCQrhBABkWSFECIgkqwQQgREkhVCiIBIskIIEZAUl2y8n4EQQoiUJp6fQpBiko02jB9S5NchhRDijwIPRV5K7qrTTYpIlg1hw/bv3+9/43zz5s3+J3k3btwohBApTvRz4PxyNsINKdvgkqXxrGTbtm22Zs0aW716tRBCnBFs2LDBdu/e7YPAeP46HQSX7KFDh2zLli1xN1Cc/XDiXLt2rU6g4qxl3bp1tnPnTi/aEBFtUMmGiGDZIZx9ItavX39GHOB/VcksX77cli5daitXrow7X4izATyyZ8+euB47VYJJljMCjUaK8Tbq94LEOJBnz5plkyZOtPHjxtmE8eNt1syZtmLFij9UcqtWrfLEm/dnhm2eMnmyjRo50ubNmxe3jBBnA/iD60S48HRHs8EkSzKZKDbeBp0MDEmXLFlifXr3tg7t2lmPbt2sS6dO1qlDB3+QL3XzYstyZkLwkXx5ZHpE8vlJy7pp8ebxnGnMA+qIpi9evNgmO9kQ0cWrk9dJ63bz1yUuH1uO11H9yes43jwek0+P1hOViZaNXSbe/NhtSl4uto6k1648z8eMHu3fkxkzZiQtK8TZCP2a/Gw8n50KQSTLmYBcLHcRxNuYk4EdgMx69ehhffv0sfnz59sCx4B+/axzx442fdq0JAnMnTvXJk6YYFOmTPHyZRrD2jlz5tiiRYtswYIFfv60qVP99Gg51jNn9uykeUh9deI86pnpouYJbh6R9MKFC315ouhxY8dal86dbfjw4TZj+nQv26jdqxwsy7pp82xX/+RJk2yue00kSN3UwbZMde0lQkdYy5YtS2iTK7PQtZd5RO5sp2+Xq5fHae71eDed9i5ybaIetp/lqZ8Ik2h/eWJ9LDPbrZt9yXz2B9HoJLdd8xOjUcqxX1gv5Wl7tD9YZr6rn21g3cOHDbN+ffvaLDfCiLZZiLMRHLNjx47TnpsNJllu1yJnGm9jToZYyQ7o39/LiwtqCI+IFqEiRITR05WhXPeuXW2gK4tIFrllBw8aZL169bKBAwdar549fRQ8wonRy8PVh0B7dO/ul+3mlh3kyrMs0qH+vi5iQ/DdXRTdx9WDMBEQ5du2bm1dnWhZBxKnzSy3auVKL95+brnebp0IqWfiOmg7MkOORIT9E+cB4vZCdPIaNGCAby/LD3TPmYZIhwwZ4qf1dm0Z5LaJNo4cMcK3AWEie6Z369LFC5HX45zEhwwe7E8m02mXWyf7iTJsE/uPNrENQ125/u4kxv5kvWwr82k728p6WZZ9IsmKsx0cwy2mSPGskSxD0HgbczJEkkUqSA4hIgyeIyciSyJFDvzhQ4d6Scx0ESHCGj1qlI/oGNZ2clFvFIkiG2RKuVlOOqQgWJYIjsitO8s6+RFpIrx5Tmy0Yaqb19VJCREiyKFOdshmiovuqJfyvt2Jkp3qxMR8RIvsAGEjONpMrtmfCNyytJP6iNBp11i3fiTHttIuyixzsiTaZttHOKkSvbI8bZvgylE36yQiRs5sB/sLESLgIY4Zrg08p03T3fYQ7SJz9i/LIXF/onLbSXTN/iT65gSHjNk/lGMbKEeUH71XQpyNSLKJkkWU7dq0sY7t21vrL77wEiUqY/5EJ88ObjoSQJZIlGgVeRCFsSyRGZLauGmTlyXDfIbbCLNT4rIj3BCYCJC6iGYZahMFMmQf5YSNANu3a2djx4yxFS7qIwpF7sguNv+ZJFm3HPJiHQy3WYY8MicHpIpkERjpANrso0PXVsRFesCL0gkV0S52sieFgBTZHsoSvSJg1st0xMmJhfWxHUTzw9z+QJZEpLSb4T77jm1l/Sw72e2/KJpFsuwr0gGkHngvqZvtGOXWx3axDHUiXkWy4mxHkk2ULMJBBEgTkfIcISA3pNLRSXWwEwviiyAiJGJESkgGydI2IkokhbxGOukxBGaIHLss8iCCRYgMixEyAkPOyAoB85p2MUSnnUntjiTrpIU0EdsaNz1aBvkhLkTF8sNcBItoaWOU52R5RIwkaR/byzA/yuMiWNpCmgOZE+lGeVIgT8x+Qd6AOEkrIG+ESbokiryJxBE09bBPB7h2cFLhBMN2sR9ZZrTbVysTlyGiRuSSrDjbkWQTJUv0hSgQGNEbQ1XEiDiRD8P46G4DIjTyiyy/2A2niTYpz4UbIkokibiQCpA6GOemURfiiZZlaMzFNeplOsNklmMojzCZTqRJrpR6wbc7UbLTXN20G8mRTqAtDNkRGlFjJD+kSbsRapTnjOoi+vX5UCc5xEf6goiW9jCd+mmHTxk4USNjphGdkjvmBEPemJMFQ39OHEh+qFsXqQa2dYyrl5MBOWQfybr5nHyQLFGrF29iVMz62XYkTd1KF4izHUk2UbJI0g/5nRSIXslBctGGKJFhLQJAiOQ1iRaRAEJByCzHML+vEw35yM6dOvloD+kgGcSHPImQWZaIEEEhECSKgLyI3DJt27RJSBc4yRERI+goykNatBkxRZIlYibKRlKsk/WwDtIERKMIkbYzfCeHGkWyCJRtQaBEugiNaJoIEjmzPuaTt0Wu7APWxz4hx4z4ESLbQj6a+inDCYj0CtJmvxCNEg3TBtpP9ExEHStZ6qEdnMj8PnTLsF268CX+DPzlJctBjggRDEJFbuwUhMFFHSJR5jMdeSAAcqcILLqohLiQHHUgWWSKTJLqpy43jxwuUR5CIbpkaEyU7C8aObEx3EZyCDiKlie5NrFctL6oTp8ucOWJLBEd+UzqYD1eXq4cJwCEy3SG9kTKSIt6kDAniiiCpB2sj3ZTn8+3OskiY/YF6+RkxD6gTYiRNnKiIC2BdHlN+6iHtAH1sm20iWWpg7ZRJ21hnzKNZaiPcuxf2kwZctvRLW1CnK385SX7a0QCiJ7HvgZ2HsIiCkRkDL2jMr+1bOy82OfJy8Vdzk1LnpNl+B8tHy0Tr67k035r3onU8ZvLxVkmOcnr/a3yQpwtSLK/k1gZRJIlJ0sEhmSZdjxBxC57ItMj/LzY+e45kuWCEpEskSWSZd2xy0Uct243Pd66o2nHXe4EOZk6TnWdQpxpSLKnAEJgaMwQn+Etw/8UkYRbB1IlJ8y6uXAURbJxywsh/jAk2dMAF8r47oB480KCVH9x/6wQ4oxDkhVCiIBIskIIERBJVgghAiLJCiFEQCRZIYQIiCQrhBABkWSFECIgkqwQQgREkhVCiIBIskIIERBJVgghAiLJCiFEQCRZIYQIiCQrhBABkWSFECIgkqwQQgREkhVCiIBIskIIERBJVgghAiLJCiFEQCRZIYQIiCQrhBABkWSFECIgkqwQQgQEye7YscMOHz4syQohxOlGkhVCiIBIskIIEZCzTrLUuWHDhrgbI4QQZxqxko3ntZMlmGQPHTpkmzdvjrsxQghxpoFkd+/eHddpp0IQyQJng23btsXdGCGEONMgvUma83SmCiCYZGno3r17bd26dXE3SAghzhTWrFljW7du9SPweD47FYJJFhTNCiHOBrh+tG/fvrgeO1WCShZic7OrVq36PxsnhBB/JIy2d+3aZUeOHInrsFMluGSBlXDVjsRy7MYhXSGESEki/5Ai2Lhxo09rhhIspIhkgY1gPch2y5YttmnTJiGE+EMgjblnzx4vwHi+Op2kmGSFEOKviCQrhBABkWSFECIgkqwQQgREkhVCiIBIskIIERBJVgghAiLJCiFEQCRZIYQIiCQrhBABkWSFECIgkqwQQgREkhVCiIBIskIIERBJVgghAiLJCiFEQCRZIYQIiCQrhBABkWSFECIgkqwQQgREkhVCiIBIskIIERBJVgghAiLJCiFEQCRZIYQIiCQrhBABkWSFECIgkqwQQgREkhVCiIBIskIIEZAUlezRo0ft2LFj/jHefPHXIyX6hPqdiCWl+0OKSDbaGFa2b98+27lzp+3YsUMI3xfoE4cOHbIjR46c1o5PXdR54MAB27Nnj/qd8NAP6A9473T3uXikiGRZCRu1efNmW7t2ra1cuVKIJOgTmzZtst27d/u+Eq8PnQwHDx70B9X69ett9erVcdct/prQH+gX27dv9yfheP3ndBFUspwhWAEbwoG0atUqDxsoRETUL+gj9BWi2nj96fdAn+akvmbNGvU5EZeoX3CCDxloBo9kiSTU0cWJEImWPnMqES0R7JYtW+KuQ4h4hBRtMMkSxe7fvz9pqCbEiUKfIb1Evixe3zoe9LnDhw/brl27kkZO8eoXIh6Moug/pztHGzSS3bZtW9yNEeK3oO/QOX9Ph6cs+TWiknh1CvFrbNiwwUezZ4VkaSQVa8gmTpaTGb4R+e7du9fWrVunKFb8bhj9MAqK17dOhWCSVapAnAobN270fShe/zoeSJY7FJQqECcD/Ybbu35vmuq3kGR/A3Y8BzyRFY9sExfy4pU9U6B9RHNwprf1eEiyP7+Psf3vbH5Pz3ToN1x0Pd15WUn2OLDDuQWI59OnT7fx48fblClTbMmSJT53cyZvG/cBLl682Lf1bJXNX12ykVyXLVtm06ZNswkTJtjUqVNt6dKlvv8xP95ypxv2JX09pdb3RyLJpiDsbB5Hjx5tb775phUpUsQKFChgJUqUsMqVK1vr1q1t0aJFZ2RUS3vmzJljTZo0sWbNmvnnZ2Pk81eWLEJDpj179rTq1avb448/bgULFvT9sFatWta/f39/Ak2J93X58uW2YMEC39/jzf8zIcmmEOxoOnnnzp0ta9aslilTJnvppZfsk08+sQYNGviOfscdd1i9evV854uEfKZAeyZNmmRPPvmkPfvsszZx4sQzro0nwl9VsvQ9RiH0tQceeMBy5szp+xonzddff90KFy5sOXLksI8//tiPWEK+tytWrLAhQ4ZY/fr1rVOnTn6f/plTFexLSTYFYChGaoDItWjRon6YtnXrVp864JGO9tprr1maNGmsefPmSR2dzscBghwgXuePOijzWA8c7yCJ6jqRMuznqAyPkydPtgoVKvioG+Eeb/kzmb+iZOkf9Kd27dpZtmzZ/ImSVEFs/yNlxXubN29e69u3r99WiPoWj9FziO1HPI+mx0L/Iecb29eogyi2TZs2Por+6KOP/LTkdcRb9myF9kuygWEnc3B++OGHljp1auvQoYOfFtt56EzkaIluv/jiC98RmUZHZggX5W5Zhs4Xdfqok8fmeWfNmuXXx7zowOCRe0Q52JDl7Nmz/fTYzh3Vw/ooM3fuXL8+9jfzJNmzU7K0m/ebvpUnTx7r3bt3Uh9ifvQ4aNAge+ONN/xoK+pbQL+hPNtOXexDolH6A7KmT8XWx3yWWbhwoY0ZM8b3x2g5+hH1kBp79NFHrWnTpr4u6mDZqA/OmzfPL0taimksG9V/tsG2S7KBob10uEqVKln+/Pl954m3DXQ+OleUF0Oq7777rpUqVcpHvwzpnn/+eRs8eLAvT8fs0aOHtWzZ0j7//HNfP5Ey5Z577jkbOHCgL0MnjcqWL1/ez6fOV155xUaOHOnXRXsQO4JHpMyHunXr+nZwsEXRjiQbv+4zEd5b2s1JumLFila2bFmf6kne/9guZBeBPOlTn332mU8p1KhRw4YPH+7rov9VqVLFihcvbsWKFfN9slevXr4e+hnXHN566y0/L1++fP4ReY8YMcKnLMgJM+2mm27yaQvmDR061LeJvt+iRQt77LHHfF+mD5LW4JiJtie23WcDkmwKgKA4I3Ohgc6FoOJtQyQ7oNMjPKRcrVo1/xzhpkuXzg/p+vXr5ztk7dq1LWPGjJYlSxYv0Pfff9/n2FKlSmVPPPGET0sQZXBRo1ChQj56aNiwoTVq1MhfcCO/Sgfmgsinn37q6+YAQtzRgfLqq6/6K9BIlgNVko1f95lIJCXef97vqlWr+qiWE2+8skwHRErUe+ONN9ojjzzi+wSiRpTUwzUE8rf0pdKlS/uTL6JEosiZvs5JHEnTR6mDEz99iDroQ/fff78XNX0NqdOfGe2lT5/eBwxMj5YlCqfdZ9uxD5JsChBJFmEhuXiRRCx0dg5mhmNEmrxJHOR86ogr+w8//LC/gEF0/Pbbb9s999xjL7/8sr9Sy2fzqfudd96x3LlzW7du3fywn05NdEB9fPqEN71jx45exO3bt/cHFQcOByH18l2s5OqIYmg3Fyho91NPPSXJxqn3TCWSLJEmfe/FF19MGoInLwuUB4RJzpSLZJzgmcYoC+kxEiK1EH2HMxFuuXLlfF/k1rAZM2Z4abKv6bMsSzSKLPv06eNP+vRLZE3USj9jGuukjz799NM+msYftJOUAjLu3r27fw+ibTpbkGRTgEiydJQTkWwEnZQOyCPl6dBdunTxkStXZun0RJt0XvJolAE6IRcWiFzpxBxgdGgiUgRKeyjDcyJdcmatWrXykQvyJq+LmAGpk6ogyh03bpw/ACTZ+HWfiURCiiTLqOhEJMvV/5IlS/qTKv2Aj7IjUyRIlMn7z10wzCMtxcmaskSy5FQpTz+LcrmMnDjpc2LnNRfhaA8n8aiNyJy+TFkCBtpJ9EpfZjpRM/I92/qdJJsCJI9kj5cuAN6QWIhmGUIRKeTKlcvuu+8+u/nmm71c58+f7x8ZmpHnYvno4IkkiyQRKOt97733/JAsKsMjEmc9DP0YvnFrGe2MoHMT0VAfw0VFsmefZIEokWE9+VMizXiSpRzT2U4kS3nup6XP0IeZRv8ghcCoJ8rJ0s/om9wdg2RZnhETkS19M0OGDH60RRqAaDRWsvQ71otUP/jgA98HKR+l1jjB0wfJ7dIHyfmebf2O9kqygaG9RI3kP8l5EhHSaZOX483gTE1HAjoiHRix0QG5KkwagHRBbCRLlJpcsly9jSQbpQWoI1ayrI+2sS5upeH2HuonZ8ZBAuRro08E6e6Cs0+yQLt575555pmkPH28/gdR34skSy6UPkM/QdTIlVvABgwY4PsGfYQLXdRPHwfu/eZaAqkn+mHXrl19fpaREiOueJEsciZSJdolGKCNsX2Q0RXtiNfmMx32vyQbGHYyHYmLAJzNiSyZRkfnEelx8BNhIGJkSCemQ5NDowOzPPsT0XKmJ8d1IpIlXRAN57hCTPTLuijHwUR0Sv3cVkaujciCNvEdmFGujHUzTZI9eyU7c+ZMq1mzpr9iTx9iOE8fYB7HE8+5mEo6gYiRHD13IsRKlpMv/YhoGJmS26ePUFd0sqZu7gggCOBuFfoPcO83644+fNC2bVsvWYQctYM+SJ+lD5Iao+6oD7LM2bjvgW2TZFMADm4iQobe3LbC7VR0XjoO0SsHAVdw+TACnZwOz9AMidJZWZ5okjsM7r77bv+xXISJbBlWUR/riSSLyIkmkCx1M+zjNZEEBwPrJMolWuEiRHSLD3cojBo1ytfDgUQ9RBhIFckyn6vEkuzZQ9Ru3meG3byHRJ9R1Eo/RKC8r0iOEzxRK0JFupFkyd1z5wr9CFlG9Q4bNsz3U6JTpjPEJ0KNUlH0FS7MMlKKIlkutrIuolYulnEij9JRZcqU8ZEs7xVpBPogyzP/bDz22QeSbApAJ0JcRAh0UmRKREDeilwWUWvatGn9LVh0aoRKFEt0yTRuZyES4VYt8rJ0TiJZHhElEQTriSQbDce4nYZOTTSLjJmGoBm+kbrgoOHgYRkOANpB/pd1Mtwj+ojaRKTNRQ9OBpLs2QVtR1hcqSd/yrCcC6H0vxdeeMF/1BsB0wcoj3TpB8gtyrPSh8eOHevff/oJ/Yj0UnSBjDQY8ubiKKJt3Lixv4iFNPkQDusgGKCPchGNSJmAgzYwEqM/E+HS5+jTtJV7aDkGkDgn/ah/n01IsilIJFqumCI/OiYdig7LrTF0UN4QygBXbolUESNDMIZcRLhECdwKg4iRNkLl/kPWER0MnPVZBxEJ0QrTmUZnjeqjE9MW5gHLc2sOQ0SuIpMaQO5cRaY9HGxEKuR4uZDHemK372zgrypZiN5jcpycOJEcAmMEgxC57Yr3mXK8vwzfkSKjHt7rCE6wiJE0FQLlRB+ddClLP65Tp44ftSFcxI2AiV7pg6yD0Rn37tLXOJnThzmRM50+jvg5NkhNEYET7bJc8m06G2C/nHWSPV7S/myBnc6Jgu2IhU4UKy7KJZ8P0fPYupILL5rOI6+ZzzKx642dH1smmh+VieqO5kPy9Z0t/JUlC/H6QfQ+x76vse918jqivhW7bPJ+Flt3VM/xyp3I8lG7zkbYtrNKsvxiaPQ5/bMZOk1yTqRcNC15uXjEKxdb1/HqOZEyZytI9vf2SyTLhzw4WM52yUYkf49/7/v8W8v+2rxYTnX5swH6zVn18zOcDUiox9sYIX4LTtCHDh363RFFNIL6s0hWpBxE4nw67nRGsRBEshHR0C3eBglxPIiKuDXoZIZtiJlvlqIOiVacKPQXTuyMwM8aydJQKv8zpAxEysL9lvy0d7x+9VuQMiAaUTQrfg/km0k1xetTp0rQSBaoWx1enAj0EfoKX1aCLE82oiACZhTFgaN+J34Lolg+1IMMT3cUC8ElC9TPp03YIHV6kRz6BB2dCJYoFMHG60e/h+giGNKO1pF8veKvC/0ByMOSmkKE8frR6SBFJBulDuj0XAyj4xNlsIHirw19gT5B3zidHZ0+h2jJsXHFGIGrzwmgH9AfuF0L953KqOlESBHJQrQRDOVYKRcohKAv0Cdi+8jpJJKt+pyIhf4QyTWkYCHFJBsRbZQQscTrK6eTeOsUIl5fOd2kuGSFEOKvhCQrhBABkWSFECIgkqwQQgREkhVCiIBIskIIERBJVgghAiLJCiFEQCRZIYQIiCQrhBABkWSFECIgkqwQQgREkhVCiIBIskIIERBJVgghAiLJCiFEQCRZIYQIiCQrhBABkWSFECIgkqwQQgREkhVCiIBIskIIERBJVgghAiLJCiFEQCRZIYQIiCQrhBABkWSFECIgkqwQQgREkhVCiIBIskIIERBJVgghAiLJCiFEQCRZIYQIiCQrhBABkWSFECIgkqwQQgREkhVCiIBIskIIERBJVgghAiLJCiFEQCRZIYQIiCQrhBABkWSFECIgkqwQQgREkhVCiIBIskIIERBJVgghAiLJCiFEQCRZIYQIiCQrhBABkWSFECIgkqwQQgREkhVCiIBIskIIERBJVgghAiLJCiFEQCRZIYQIiCQrhBABkWSFECIgkqwQQgREkhVCiIBIskIIERBJVgghAiLJCiFEQCRZIYQIiCQrhBABkWSFECIgkqwQQgREkhVCiIBIskIIERBJVgghAiLJCiFEQCRZIYQIiCQrhBABkWSFECIgkqwQQgREkhVCiIBIskIIERBJVgghAiLJCiFEQCRZIYQIiCQrhBABkWSFECIgkqwQQgREkhVCiIBIskIIERBJVgghAiLJCiFEQCRZIYQIiCQrhBABkWSFECIgkqwQQgREkhVCiIBIskIIERBJVgghAiLJCiFEQCRZIYQIiCQrhBABkWSFECIgkqwQQgREkhVCiIBIskIIERBJVgghAiLJCiFEQCRZIYQIiCQrhBABkWSFECIgkqwQQgREkhVCiIBIskIIERBJVgghAiLJCiFEQCRZIYQIiCQrhBABkWSFECIgkqwQQgREkhVCiIBIskIIERBJVgghAiLJCiFEQCRZIYQIiCQrhBABkWSFECIgkqwQQgREkhVCiIBIskIIERBJVgghAiLJCiFEQCRZIYQIiCQrhBABkWSFECIgkqwQQgREkhVCiIBIskIIERBJVgghAiLJCiFEQCRZIYQIiCQrhBABkWSFECIgkqwQQgREkhVCiIBIskIIERBJVgghAiLJCiFEQCRZIYQIiCQrhBABkWSFECIgkqwQQgREkhVCiIBIskIIERBJVgghAiLJCiFEQCRZIYQIiCQrhBABkWSFECIgkqwQQgTES/bAgQN29OhRIYQQp5nDhw/b37Zv32579+4VQghxmtm1a5f9bcCAATZw4EAhhBCnnYH2/wGyUryzrLIb7AAAAABJRU5ErkJggg==;movable=0;resizable=0;rotatable=0;deletable=0;editable=0;locked=1;connectable=0;" vertex="1" parent="1">
          <mxGeometry x="100" y="610" width="230.51" height="513.13" as="geometry" />
        </mxCell>
        <mxCell id="b-o21iaNYB_1QmSjUm_C-3" value="" style="shape=image;verticalLabelPosition=bottom;labelBackgroundColor=default;verticalAlign=top;aspect=fixed;imageAspect=0;image=data:image/png,iVBORw0KGgoAAAANSUhEUgAAAT8AAALFCAYAAAC1R+RJAAAAAXNSR0IArs4c6QAAAARnQU1BAACxjwv8YQUAAAAJcEhZcwAAFxEAABcRAcom8z8AAKXySURBVHhe7Z0FfB3Xlf+7/y5vd7fb7VK3sN0tbGk35XbbpmmSpuHESRw7ZCdmjpmZ7ZiZmalmZmZmkm1JliyWjLIln/98j3WVl5cnst6T9TTn58/5yG/gzh243znn3Dszn5kxY4b42WbOnCmTJk2SHj16SNOmTaVJkybStWtXmTBhgs4LtY6ZWVka1+GsWbPMwmSzZ8+WefPmyWe2bdsmZmZm5dd27Nghe/bskb1795qFwbZv3y4LFiyQz4jJZDL5SJmZmbJ48WKDn8lk8pfS0tIMfiaTyX8y+JlMJl/K4GcymXwpg5/JZPKlDH4mU4R0//59yc3NlZycnKg39oP9qUgy+JlMYRawyM7Oltu3b8utW7fk5s2bUW/sB/vDfrF/FUEGP5MpTAIKd+7cUVhcv35d7caNGxXG3P6wf+xntEPQ4GcylVKEg3fv3lUoBAOjIhveIPsdreGwwc9kKoVo+HhBoeDgF2P/oxGABj+T6SFl4PvYohGABj+T6SFEQyf5HwoEfjWORzgAGB8fL7t375asrKy8KZGRwc9kegjdu3fPdzm+oozjwXEpjdatWye/+tWv5F//9V+lRYsWkpGRkTcn/DL4mUwlFN4Nwz5CAcDvxnF5WO/v6tWr8tprr8n//M//yDvvvCP//d//ra+cipQMfiZTCYV3E6rhl2cL5aUyraDpwdOKa6xbkiEwrAMwU1NTpV+/fvJP//RP0rZtW3134Xe/+135/e9/L8eOHcvPrfI3XHpo+DHim4sgcEf5P8Y8k6kiqiS5PkDgwkDWcw040DtiqEjwem4ZthMKRG6ISXG8T7YZ+JQJ6zKd9fnNNlw5/N+1a8xt2wGNea7cwoxyihL1GDt2rHp3//d//yePP/64fOELX5Df/e53snXrVi2nTZs28p//+Z/yjW98Q37zm9/o/ytVqiQHDx58aO8yUA8FPw7Epk2bZNy4cboDQ4cOVRs9erSMGTNG57mTXp7EhcBB58BhuNmXL1/W/TGZiiMA4ABSmLllTpw4IWvXrtUGTSKfdoGXw1uE16xZI+fOnQsJuWvXrum1mZ6e/onpWHJyspw/f14SExMLrQvXO9f4qlWrZNGiRbJr1y59gSfrsF0a/ubNmyUlJUWXvXTpkixZskQWLlwox48f1zKoFx0PJ0+elH379uVPC9xOsAXCvSCx7e985zvq2T377LPyox/9SNkRLLy+6tWr67Ivv/yyeoPvvvuu7kdp9dDw42TyfQsA+Mtf/lJ3YuTIkQrDjRs3lkv4bdiwQebPn68nn4uYE813EfhtMhVHXPtFNX7m8zQEsOnVq5d+C4ZQjrYC0P74xz+qV9O6dWsZPHiwgsxBjHWxnTt3yuTJkxVIbgA1UOH/AAFHg1exI+axvru5Uw5/4+LiZPz48bqdbt266bdpCCcvXLggffv21Xp16dJF63Pq1Cn56KOPpH379rpshw4d9JX5tBPq995770n9+vW1Dm4bBRnzi3Io2Levfe1ruh+sw34ibgwcJ+oARxDz2ReWefLJJ+WJJ57Q5UqrsOT8OKg9e/bM+1V+NWXKFK0nFwmiJ4k7KyfYZCqOAsPBgozGz7V16NAhOXz4sIKAv71799aGDXjworgO+WjWxIkTdR0HPgxI4Qnt379fYmNjtTw8PiAFGHEyuHkDU7wgvLezZ89KQkJCPgyZx7c/uMaB5vTp02XIkCEKROrBNMqiXniHwJppeKJ9+vRRMNE21q9fL1WqVNFpwK+o/Wd+Uc4PniWdG9/85jf1Y0IIuL311lvyF3/xF/K5z31OQ+Jp06bpPDzhDz74QL761a+qw0I9S6uwwK9hw4bSuXPn/Apx8Ah9qWT37t1ly5Ytcvr0ab3T1K5dW+rWrasHG3HCOMmEAO3atZNq1aqpB8kJQ1wE3CW563CX4qAh7nrcTZneoEEDXc5BjJMO5KgXf7nTkSfAbSa/wEm8ePGiHDhwQD1YLk4uFg50o0aNpFmzZlofxB2G/ZgzZ47WH5ebi+XKlSs6n4uxf//+Uq9ePf3iG1314TgxpvKp4sAPYxmuA65J/gIQwMO1NGLECDlz5ozO4zeJ/mD4ASLaxdy5c7XHk5CZNoTHRIMl6gKaXLNc71z/TAOClEUdABXbIAQFHgMGDJBhw4Yp+PCqgC/lsn3nZbF/eHp4pITrhM3Mp02ybnHhV5w2QPmPPfaYtivqwv7+13/9l+4X0K9atarm+oA/3i7/r1OnTn47L60iAj/+Ah3C4YEDBypoVq9erSeawYscfAjP3ZCT/L//+796N2TeypUr5YUXXtCcCHdOvEqAwp2SuyQQAjzcLaZOnaquORfA+++/r3cO5rVs2VIGDRqkZbN9Di4nmc9SAinK4k7KHZCTzJ2TC5IQhXWWLl2qEGS7MTEx8sYbb8iLL76ouRBCZ+A9fPhwLQMAcxfmZPEpPOrItkwVU8WFHwYoCH8BC+2D8JJrimsNwFAW3piDH4bjwHq0BWBAtALwuK7Ju9F2yN9x7XOd4p1RPu2GlE5g6Es9+Q0caQ9shzZFmdz02RbeJPOoF8IhoK4sA0j5y3wAzE0eYATvZ7Cx3aI8P4QDQxjLfrIeofavf/3r/PbD9n74wx+q40I7xHkhLA+XIgI/PCnyDDVr1tSTjwIToEDq7bffVu8Kt/upp55SiDk1btxY73icVJbjIHESEdvAAukPXAEmFwwnCThxp0MAatmyZXqi3V2WE0N9uFNy8QBhgOm8PcSBx+PE08Tl54J1AnCcKJLGeJ5cwG4/2fei8h2m6FVx4ccyRC9ce0Q/XN9ctzRkbrh4cYib+ahRoxR4XKvktoAXN2imu2/2JiUlaZSB9wX8ACIOAtDiBkyZAJJ1A9++godJZyQQo+OCOnH98pv6EHkBN+oHGLmuCafZT+Dn8oK0jzfffFMhS10cYENZceBHG8GBwdPDUWJ52udXvvIVdXiA/Pe+9z11OtgWUP7xj3+sThPbD4ciFvYCGYjuxIHkwOHSAhaARyjACaxcubLegZzw0LgoWAd3mwGPHHwOCC4wAm54k5zITp06qZdJfoOLo1WrVvl1CRTLcqC5ODj41AXvjwuU8vHenLgACNEpk7AaF92Jk8YFTZ0J31muefPmGtZwAYXLLTeVP3HdFAU/5mOAiWuDdsBNHuCRggE23HTx1Ig2aAc0fpwCrncgQDTBtcl6LM/HtYEhjgHrMR8g0B5I09BZQYiKR0cPM+UxjxQNMCH1hHOAo0APL20MT5SyaRdct1zDQJQygC8eGPtBe1m+fLnWFYAWtf/Aqqg2AGx5kuO3v/1tfrujbOpFru/rX/+6PPPMM/nzuDkAYuAI7NlGaRUx+AE4Bz8qSj6Px1W4a3G3IT8GUIALYaXz1BBg4QJw4m5IyEnCk3wdJ5cDgQu8YsUKPXGUwUnjouDuFQg/6oM4yZxATpCDH0ClHniqgd4nISz7hdcJ/ACtE3WjN4o7NWL/uKC4CFmW/ISpYopGzfkObvCB5oABnIgYSL3gfdHQGJ6CN0bahGuZGy+N3pVJFMINHDgeOXJEHQAXcgJGHIijR49qjg+4sTzthXQNYOUGTARDZEO4i9cI4JgOPIEJZXLTpkzCZ5YDnNSJvCB1pW0AayAKeGhzQJp6FgU/li9qqAtgx+vDyaHdsY8uuiOiot2xLcRxoD1SdzpJnn766U84Sw+rsMCPBo/3Fez5cbARsCNed+4qBx/31cHv9ddf/xT88K6YR+WcOEi44Lj8gNCN9eGO+dxzz+kFwcVRo0YNDRHcPE4mBxL4dezYUU8O4gRzcQJXphNqI044+8NFS93JE7oOGsQFRR3JwQBFLl7ExchdFiCbKqZo1FzfoRp9sLmbrhM3XK5D18hRsCcZuA7/Z16gF8XyTKetkQfDIyT3B2xZlmuSfCLXONsKhhDrMp1yEPPdsoFy010ITZ1pF66ehVnwfocSnuhPf/pTHbj8+c9/Xj772c9qmwZ6TgAZZwZP8DOf+Yz2DH/xi19UR6o42yhKYYEfObZAb4uKcVdzeTI8JFxqPCO8tQ8//FDdXcICAPfqq6/qHdEJr447AiExHRm4+qzLWCPuEIANIAFdIMu2GftDWYAI2NWqVUunsy2gR524OwJd5nEXA87cEbkQOBmEKOT52B6eKeDjrkjuEqg6keOjjm68FOvhijMYE2gCXFPFVTCwHpURlgI6AAW8mEYbBFQOWmVtgWAtTLRHnB/aNY4E7YkBzACOyIr8JU9z/NVf/ZX+JUdJ5EibBYrhUFjgByA4Ee4uw1/GGwUmJvHsCA0BHm47YAFUnCTX8+XEzlExysGbYtgM8MHtdV4b26QsvD3CCFxlykJcmCyLV0aC2ZXNXzowWI/1qR/1YjsY5RAysD0OPuJiAmaBI8oZ/kIdWYd64pHiGQLQQIibKqY47wAmVOMvS6MtABEHvvJgHBeOT3EVuCwjKXjSA2eCtvutb31LnRyXXipJucVRWOBnMvlNeDflCTrlwXA6iuP1FSQcDCKuL33pS/L9739ffvKTn3wiDA63DH4m00OKqCAUBPxogM+lvUojOgsZY8sIEDpHIzlywuBnMj2kaJjlIfx91Ab4wtEBUdYy+JlMpRB5KBp+eegAeRTmPL5w5+PKQgY/k6mUouHTmea3HCD7G9hRGW0y+JlMYZILgyu6Fwj08Haj0dsLlMHPZAqzgCChIENRAGFFMIAH2PH0oh16TgY/kynCAobRbBVVBj+TyeRLGfxMJpMvZfAzmUy+lMHPZDL5UgY/k8nkSxn8TCaTL5UPP8bumJmZlW8LNRTFrOTGseSlygo/BmSamZmZ+cEYsM07R/mOyWdCjeo2MzMzq4jGEyu8kNjgZ2Zm5isz+JmZmfnSDH5mZma+NIOfmZmZL83gZ2Zm5ksz+JmZmfnSDH5mZma+NIOfmZmZL83gZ2Zm5ksz+JmZmfnSDH5mZma+NIOfmZmZL83gZ2Zm5ksz+JmZmfnSDH5mZma+NIOfmZmZL83gZ2Zm5ksz+JmZmfnSDH5mZma+NIOfmZmZL83gZ2Zm5ksz+JmZmfnSDH5mZma+NIOfmZmZL83gZ2Zm5ksz+JmZmfnSDH5mZma+NIOfmZmZL63U8KOAYAu1XEktuBx+3759O2zlm5mZ+dtgyUPDLzs7W+7duyc5OTly//59/ctvpodaHmODd+7cCTnPGctQDrBz07KysiQzM1Nu3LjxiWULMta9e/fuJ8owMzMzc/ZQ8AMogGjSpEnSrFkzadCggdSoUUPq168vTZo00ekpKSmfAg+/ExMT5cyZMwqxQC/O/d8tM3r0aDl69Kj+BoSnTp3Sco8dO6bTAtcNLgP4nj17VmbMmKFlMN1Z8DqFWUmXNzMzix6jfZcYfqwEvM6fPy8nT56UuXPnyrvvvitTp05V2Fy4cEHnAy0sNzdXgYS2bt0q3bt3V4DhmTHdeYwsx98rV64oRLdt26ZeIvMPHDgg3bp1078sh6fpPEzKces6L/TQoUPStWtXLcPN5y/z3XrUwW07cHpgnTCWc/tuZmZWMeyh4OcMmKDDhw9L69atZdeuXfob0ACMEydOyLp16xR4eIIsP378eHnzzTdlz549kpaWJvHx8fr/VatWyb59+yQjI0Pi4uK0vJ07d+bDD5j16dNHZs2aJWvWrJG9e/dKamqq7gAQ3rBhgyxdulT279+v04Awy1MnlmP5lStXKgzxLAEcgD5y5Ihs3LhRl0tKStLp1NXVCY+TfaXM4P03MzOLXisV/DBAB1hatGghW7ZsUcABECDTqlUr6dy5s9StW1fD2EuXLknz5s3lxz/+sXz00UfqIQKsnj17SpcuXeSdd96R6dOnK/zatm37CfgBM8LqN954Q9q3b69ljho1SnOBU6ZMkYYNG0rLli2lUaNGCq2DBw9K//79Zffu3QpEyu/Ro4eG58OHD1fAAT2WZx7rT5gwQWHMfPanY8eOWg/2hQNlHqCZWcWxsMOP33hWgGbmzJnqCV67dk2hA4g2b96sQHFhL7BxmjZtmoLt8uXL0q5du0/Br1q1arJgwQJdFk+vXr166vXhQToB0169esmOHTsUsPzF86Mc5KDM+k2bNtUdR4Tvq1evlmXLlilkqSsaOnSo7gteIWWEOgZmZmbRZ2GHHwJIbdq0UfAADDxB5i9fvlxDT/6fnp6en9+bPXu2DBs2TKpUqSKdOnXSacHwI+wFQoSjCBi60BhY4v3h6eHB4W0SxgI/lr9+/bosWbJERowYoeXiNVKPOnXqaKhNPagjmjNnjkKWkHnixIm6/JgxYxTg5vmZmVUcCzv86GwgnKUXGE+K+Q5+5P4ISfk/G8YjwwucPHmyQgpoEYKGgh95RZbdvn27QorfhNB0tgDFkSNH6vaHDBmiHSqsO3DgQPU0gd64ceMUxkCS7VMP4Oe8VfaFEBpIurrTswxkCcOLO8TGzMwsOiws8ANcH374oWzatEm9KDwtcnx4cTExMZpzI0QltGQZoANU+A3AyL1RFp4aYS+5QfJ3gM7Bj46JSpUqaT4OGAFMlsWDwwOkYwXvbNCgQZqrY90BAwYoxAhjFy1apN4mXia/WR7vtHfv3vm5RwdhwmLWozw6V4A2+2Sen5lZxbFSww/YATFCQ7wxAME0QlG8ODoUgBOQYmMJCQnqqX3wwQcKFToZ8LQYlgK08OSoUOA4PzxHAMW4PTxCQEu5rneYMhgaAwwBLj3K9DQvXLhQy5g/f76uA+zwLvEE6cU9fvy4rsO6TKc+7BP5QLxMIEkozbhE6o4F77+ZmVl0Wqnhh1EIHlogHIAW5sJFN98t66Y7b4rfbh03PbA8/g8E+cuyrhz+hirDTXfLufmB6/GXZdz0wOX566Zjrh5mZmYVw2jXpYYfFgoQTAuEUfB0/gb/H3PLuOUD18NcmYHTCyvDzQ9cJtS6gdNCTTczM6s4RtsOC/zMzMzMoskMfmZmZr40g5+ZmZkvzeBnZmbmSzP4mZmZ+dLKBH7u7S/8DTXfzMzMrKwt4vBjzByDnwcPHqxvWmEaGw1ezszMzKwsLeLw4/E3ntr4r//6L30XHxssLfxY343bC8dYvHCXV5RFYnvhLs/MrKIb7STs8KNQQlxecoAWL14s3/3ud/X5Wifml7SR4kW6b4WwLsY0AMsjdSUtz9XTvXyBacCD8gOnhctcXSnfQSp4Wqj1CrLA+rvjGcn6m5lVJKO9hBV+QAhAJScny+nTp/XVUjxv+9WvflU6dOigz8/yXK17Bx+NP1Q5wUaD5nEz1uWZ3b59++p7+3gGmGdxeWaYZYpbnoMO7x6kTjwPzDPHvFyB8nmjC295eRhIhzIHZ74twksUeOmCexsNL1GIjY3VbRUXWECO+vOeQd5Ww0sZeCks6QXeeciLIPjOSrjqb2ZW0Sys8AM+NEZeJMA3Pb70pS/JZz7zmU/Zv//7v0utWrVk7dq1CiHAEKo8ZzRyXnPFyw++9rWvhSzzpZdekhUrVujyRXlQzGe7QJNX6v/5n//5p8r7yle+orDmDTPsV2kAwvq8tBWwfuc73/nUtrAnn3xSTwJvjykK4K7+QJu3X//1X//1p8rjZsNLIIDtw3jFZmYV3cICPzwyGjjeC29C+bM/+zNtgP/4j/8ov//97+VXv/qV/MM//IM2cOzv//7vdf4XvvAF9Vbc9z1ClU3D5a0qVatWzW/YlMebYGjcb731lvzLv/yLTv+3f/s3fQEpcCgIgOwwZfKW6a9//eu63j/90z9J5cqVtTzeFvP444/Ln/7pn+o83kB97ty5hwYI+wVAa9euLX/yJ3+iZf70pz/V7fBGGV6c+h//8R86HeDiCfKmmsI8QOrCi2EdSL/4xS/KK6+8om/P4e3UHHMHRI4Pb68xD9DM7JMWFvjRUHn3HZ+w/H//7//J3/zN3+jbkgnneGEpYdj3v/99fVEoG+NFojTSz3/+89pAed0UnlGwx0MjJzxu3LixLgcsaeC8KdqJRk15v/71r3WZb3zjG/oOPuAXqrEjPEQHvieeeEJ3HoA7AXFeiAqwP/vZz+r7/QiPqV9JAMJxIXTGY+WG8LnPfU7fX0g6wAmvdv369VoP6oNnS26U9UMBHPEqfr6DwvI/+9nP9O3TANOJc8Hr9/GwAS7nhX2yHKCZ2ccWFvghvr8B9GiQhHc0eidyaHR4zJs3Tz1EBEhooAAQwPCOPdZxcOEvYGPdf/7nf9Zy8faAITlF5gMsykG8vPR73/ueLocXRJgc3Ngpj9wgoS7L/fznP8//4hzz3HYR4SdhLzCnjuwf8wvyKIPNeZ/Un55utof3R1oAMS+w/nwzBI+W5V588UUFvKuTM34DserVq+ty7C8g53hwo2AZ6s9v/s+LWvEA//Zv/1bfeejqFFimmZlfjbZSKvjReGnEfDuDBonnRZjlAAXsyAECP4a8MA2jsbIeLxh9//339bXz/HblMp+Kvfbaa1oung6vyw+Vf6MOGJ0gf/mXf6nhNi8+DW7siDc5EyYCNTpLKIt1A8tzy9Jp4DxKgEn4G2rZUEb98cDefvvt/PrTMUH9gwFEmYCNV+1TN+pPB0xw/o9jSrjr8p54lHRqhPLoEC9y/e1vf6vL8tU70gfFrb+ZWUU32n6p4EfDI2fnvJH/+7//00ZGY6bwguDHujREAEFoHAgE5gMPEvp0mhC64YUxvaDGy3Z4o/RPfvITrUfNmjW1x9ktT33YFuE48/GyGHTt6hlcHutRJ3pkASUdCHTQsL+hlg805lMu3wf59re/reuT3yssl8f+Xrx4UZ5++mmtHzlIXtfPdOZTHqE33i/l/fCHP9RPAhRUH+rPzYTvmOD9kRfl+DO9qPqbmfnBaAel9vwoxHl+JO35Dobz0AqDn1s/uAE7EBK2/cVf/IV8+ctf1jyYA5JbLtCAQ2B+ELjx7RBXP7wmXntPZwPz+YiRy+OFKg9DeFouP8j3QQBYQXVw5ub369dPwUPujWNAPQqrP98YAW6kAf73f/9X4cbyrv54or/5zW+0LkA8VJ400BBluI4R8phso6j6m5n5wWhXYcn58QFxl/OjJxOvy6kw+IUyGjSQcSEvIHMhW0Hr0qAxensBDnlCOgJYh+mIb/ISUtKTS1jp1glVHga4+WQmPdTUg+E59NwWBhyM+YSs9HyzHt4oISiAC7U85srk63KEvhj74vKCdIzwHRQ8YYbm4NFR98LqQv1JQTAMiHrwaVDGSRZVfzMzP1hY4EejpoPBNTLybjQ0BvPSQEnK09tLhwe/i4KfC/F++ctfanmvv/66hsYFhYwYZeId8VU2AIf3hKfG9igPA9CA71//9V+155lphdWF7dFBwnAU6vHcc89paF1YPTDmU/8XXnghv/54aS6EDWXUg/rQU83QF+rfrVs3zemxHvsxadIk7Xxh/4Ak6zA9VHkY5XFe6GihHuT/6Fhheqjlzcz8ZLSfUsMPwzOhYbkhGxiN9A9/+IPmr2jQhK40ZNeYQ5WD0TjxWAAm5RDKAoGiPBZE7y35OdajQ4DtsD16ksnfkT/8wQ9+oJ/LpLzC4Me6eF583Y3yqA+hdFHwAH48IUL+k/X4VCcQLQqawBtP04WpeNCEqRxbPGE6dPBqv/Wtbym8qV9R9We/+TIdeULKZViNwc/MLIzwoyDCLD5ZSSP97//+b23AzvBkCB95DMt9CpJGHQpoNE56f2nkrEtnQXHhRyeGgwf5MzxGtkMYzthCpv/iF79QSBYFP4x1+aQm6xFy0mNbHPhRf3p4gQ7bpbOlOPDj2LghL0DTDe1hiAw943iuhNHAuzjww8idUg/qTw6zMA/UzMwvFjb4YQ6AQIVwa+rUqTrUA0/MPd2A8ZuQjgQ+6wRDwcHvm9/8pjZ2PDY8mOLCj/wi28FjBBrAg52kB5jphNPFhR/i+8OsxyBrenALgwflUX/ghIcJdIBwceAHaIGfG57CseM4Un/gDfy4ieBRAuGi6u/OB+E/6/EEjMHPzOyB0T7CBj9neBs0MCCAGCAM8PAG6bmlYWP/+Z//qQOiyY8FgoH1aNwOfjwC97DwAxrAg7ATT4rpDws/8m2bN28uFvwILwmTHwZ+LnUQDD+ebgFieIbcHIoDP8ocMmSIHkeDn5nZxxYR+DmjcBouuT5AQO8rjZYw0g0f4bEvcmrAyTVm4MFwGcJe4IGXWFz4kTNzucLgsJdHy5iO50R+sjjwo/4u7AUePElSHPixHGPxqD/Daoob9tIbyyNrbI/eZcZQMp2/hP9AjOE6QLio+ruwmLffUA+GIdH5ZPAzM4sw/DDCLjfUhb9OwIEH8GnkNOg+ffrk5/WAR2CHBxArbs6Pp0DciwKABdOpAx0HvFqL8BsoMYAaGBUFj8AODx4nY6wg9Qu1vDPKpf54aGyvXr16Cvei1kOs5zxXOjzo6AB+1B8PmJ50PGiG7bicXqiyMOaxvntMj5sJA7WLqoeZmR8sLPCjkRXkhQTCz43zY1nE6+15vpaGThI/JiZGwUHjBBbuaQ3CPxpxYZ4T5SJycvQy09gDh7qwLm9MwdNkDCA7zPTC4Mc6eGwffPCB1gOYkacsrB4Y83kG95lnntH1KlWqpL+L8hg5VtSfZ4EJb93ja6zHfJ7P5Y04dFzwmF5R8KMeHEfgDYQ51tx0DH5mZmGAn4MHYWngs7nOQsEPo9ESjrZs2VIbJs+rEso5WNHo3SBneokZXFwYdFiP+dOnT9e3p7iXEQBa5iHGHfKmFrbHAGKWLwwe1J1xfW68HhDmhQNFeaDMp/48s8x69C7zJpfCoEM9MF71z6No1J9xie75Xrw/BjkzD0+ZPB7HsbC6AE1yiO5FDhxPPMvCjqOZmV+sVPCjEbEybw+mM4FXLTkvxS1TEPwwYDBs2DB9MoSBx7wBhemUC0h5HIuGTscIr8diemDZgUZZgY+3PfbYY+pFAQfWQXRy8NgY84v7eBvbdUNuCM2Dn0MOZW4+Q37+6q/+Sj05wk2mF1R/9g1g0qOLd8pwHbbN8qyHDhw4oCClLjxO6PKkocrDkOt1Zh1ezVXUOmZmfjHa1kPDD9HB4HJUDKZ1j2O5ZQqDH54fQKGx4/kBKxo6BkTpMSVExVOj04NyC2q4bOfChQufeAsLLwZwwASOwM4Nd6HTg7oX5I1RB8oE7DxOhidGno3lKS/UOs6YTz15zyD5RwDoeqypT6h12F/q/+yzz2r98Dbda61c/QGXe4YauJO3DL7ZOKP+rMObaxgY/Xd/93f5nnBR9Tcz84PRDh4afjQuEvGuQTI0hcfLgJqDVEHwo9GSx+MxONbFI+OV6w5WrMcjYa5ThOEpPDVB2cGN14GKdwLy7joaOx4l0wNhiXgsjLCYnNrw4cN1eiigsp0TJ07oEypsn5CR0DUQHpQfqMByODYcWLd/vJCA53upZ0H1JyfJWEJgCywD85zumDBInGW4Ybj3JoaqP8vylhhec8/2GT5DZ01g/c3M/Gy0g4eGH4YIrVwPK50CvEkEeNAAEW9yBn4820tjRjRCYEUOjvV4CoKw1TVkgMCyDJTGa2EZ3khMBwRlM5/KOwARErq3GwMaQOVA6uoKcOlUefXVV3U56uTCaQcFjPwaHmzbtm0VRHQyAE23TVc/PMkxY8ZohwIvGsDTdPVnOQDIMB/ydJTDiw4Yt8dxCa4/Q1zcCxTwSum1DgYV6+EN8qwwy/G6LJ4F5ni4fcWoP38BKDcDjh8ebHG+D2Jm5hejjZQKfjReGh49keTtaJSM4WOYiXu1FYUzbMW9np3cIMM/6JVleXpF8eooK7BsYMUTGm5wMuEjA32dh8h8LHDYDGPZ8DSZH1weBijILTpYEz4y8JflqSvzOSAMD3HfGuHFBoSkLOPK4f+83NQ9jcHwE/aB+rhl+D9AJ9eGpwkAATgeGdthPtvkOAFk8pu8/sq9NToUqFiHcNoNA2JMIPsLrCmT8oAw6QS+TcIyvMg00KsOLtPMzI9WavhheDiABgD+6Ec/0gaH8VomvDEG5eLhEdoyn7DNLQP43Ni5UA2TBk2Ppev5xfB4+KARICE35j5gxBAQwkLWCwW+wOl4bO6NyECYchhXR5jong3GAAdQC/bCAAlemAuLGTtImBwIPwwY0VNNrpHhNyxL/XnZA+kCXlnvIMUgasL1QA842JjOPjDUxeVa8eyAP54loAaM5EmZx/Glo4f6FnRMzMz8aGGBH+YaF+EbwzDolcRzwpuhEWI0fnJVwA8Q0huKFwQwCvJImA4YCTF5OShgImeHF0VZ/KU8QkbedMI6RYV2zgMiZAR6Ls9GXfHQeIEqPaSEsoSpocDMNniJA193w9t8+eWX1bti2cDlXP15QoPOB24G9G5Td2ccJyCKR0qer6j6M59yGfqCxwi8Xf0xPGQASyeReXxmZqGNNhEW+GHAj4aO0Yjx6AjJAAS9tnhq5P0Y3Ix3Q6MsTsNkPstRLp0gQIvOAUI73nFHvo/EP/OL692wHNAlD0Y9GffHY2AMjOZgADYgU1j9mE4PLB4gy1OHgpZ19Qfi5BmpP/Dnpao8asfxKmn9WZ7hMeQHyY1yPOgEWbx4sd5U3DJFHV8zMz8a7SJs8HNGoYCDhofwyHg0jJyfy3Uxv7gN3RnlAhHWpxyX42I7zhsKtV5BFlhPyqGjwJVZHChjbv3iLB+q/li46u/Kc/Uv6fE1M/OT0X7CDr9AozGSnyI05ItqbLCkjTyUhaucQItEmQVZtNffzCzajbYSUfjhfdBTSo8qf0MtY2ZmZlbWFnH4YYRliL+h5puZmZmVtZUJ/MzMzMzKmxn8zMzMfGkGPzMzM1+awc/MzMyXZvAzMzPzpRn8zMzMfGkGPzMzM1+awc/MzMyXZvAzMzPzpUUEfu4rbjzaZmZmZvYwBpywYL6Ey8IOPyod/JYRMzOz8BlvH/KDsa+RfENR2OBHQbyqiUqbTCZTOAUIi/uaueJaWOBHIRDaZDKZIqlwvhyl1PAz8JlMprISkWW4AFhq+LnXVZlMJlNZiBA4HDnAUsGPCliOz2QylbXoXwjFpJJYqeBHAtLgZzKZylrh8P5KBT/oazKZTGUtnC4+3hWKS8U1g5/JZIo6GfxMJpMvZfAzmUy+lMHPZDL5UgY/k8nkSxn8TCaTL2XwM5lMvpTBz2Qy+VIGP5PJ5EsZ/Ewmky9l8DOZTL6Uwc9kMpWJ0u9lSVbOjbxfHytX7svd+/fyLdf7F6js+9lyJzc779cndff+XbmdeyfvV8kU1fBLS02VhYsWyokTJ/KmFKxr167JjBkz5MCBA3lTTCZTWSjnfo4cvnFSBsSNk/EJs+XEzbNyK/e2zjvu/f+juLHS7fIQ6XVluAyOnyQnb53TeSyzKGW1NL7QVRpe6CQLU1bJzdxbOg8Yrk3fKs0u9pAG5zvKpMR5HlwzdV5xFbXwy8jIkNGjR8mzz/9BmrVoJqdPn86bE1rnzp2T9957T2bOnJk35WNxEB5GrPew65pMflDO/VxZmrpOXjtVV544VkVeOllDWsX0liM3T3n+3n2Zl7LCg1sX/bs6fYtszNgpiXeTdT3+/8HZlvLHlDWyxpvX9lJf7/+r5Z4H091ZB3XezKQ/yiZvueYeBGclLVHQFldRCb/4+HgZM3a0zJk7RyZOnCBjx42VESNHyOEjhwt8Hf758+elWrVqMmvWLH2P1/Hjx2X//v0yffp06dChgwwePFguX76ct7Tnoqeny+zZs3Venz595MyZM7rdnTt3yt69e+Wjjz7S+VlZWbrsnDlzpFevXjJmzBiJiYnRMji4hw8fluHDh0v37t29uk7UMhCf5ly8eLH07NlTOnXqpFBO9TxZxPrjxo3TdfBWU1JSdLrJFG26cideWl7sKWMTZnkQXC+bMnfJdc97yyZcvX9HZicvlSnXFuQt/bHS7mVIv9jRMurq9LwpIn9MXS09Y4fJ2Vsxnqc3V/rEjsybI7IuY5u0u9Rf4rMT86YUraiDH+Dat2+frF69Sq5fvy4zZ82UY8ePyQEPZCtXrdSdCSXgV716dZk7d64CEuC88MIL0rp1a4XWq6++Km3btlWQAbTOnTvLSy+9JB07dpQuXbrIwYMHdbvPPPOMfPDBB7reokWLJDk5WXr37i1VqlSRAQMGyPvvvy8ffvihxMbG6naWLVumEAOgr732mi7LOqxbtWpV/Y0B34SEBImLi5NGjRpJzZo1tV6sA2gzM0vm0ptM5UFX7lyV9h6U8Pb6xY6RrZl78+aIF8LellEJ073QtbsX3q7yPLhdcu3ugxt9QnaStL/cX71Gpz3Xj3jeXz/ZmL5DhsZPlnnJy/PmiIbKdc+3lyNeeF1cRR38XIURb4GeOm2qenyIigDHUAqEH8sAtTp16qgHhvbs2SM1atTQ/OGmTZvk2Wefld27d+s8p6NHj8rjjz8uI0d+fMfZtWuXAgpPEuG9vfnmm7Jw4UL9HajNmzcr2PAG+/fvr9sHtoGaPHmyNGjQIH/6jh07pHLlyparNEWlcr3wlXxf58uD5HfHqsq7Z5rK2vRtkp17T8PXVWlbpNuVodLryggFW8uYXnLw+nFJvpsqbbwwl9DX6fDNk9I6po+sSt8kQ+Inycq0jXlzRGLvJEj98x1l7/UHLCiOojLsdeIV1MDv0OFDeVMKViD82CZe1ZAhQ7QOCLgAnUOHDsn48ePlnXfeUQ8wUITJlEHY60R5P/jBD+SJJ56QJ598Up566in52te+pmEsH2YCpG3atJFatWqp14g3efbsWa1P48aN5Q9/+IP07dtXO2Rcvb7//e/L008/reX96le/kscee0y2bduWt0WTKfqUmJ0s/T3Pj86JRuc7e17bCp2enXtXe4DTc7IkLjtB+sWNkZ4eCE94nlyHyx/JuvStuhzalXVQc3vk//p7y81OWpo3RyTmTqyWTS6xuPIt/Ag1hw0blu/5AbT69evLkSNHZNq0afLuu+9qWB0o4Id3GOiFkZN7+eWXZf369er9YeTsWNeFtsuXL9ftk/uj3JMnH7jmbJscItDFW8T7pF716tXTEPvYsWNy6tQpDYULCudNpvIshq3g4d3Iuakh7BoPZsOuTpJ2MX3lRl7PbaDwCrtcGeR5cEekd+xImZ8HSbQybbO3Xn/1DMclzPJsdt4cz3m5cUzD3pjbsXlTilbUw2/S5Ely8NDBvCkFi95evDk6KdgmebhBgwZ9IuzFOwM4gJBQdsmSJVpH8m0cJKbTYxzo+REakztcuvTju5DbNzozyN3RYYEXSN6vUqVKCli8Sgc0YPj8888rJAEv+UNAi8gbUseCwnmTqTwr+V6azE9Zqbm9TpcHaFhb51xbmZO8VHtm6aAgxGXoSuydq9Lb8/p6XBkmsZ4XODNpsXS+NNDzGlMk5W6adLs81At3J0rGvSxZnrJBml7s5nmLiZLheY2D4ydId2+9TO//xVVUw4+Kz5s3Tzs8ihLeGB4W3hjbJOQdO3as1gHhzTVt2lTzeoCK3tY33nhDWrRoIe3atVMYYeTsAj0/8o6Uw7J0grAsoSs9x4SqeH5MB3yEuXXr1lXAbty4Ubp166aeXrNmzXQe6wBKOltYj7JatWolo0aNyu8JNpmiSYS0dGbQqfHyyZpS+1wb2ZC+XXt77+TekUnX5kqHS/1lUPx47RRp43mEp26d13Uv3YmTLpcHaYdJRy8EbnWxl5y5dVHnAb0escOlxcWeOj6wyfmuGhaXRFENPyrP0JHMrKJ7QvGegBa9sKxHGHrx4sX8oTFpaWk6n7+I6Rs2bJChQ4fK1KlTFUxumVBDT/Ac6QjBCIGdR0n4yvAXoEtvLtvF67ty5YrmBenlxRvlADoB3zVr1ui2yT/iaTov0WSKRjGmb1fmQTl960LelAfT8PaWp22QGUl/lA0ZOz41UBmvcFnqegUoOcFAJXveIPMWeJ5l3J1PziuOohp+JpMpOqSg8UJbHl8rLzL4mUwmX8rgZzKZfCmDn8lk8qUMfiaTyZcy+JlMJl/K4GcymXwpg5/JZPKlDH4mk8mXMviZTCZfyuBnMpl8qUcOP55jNZlMprIW8OPNUKG4VFwrFfwgL5UwmUymshQvLwFeobhUXCsV/FjZ3lVnMpnKUjhcvI4uFJNKYqWCH0YlTCaTqawUDq8PKzX8KMByfyaTqSxEpFnaXJ+zUsPPmQHQZDJFUnh8pe3hDbSwwQ8jBLYcoMlkCqdgCs5VOELdQAsr/DAKhM5U1szMzKw0hkMVrjA32MIOP4xvYISabmZmZlYSiyRLIgI/MzMzs/JuBj8zMzNfmsHPzMzMl2bwMzOLMiMP5gcLte/htIjBj4LppaHn18zMLHxGD6gfjH2FI6H4Eg4LK/wojEozLgfjGTwzM7Pwml/EvsIRXp2HIxVuEIYNflCaEdgmk8kUbgFCIBhOAIYFfoDPnuwwmUyRFgOfwwXAUsMPd9TAZzKZykJ4gAAwFItKaqWGn4W6JpOpLAUAiTZD8agkVir44fX5KQFrMpnKh8KR/ysV/HA/DX4mk6msRaqttC88KBX87OttJpPpUSgcoa/Bz2QyRZ0MfiaTyZcy+JlMJl/K4GcymXwpg5/JZPKlDH4mk8mXMviZTCZfyuBnMpl8KYOfyWTypQx+JpPJlzL4mUwmXyrq4ededV+U3I5mZmZKWlqapKamSkZGhsHXZCoD0f6yT52Se1eu5E3JE+3X40Buerrkeu2Sv/ezs/NmevLm3/Pgci8u7pPTPd3PyXkwLzb2U/OKo6iGH+8B3Lx5s1y8eDFvSsFKTEyULl26yBtvvCHVqlWTt956S1q2bClnzpzJW8JkMkVCuVlZcnP9eklq2FBSvTZ422uzOUlJOu/W1q1yrVYtSfTaJH+TmzaVO/v26TxAmDFypMS/+KLEP/ecpHbrJjleO9Z5nuOS9tFHEvfEEzqfeUCwJIpq+PE6mslTJsvBQwfzphSs8+fPS9WqVaV79+6yf/9+2ecd4KNHj0q6d4A5AMFiGnB1XiV/8RQLeuM08wLl1kMcoCzvAgglPFA+2BQsjs3169fzfn0s6oTnah6rKRqU613HaQMGSNzTT0vs44/LVQ9USfXry60NG9Sry5w6Va7VqSO3Nm6U7MOHJfv4cYWld4HL9VmzJPG999RjvHv6tFyrV08yRo2S+167v7F8ucS/8ILcygNpStu2kta1q26vuIp6+E2dNlUOHT6UN6VgAb/3339fKxkotj937lxZsGCBvlsQrVmzRubMmaPwWbZsmf5/+PDhUt87acDzwoULuhw67Z2UPn36SJMmTaRz585y2DuBiO1Nnz5dZsyYodPr1q0r06ZN07Ab7d27V3r16iXNmjVTD3TlypX53xaYP3++tG7dWho1aiSLFy/W6dRz3bp16r029e6Obb2TjdcbCpwmU3nR3XPn5Jp37Wd5bejGqlUKK4863MUl17vWMydPloxx4/KW/li5AK19e0n3YOd03WujQO6O18bS+vWTlB498uZ4DsaWLXLNa993A9pmUfIN/AAWoS7wOnDggHp+p7w7Cgdg7dq1UqlSJdnqueCEwe95dxuAB1hq164tTz31lIwYMUKmTJmiIXOLFi3U+yKUBnr8nj17ttTx7mANGjSQuLg4We+5+T/5yU+kZs2aCkDg+eyzzyrkLl++rMu2a9dOFi1aJOPHj9flOZCzvLsd9WRbo0ePljfffFM2eHfJQ4cOKbwBJqBmne3bt4f0Wk2m8qKc5GRJ6dBBErzrOLl5c7np3cCdcm/c0NA14e239W+Gd03f8domuhcfL0mep3fdcwScbu/cqaHzTQ+iqf37S5bntDjdOXJEt3HbcyqKq6iGHxUvLvzICwKSpz33Gw+uRo0a6rHxVXcETKpUqSKvvPKK9O7dW+uGgB9wc5DBYwNCW7w7DRAChkwjHN22bZu8/vrrsnTpUlm9erU888wzsmPHDl0P4eGNHTtWw20Ax/Y5eE4JCQnqIQ4ePFi9TrxE4NqpUydZ7rn55CsnTpyYt7TJFB2657U9cnJXfv5ziffaH5DTnJ/XZgBa+sCBkubBLNnz9BKqV5cbXvu55zkIyV7kc9OLwpzu7N8v17y2e90DTarnBGR5joMTyye++67c9hyC4irq4EfODc8qMTFBsu9ky7Tp0+TY8WNy4+YNOXfubH7oGizCUEA1dOhQ9QL5TTnu40nABjB+97vfVY8QMQ8PLRA4MTEx0ty7gy1ZskT6ea73j370I4Uc0MSze+KJJ2SVd2fCACHbcQJiw4YN0/wfUKTsF198UWF77do1OXv2rJb1m9/8Rl5++WWd9/jjj0t776KgrgD1gw8+UC91yJAhuo7JFA3KZZTFgAGS0rq1AgxPD/ip+OsZuT6mJ3lOwm0PdMkffig3ly17sIwnQtvEWrUUjildu0rmpEl5c0RzhQmeQ0FIXFxFpee3d+8e6de/nxw8eFDDU7ywKVMny5Kli/M9tGC5nB85tFAinwZwfvazn2kIizg4AGqAd9IcJMnxASC8u1GjRqmnhieXjHufkqKeJMuuWLFCXn31VQWaUwfP/QdahOuIsHr37t1SyzuhPXv21PCWTpkJEyZIkndnxOhIccsjDjYhMl5qf+9uGdzRYjKVJ9332jc9sznejVrzfp7TQL7umhe+3g/RoXfDa5/JHvzw8tI8pyAzIB943fP0rnneIGBM95yIdM+RccKDTPSiubuec1JcRSX8qDTJ/q7dukj9BvWkZauWsnDhggJ7VNG5c+c07AVkzvMj94an6LxCcnPk5AALnhnbIUTGA9uzZ496X6wPoIAaOTfm0bGBF4YRXgNAOkqee+45haUTnRiEtCxHfejppc5Mo+MDmNM5QkcHuUfAFh8fr8sQAlNPeqdZD5ASjnPgTabyKqCX4YEq2btWr3lOQ4LXdhI9hwLvjbF5d7x2dWfvXoXWnUOHtEc3tWNHue9d8zc8BwJI3t61S3uC8QQJkYGpzvOWvc36x45JSps2ktqjR0igFqSohJ/Tho0bpNr778n4CeO0EoUJcJE/q1y5snzoHUQ6JvC2gNCYMWO0I4FODLw2vDO8Krw5QATEWrVqpeu89NJL6m0ilsVLIwzFQ2zcuLGGwpcuXdL8H7/5vxMhNz3LwJfttfFOGKEwnh/TORHHvBMJ1Bp6Jx0gsl06aAjFAR69vHSU1PNOPHnAgjxdk6k86L7nCNDDm+rd1ON//3sd5pJ98qTOy/VAleYBi+EseHt4dalee7ibN/aWTo9Uz/uj4yOxZk0tg8HOKMeLsjKGD5dEL5qjNxkDniVRVMMPAay7xSiDEBPoEGbisdGzi6dFaHnlypX8jg/EDuF5UTaQoTOE3mG8uUBPzok8ICBiiAzeJHlJPDWmB8KJDg1CY+dtksMjfA4eaE3+cZd3tyNE5y+/KYfwmnAao2yTKZqEB8d4vXx58KHjg55awlagCJACBTyzPYfgjtdW7wc7OJ7zwTq3vTYNDEuqqIdfJAXE6BWeFJBYNZlMDyEPNPoIWjlq7wa/QkTdCJXJ6ZlMpoolg18RorMhsLfVZDJVDBn8TCaTL2XwM5lMvpTBz2Qy+VIGP5PJ5EsZ/Ewmky9l8DOZTL6Uwc9kMvlSBj+TyeRLPXL48ZwrlTCZTKayFNwBXqG4VFwrFfwgr8HPZDKVtXgr0yOFHyu7F4WaTCZTWQiHizc9hWJSSaxU8MPM+zOZTGWpcHh9WKnhhxX07Q2TyWQKpwAfLysJxaGSWljgh1nnh8lkiqQYXRIu8GFhgx9GCAyZDYImkylcginhyPEFW1jhx+vk+QudASEVNjMzC6/Rtvxk4cjvhbKwws8ZEHQgNDMzC6+59uUXC3UMwmERgZ+ZmZlZeTeDn5mZmS/N4GdmZuZLM/iZmZn50gx+ZmZmvjSDn5mZmS/N4GdmZuZLM/iZmZn50gx+ZmZmvjSDn5mZmS/N4GdmZuZLM/iZmZn50gx+ZmZmvjSDn5mZmS/N4GdmZuZLM/iZmZn50gx+ZmZmvjSDn5mZmS/N4GdmZuZLM/iZmZn50gx+ZmZmvjSDn5mZmS/N4GdmZuZLM/iZmZn50gx+ZmZmvjSDn5mZmS/N4GdmZuZLK3P43blzR3Jzc9Wys7NDLhNOQ2zn9u3bkpOTozscarlI2L1798K2zbt375Z5/c3MKrKVGfzYEDBwG1u6dKlcuHBBbty48YkGXVDjfpjp2KxZs+TYsWNy5coV2bhxo1y7du0T64Ra360bap6zUPMD12O/du7cKevXr5fk5GSFr1smcB1nbr3g6axHWXv37pU1a9ZIUlLSQ5dlZmb2sdFGIg4/NkKD3bx5s9SqVUs+/PBDadasmQwePFhiYmLUq8Hw0Jy5xhs4jWVcw3br4Em6vyzPdtw8rFq1arJs2TI5ffq0jB49Ws6dO5dfVmDZgdujrOBynbGcW4d5bM9N4zd/gfz169dl3Lhx0qdPH7l06VJ+fdwybj23HVcmxnRXJmUBv+nTp0v37t21LOc1F1QWf/kdWG8zM7NPGm0k4vCjMaalpUn79u2ld+/eEh8frxulIaenp+v/L1++rJ7S8uXL5ezZs/nr4TXt2LFDp585c0YrnJWVpdA8fvy4go31KAcQsN7Jkyd1+d27d8vbb7+tXiYe04EDB7QebAsI4k0x7+DBgwor1sdDBNKsv2nTJt0m22O7DjCxsbGyYcMGWbJkidYVOFEenhlGGZQ3ceJE6d+/vy4PoA4dOqTb27Vrl9aXcln21KlTsm3bNlm9erVcvHhR94HlWQ9vde3atTJw4EDp2bOnTmMf2Df2ff/+/ZKRkaFGWRwTvE32lWkGQTOz0FZm8MvMzJS+fftK48aNFTbkrxDgGDJkiFStWlVat24tNWrUkPfee08bL8Dq0qWLNGjQQJo3b65eHI0d8L3yyitSs2ZNBerzzz+vXhYwWbBggc5r2LChepc//OEPZd26dQo6fgOXCRMmSOXKlaVJkya6PQAJ8Ci3TZs20rJlS93mz372M4VOYmKiwgiv6vDhw1o281kfYAFz9q1r167q2fL3/PnzMmXKFBkwYIAkJCTIihUrdF6LFi2kTp06MnPmTF2G9djfVq1a6TFo1KiR1oOUQNu2baV27drqKT/55JO6LjcDYMg89p35QBBIc2N57bXX9BizvdTUVK13qHNiZuZ3KxP4sRG8KkJPGiaNHC+G38CPRusaNssBF2CG91WpUiVZtGiRHD16VF5//XUZOnSo7Nu3T1544QXZsmWLAnTq1KkKgu3btyuQRo4cqdsFIq+++qp6Y3iHQAcPjfn169fX7TsoDxs2TBYuXKigwZsDWAAGT406Aj68tY8++ki3xXxCUvbt/v37+n88ykmTJmkd8NgmT56s5eLpAdV+/fophAn3ATnAZXqvXr20HGAIzPAC2Se2z8nBg+vRo4d06NBB4uLidJ+pCzcIbg4cE/7ftGlTDbPdcQw+D2ZmZh9bmcDPGd4ekCBkw2urW7euQg1AACTCOYS3BSCY/txzzykYaeR4SHhTwAFvDe8I4fkA01WrVmmZgIfGj8f5wQcfKPwAEMADMOT+nEfHARg+fLj+xqtjW926dZPOnTvr8keOHFHviXrj4ZF3oxMFaAJE1scbpYxBgwaph/r+++9r6An8Ro0aJStXrtT6Vq9eXTp27KgeKCDjOABewmO2AdiYR33xhgEe4GM/Zs+erfCk/swnnKbOgJbjBPyA6Jw5c/RYs07w8TczM/vYyhR+AAmIILwkAMiGaeiAg4aOOnXqpPADCoSngAuPDdgBHWDz5ptvqoeGyL0BJcJbQst58+YpmAj7qlSpoqEpZdSrV0/hAZAACTuOV4fnhEcHDIESYS+eJ7lGoIRRd8JwPKsRI0bk15VQGw+NdU6cOKGgwwMjNMULBIrAmPmE2+T32BfK4hjg9QJJTgQ5O2BGPhGgUS77AMjGjBmjdV68eLF6sNQPz5WwmmU5JtRt7ty5mm+0cNfMrHArE/jREIEW+Tg8GGDgPCvyf3gx5Ono0cSzA4p0NgAJGjoeDiEtHhcAxBsLhB9AoDw8N8BG6EjIDFB//OMfK0yAH15hUfDDM8NbdF4UgOIgYQAVkOLFAR/yapQLpMjzATxCYsJ6Bz/qTp3ZJnlC6ornRp3omAFYLOfgR1qA48N89n3s2LEa9lMn9pH9wjsEhuQNCZ+pO/ADpNTZ4GdmVrSVCfzYCJABHISUNF7CVMCHB4V3BHQAAYl/wMF6eIkAAi+wXbt26uUAL3o8p02bpnk3gETojMfFbzwqIAmE8Bwx5zUCX5YBpMAFr4rtkDsklKYMPD/ACHSAMx4b6+D5YdQXeOFp4qHu2bNHPTBASx3Hjx+f3wFBWAvICOcJmQE/5RPCUwb7QXjMctSDXB0ngn0GXtQJqFIfyiRHyMmivmwf6BHqu04gjhvhL8eaY+6Ov5mZ2aetTODnjEYJCAAU4SJwwyOkERP6UhHgQsPHqBzAYVnAwLzAsgLLdkaIyHopKSkl8oAQnQ8AjR5hYEW96H0lF0c9WI7y2AYdDsCTevCb/WCb/A61TVcv1sGoW/AygRa4HY6ZOx7OmM7xcOWGKsPMzKxgo92UGfzYGI0VozFjQINQF0+Oxuw6EQLXcyDgb+A093+WD1zHbcdtw81364Rans4YPD86LPBKCXvp+WVaMNBY3u2HK4f5bpuufGeFrRdqmcB5gcsHTw/cVqiyzMzMCjbaSpnBL5QBFrwsvKuCvLmyMLbNkxPk3cg3bt26Vf+Px2dAMTOrePbI4Yc57ybUvLI2YFeWL14wMzN7NFYu4GdmZmZW1mbwMzMz86UZ/MzMzHxpYYcfBdILSb6MnlszMzOzhzU3qiEUa0prYYUfwGPICA/6m0wmUzhE5yMgDDcEwwY/KmfQM5lMkRIQDOeokFLDjwIAn8lkMkVaADBcHmCp4QeJTSaTqawUrg95lQp+rOzeyGwymUxlIdJr4XgAoVTww/20PJ/JZCprhcP7KxX8rJPDZDI9CsGd0nZ+lAp+7q3MJpPJVJYy+JlMJl/K4GcymXwpg5/JZPKlDH4mk8mXMviZTCZfyuBnMpl8KYOfyWQqU2XnZsvV7GtyPefBFw+d7t3PUbvv/UO5Hpyu59yQ27kfP/7KPNa7lXs7b8rDK6rhR+X5/CLfvOVbvHyesjBRUT4NyYfK+d4tn34sjngQ2r1mC0OB/w+WW76kojweuTGZKqqA1ur0zdImpo9MSJgjKffSJeZOrDS52FVqnmstbS/1lSM3Tsnd+3dl0rV50iKmp4y8Ok3O377kgfGeTE1aKE0udJXB8RPlxM2zeaU+nGhvUQk/PlHJx7i/8pWvyD/8wz/I3/7t38oPf/hDmTFjxicAAoj4GPewYcPkd7/7nfzzP/+zfPGLX5S///u/l+9///v6eUm+/FaY+N7vrl279KPlfNSbv4cPH5ZLly7pwWO+gx314sPmfEScefx2kGVf+X4u4sBfu3ZN5yPAzYfDly9fruUBadYPhCjrFwRck6m8K9f7tzFjl7TxADf86hSZl7xcMu5lyalb56TblSHqDd7MvSV3c+/JzqwDMvTqZDlz66KsSd8qs5KXyoHrx2TytQUe9M7JuvRtMi5xlpb5sIpK+FFhvof7F3/xFwq0Ll26SIsWLRRmn//852Xs2LH5r8hiGw0aNJAvfOEL8rOf/Uzq168vffr00eV//OMfy2c+8xmpU6eOAqcgUcbs2bNlz5490qpVK93RefPmKQj5ROWiRYvk5MmTcuzYMZk7d6507NhRFi9eLBs2bNBlly5dqgA+dOiQLFy4UNavXy/79u3TMpiG5wr0xo0bp+ufO3dO192yZYv+5QPlfAIT4Nqrv0zRKry59enbpfnFHjLk6iQ5feu8Tj/pwazDpQGyOHWtHLl5UlI9b3BJ6jpZmbZZA+CjN0970JsvU68tlEUpqzUcPuWtOzR+kiTfTdUyHkZRCb8lS5aop/fWW29JUlJS3lRRiHzjG9+Qn//853L06FGdBiyAFN5YcFgMUH7/+9/Ll770JQVYQeIATZ8+XVasWCF9+/aV8ePHq4c5Z84c/Q1sR40aJZMmTZLt27cr1IBY//795cSJE7Jq1SoZPHiwDB06VK1Tp04yc+ZMLePUqVNazs6dOxWArHfmzBnd1qBBg2T06NGybNkynX78+PGHCqdNpvKilHtpGs7WPNtaelwZqp5d4t1kmZH0RxkUN149wPkpK+SPKWtlW+ZeD3S5HhzPy7Rri2RkwnQPkOt02vk7l2R84my5fKfwqK0wRR38WKdatWryrW99S72uQAEGvLq//uu/lilTpuRNLVwjRoxQDxIoFSQO0rp169Trw8MbMGCAQu/gwYPSr18/BSshK1DGOwSkwGr48OF6cPh4OeF1586dFXpHjhzRnCOwmz9/vkIOr44yqP/kyZO1zIEDB6r3Bzj5Px9FN5miXYS2y1M3SPtL/T2oLdRcntP2zP0e5KbJPA+AK9I2qLd46MYJzQ/OT1kpy9M2KvyOed7gEM/zu5Xz8B0fUQe/xMREDW+ffPLJkLm6jRs3yt/8zd9ImzZttGKFiZ0nZMaLxJsrTGwX74+DRf4P8OJVAjZCWTw4YEg5eIA7duxQYFIHgIlnhzcHFPFKmQb4qC/lUQahMuDkQLIu4TEhMMAElLz+y2SKVt25ny1bM/ZI58sDpc75dtIypqfsyTok1+6myGnPuzvreYHD4ifL/OQV2sFBXnBX5kGZ6XmFs5IWe15enIxJmCHbMvbJ4pQ1+v/SKOrgRycDHRyvvvpqyPwXXhVwfPPNN9W7Kkh0hACYr3/96/LLX/5SDhw4kDenYLE9DpgzROcKEKbXmfmE4XRq8H+3PPvoDnRCQoJ2cmRmZup6DtDk9ZiO9wrkKIN5eJKEzxcvXtTlTKZoFZ0TyXfTZFfWQZmetEh2e3/x+mI8qJHLI6e3KWO3Dm+hedHBMTtpmaxN3yaZOQ86DR9MW+J5hRsl7d6DzsKHlWuTobhUXCtT+O3du1c7L2rUqKEACxYe1U9/+lN57rnndEiLE5UkrCT/RkVbt24t3/3ud+Wpp57SToXyKvKSmOX6TBVVOfe9G36uByEvHA4W03O8MDdQd3KzvXC4ZNwIpaiDH0NI/vEf/1Fq1aoVEgh4hnRi0AtMB4ETAMEb/NznPqdGL+9Xv/pVGTNmjHpdJpPJX4o6+JEfA361a9cOCT9yZL/5zW/k6aefVi/Qic6CzZs3a/4MozOiUqVKOuYPKNIrG2nhqcbFxWlIy4E3mUyPTlEHP4DGAGWGuYQKexk3973vfU8qV66s3l5hIl/HsBO8wLZt2xb6xAe9r4zfA66sN2HCBO2ZBWbFFTnA9u3ba+dFQaLThDGINWvW1CEu5AXpUX7//fdl5cqV2lnSoUMHqV69unaYuG+gMFwGqLtB0yaTqXBFHfzY0Je//GX5wx/+ELKh06v6b//2bwoPnpIoSsCSTo9XXnmlwE4FIEvv8Te/+U2ZNm2ado78+te/1o4S8oj0+AJGhtfQ8QHcRo4cqTBicDO9xMxnuddee01efvllfTqFMYHBAMcDZRvA7r333pNu3brJu+++K1WqVNE8JweZcps0aSIvvviiPm1CJw8DuNlnjo/JVJ51z7uh31izRu6efzDIOcdrM9e9G3n6oEGSOW6cZOdNv3P4sGR47eiGd9P3SKXTss+elUzP8bi+ZInc98BVGkUd/AAe8HjssccUPMFiKMn/+3//T3r06FGsTgLgB9ReeuklBUkoUUfG2dE5QkcJeUL+D6BYHxjinRFG8zQH+UieHmEMIT21eKkMhAZshNgsh2dK6M4QmlBi7B9ead26dWXIkCE6TIbxjQAUTZw4UevCkBse3Xv++ef1t8HPVG4FbDygXatfX656zkZSgwZy14vkAFpSo0aSNWuW3Fy7VnK8NnHXcxpSvOs/y3Mc0r3r+6YHwBweB/X+n+VFOUAxy3MCSqOogx8VpuH/3d/9nfTu3Ttv6gMRAn7wwQfy7//+7xoiIgBY2MsCGNxM2Nu4cWMdfhJKhKssB3zwtoAegGvevLlCiTAV7wwgEw4zj7rhSTbyTiqDm6kH9Xv77bd1HCA5x3feeedTw3HITbIttrFt2zYdHE1ZQJ3lGfvHEyT16tXTHCbgA6bPPPOMGh1CJlN51H2vHd7wPLakpk0la/JkyaZD0msXADHZu3HfOXZMcnkKy4uG8OwyvXZy32PE7S1bJG3AAMny2sD1GTPkvgec2951nupFRcx/WEUd/BC5vN/+9rf6WBoQoVcXD4xc2F/+5V9Kw4YN8x9l41ExIEVIiofGb/J2PFuLt8azwHh+DDYuSMAPTwyI4bm98cYbCh22x/afffZZ9boInadOnarPEuP1EQKzDbxK/gIm4MxzwniPAIwwnWeCyTdyMgiRf/CDH6i3SFksR7hL2Atk+f2LX/xCPUcefQOE1IVwmuE9jAs0mcqr7hw9Kslt2kiS10YBIfDK9tpkSrt2kuZFaxmEvUeOyPUFC+SmFxqrt+itk+Fd9+mDB0uWd73f9+CY7UVRAPFeCXLuwYpK+CFgR97vT/7kTxRgQO+zn/2sVK1aVQHnRCj7xBNPqHfHMuQDGeLC/wmP6RkmVC2sHnhtjC8kzMbbwvviOWJAQ04PT7Rnz56ai2M6IKXjgoNLWEv+D1CyvFuX+hPCEtKS12M5tsOTIcCMx+col30Blnh/PEUCtFkHjxAQumeb6QiifI6pyVSeBbDSunaVazVrys1Vq8grKeTue5ERYW5anz6S4Xl9Nxl/64FO4Td+vKR7jsb1RYu0XWV71zvhcE4x8voFKWrhh+gJBTh0HgADHg8L9XYW3vVHbyjP5NLbSucF/+dRskedIyMPiJXmOJhMUSEPZHe9m3mmF4Wlel5eUuPGkkUYG5CWuuG14bSPPpIby5frcrleRHTLcybSvWk3162TjLFjJTcjQ257TkJqly5a5sMqquFnMpmiSISrnseW2r27JNauLZleZEPnBp4dIS05vFTPiSGkzUlLk7RBgyS5VStJ6dxZbntRDSDE2yNsTm7aVG6sWJFX8MPJ4GcymcpOHnDuJSTInSNHFGYoNz1dsk+dkmwPgoE5vJykJJ1Gz69TTmqqwpE8IZ0lpZHBz2Qy+VIGP5PJ5EsZ/Ewmky9l8DOZTL6Uwc9kMvlSBj+TyeRLGfxMJpMvZfAzmUy+lMHPZDL5UgY/k8nkSxn8TCaTL2XwM5lMvpTBz2Qy+VIGP5PJ5EsZ/Ewmky9l8DOZTL6Uwc9kMvlSBj+TyeRLGfxMJpMvZfAzmUy+lMHPZDL5UgY/k8nkSxn8TCaTL2XwM5lMvpTBz2Qy+VIGP5PJ5EsZ/Ewmky9l8DOZTL6Uwc9kMvlSBj+TyeRLGfxMJpMvZfAzmUy+lMHPZDL5UgY/k8nkSxn8TCaTL2XwM5lMvpTBz2Qy+VK+gF9ubq7cvXv3U5aTk5O3hMlk8psqLPyAW1ZWlqSkpGjlLl++LDExMfl26dIliY+Pl6SkJMnMzJTs7Oy8NU0mkx9U4eB3+/ZtBR6wO3PmjJw6dUrt9OnTIe3kyZP6FxgmJiYqMPEUTSZTxVaFgR/lpKamysWLF/OBB/yKaw6E586dUwiaJ2gyVWxVCPhRgbi4uHyIBYOtJOY8QjxHvEAOkMlkqniKevhdv35dc3gOWqGAVlJzZZ0/f169SQOgyVTxFNXwu3Hjhoa54YJesFHu2bNnFYCWBzSZKpaiFn6s6zy+UOAKlzkAZmRk5G3ZZDJVBEUl/BjGcuXKlYiDzxmdJ3iY1NdkMlUMRR38qDBDWUJBKpIGaBkXaAOjTaaKoaiDH5WNZJ6vIGN7DINhQDQHLZKi/Ehvw2Tyu6IKflSWJzLIwYUCVKSN8DeS3h9lz507V/r166c2Z84cHXNYmOiIoT4GS5OpZIoq+JHrK4tOjoKM7V64cEGH14Rb27dvlxdeeEFeeeUVBV+vXr2kdu3asnPnzrwlQgtvdOnSpXm/TCZTcRVV8CPkZOzdo4Qff5OTk/NqFB5x8N58801p166dDqwOFsfo0KFDMnXqVJk4caLs2bNHn0BJT09XUD799NMyYsQI2b9/v3qBLL9lyxYZP368LFu2TJdzAt7z5s2TSZMmqZe5aNEi3SfEcizPeuvWrdPjjRhSRAcTN55Vq1bJ7NmzZevWreqVOo+TG9OJEyd0OfNCTdGgqIIfjS0QRo/CCH15mqQk9S5KixcvVvjt2rUrb8onxTjDQYMGSb169aRu3bpSqVIlhRSgqVWrlnznO9+Rd999V0HGkBwAWaVKFalRo4Z6kv3799cySBdQRp06daRZs2bygx/8QF599VWFJs82d+7cWSpXrizvv/++VK1aVQYPHqww5mmXVq1a6bwPPvhA16Wcvn375gPy6NGjWhe8UBsTaQpW7v1cOXHznFzJjs+b8kA53vSsnBuSci9NLflumtzOvZM31wOU9+/YzTNy6MZxuZV7K2/qA+VIrhz35h24fkzu5Jb8cdSogR8NKjY29pF5fc7YPqBgp8MlvLZGjRppR04o4VUFem+dOnWSrl27avg9Y8YMXdfN37dvn7z99tuyYcMG/X3w4EEF1ooVK2TWrFkKLUCIgNeAAQMUYHiCQI/9Q3iXABUPEI8PGBKGA360Zs0aqV69ukIPsX79+vXz1zeZnIDWstQN8v7ZltI8pocsSV0rcdkJOm9X1kFpcrGrfHihq7SO6S09rgzzYPfgGkrPyZTRCTOk2cXuan1iR0ls9lWdl3zPcwjiJ0q98+2lw6WPpFfsCIm5HavziquogR/LleXYvoKM7Yc77zd69GgFGOWGEvu+d+9eGTlypILvqaee0hAZ4AG0QPjx+7e//a16fS1atFAv74c//KFMmzZNTxCe45EjR9Sjw4Pr2LGjerOU+9FHH+nFgNx8tsny/J+yneicYdqYMWO0E6p58+YybNiw/PVNJnQr97aMSpgmjc53UVABv6Hxk2Tv9SOe35YrM5L/KE09sG3O2CUHPe8O8GXcy5Q79+/InOSl0vBCR52Gtb/8kUy9tlC9vNXpW6T62RayN+uIXLh9WeHXP26sepHFVdTAj0ricZUH+LkhL+ESObS33npLIRMscnt4hnhzU6ZMUQjivXXo0EGBF+z5kRckPAVaCxcuzM/rcYIAVsOGDTUUxqtr2rSpHDt2TOFFWDtw4EB9JRji3ABGysF7BI6U50JaLhzqA/QIdQHtxo0bdZ7J5HT+1iVp4nl1kxLnqce3IWOH3PQ8QQBGeDvbAxxACxYhMF7gpGvz86aILE/bKJ0vD5LDN07K8KtTZHj85Lw5Itsy90l9D66X7jyITIqjqIEfjbKiwo8yAVK3bt3yIeaUkJCgXtzQoUPzpogCDK/LwY9w1HmiK1eu1DxeqPwhuTvAOWTIEIWe2wc6SQBfgwYN8ofW4GVXq1ZNgcd+t2/f/hPwQ0AR6L3++uvSvXt3vQhMpkCle17cgLhxUu/cg/B0edqDdAzCKxyTOFND2qnXFsjClFUKtnv370lCdpK0jOkly9LW5y0tsjvrkLS51FcBOix+ivwxZXXeHK8N3bwgtc+1lf3XH6RhiiODXwktEvBD5OTo9CAspXMDI49GSMqwF0A0fPhw7bx45plnFEaEptu2bdMhMi1btpTNmzfrMerRo4fm+Qhj6bSgA4QeauaxLHDEY2vdurV6huwL+wVUmzRpoqCl84Lf5PjI+VE+ywbCD6+UUPfb3/62eoEmUyjF3UmQgfHj5enj78i7Z5vKzOTFknA3yQt67yvQBnjhap/YkdI2pp/UONtKVngeXlx2orS/1F+2ZuzNK0XkyM1T0iamr6xK3ySD4yfK0tR1eXNEYr1tNDjfUfZcP5w3pWhFDfxoaHgu5QF+DLcJNSSltGKoCENXyNMBwcmTJ0taWpqGq0AMGBGGMozl+PHjekw4efPnz9fQd/r06eoBUrcJEyZoGZQFmCgDL5Hwlm0ALXp3n3jiCV0f0eFCJwjeIeB0HTDUAbACYi6YQDEQm5CdDhKTqSBl378rUzzvjrAVT29kwlT18IJFeOxC206XB8q69G15c0S2Z+6XZhe6y9r0rTLAg+mcpGV5c0TO3roodb2wl97f4ipq4EdoVl56e/GEqHs0iXAWz5IxfoHCw2Nc38MMT+EY0OuMZxqJm4GpYijnfo4X/mZ4Yeoa2Zq5VyZfm6deXXbu3bwlPtYiL5QFekdunta83rSAfOCqtM3SJQ+M4xNna0+w0/bMfdLkQjf1MourqIEfwnt51PDD+wHCeF3RJI41kHrjjTe0p5gODEJp8nx4kSURZTHOEA/xvffe004YkymUgFH/2LEaktY421LePN1AO0C2Z+33PL8c2Xf9qHpt5P8u34mXdl7oS4hMZ8jqtC3S6mIvOX3zvHZkEPKOT5ylnSWbMnZK65g+cuzGaUn0Qui+caNkYNx4uZlT/CFoUQU/wi/ybaGgVFYGfAOfbIgm4Z0RMhMS0yvMWEA6VEq6L4w7JNfI0BcGTptMBQlQMUiZkJdhKx/FjdX8HKLXt3/sGHnlZG157WRdee9MMxkRP1Xisx90ujHgecjViVLFAybzB8VNkNS7DzoEGdIyPWmRN6+hvHSipg6XuXj7is4rrqIKflT0UT/bC3yDe2RNJlPhwiNjLN+Jmx/fLHl6A48vzQuJAR09w3iDgSIvSMicei/9U/MYJ8g6DIuhnJIqquBHXorQNxSYysIIeel0ibaQ12QyfVpRBT9Eb+ajerkBIR4vUg13yEsOkcfEgCvj78jBEeIXVxxHembdY2smk6loRR388P7YWCg4RdKALePkIuH1kXtbvXp1/nbWr1+vQ0fIrRVHQG/Tpk2WfzOZSqCogx9iwDO5v2BARcoAEmAJ98BmJ14PhcfnhAe4Y8cOPbDsJ2PsDhw4oK+W4q0thP54inQ68CQGA5h5HyBw5nhyMgKfPWY+3jJPffDiAzo+WI59o2w8TUDLdJZjW7xCi/WoF+8UdE9+ANrdu3drD6/lPk3RrKiEHwICAKmswl8a/8OMhSuO6IHl+VsAxvOxPEYGADk+wIhtAzvAxfO/9LIePnxY/8/79eiEAWzUE5ABLtZ1wivktVksB1R5LI1eXl6kwBMcTGOANdMZCE25TGM4C9sHdkDy2rVr6pGePHlS60N9w/mCB5OpLBW18KPieCbAL1IAdGUDioetZ3EE/AAJkMOT43VReHUcWOBCnhGg4SECQGDGdDxR1gVETAOgy5cv1xcVBIrXUvHOPkRuEJDhRVIGx5AygR3bZNt41oARELMMgASueHuE5BwTtsn/nUdoMkWbohZ+iKc+3Dc9wg1AVx47Fune3eCwF9gCHgCDNwZ4gBqAIyTF++Kg4/2yLmDES1u7dq3mDjkegV4q67M/iM4VQEeIDMyALutQDsvxl/2lDkARSAI/lnXeIGEwnieA5ByaTNGoqIYfYgfIPRHSESoGQ+xhjHIACGAFsJEWUCO0pIeX0BIgASG8OmCHJ4bnBhAdhDh27DfrMo1lGYYD3PDeyAs6UR5hLWIZ1qeTBdgBUH5TDsuxDS4I1mc+nh/eKMBzYTPbwBulrOJ2yphM5U1RDz8nGimNsjReIOsBPjoZgEKkcnzBYruAB4gBOYAHeIEbnp8z9o2wleXdSQNqeGBMI4SlzuwD0xy42Tf3BmaW4Tf7CNwwgEY55PdYl3PC/rMttgPoAB/bYxlASIjMOgY/U7SqwsAPuUaLp+IgWBKjsQMHDkhZCkgBb2DH30BxjJjuQMZfgMOJw9hnjOkO1kwndOUvcvMRy7hjTkhL7y3lMZ1l3HKsyzT3162DOMaYyRTN4tquMPBzogHTsAkhyW3hreC5AERn/MbwgMhvueEfJpPJH6qQ8AuU81rYFoBzBhzxjpx3YzKZ/KUKDz+TyWQKJYOfyWTypQx+JpPJlzL4mUwmX8rgZzKZfCmDn8lk8qUMfiaTyZcy+JlMJl/K4GcymXwpg5/JZPKlDH4mk8mXMviZTCZfyuBnMpl8KYOfyWTypQx+JpPJlzL4mUwmX8rgZzKZfCmDn8lk8qUqPPzYQT7Qw05SUWd8DpLX2LsP9phMJn+pQsKPnQJufPWMjxPxNTc+5Rj4ASN+8/Eivk/Lpxn5pgff8zCZTP5QhYIfO8OnH6mM+74t36EN/kRloDEf40tufNs2MzPTIGgy+UAVBn6EsImJifkf3gZsgR8kL8ocCPEKgSB1M5lMFVcVAn58ipLv8zpvLhTcimuuDCBKOGxeoMlUMRXV8KPy5PXI35UWesFGeXiBBkCTqWIqquEH+ABUuMEXaJSfnJxsADSZKpiiEn5UmlDXdWqEgla4zHmAqampul2TyVQxFJXwo8IMU4k0+JzREUJozXAYk8lUMRR18KPCSUlJISEVSQO09AKXJkw3mUzlR1EHPzYWiQ6OosyFv+QZLfw1mR5emfeuy53c7LxfD3Tf+8e0m7m31G7n3pFcb1qg3PRQKmxeQYoq+FFZxvKFglNZGOFvbGysPi5nMplKpuz7d2VX5kEZEDdO5ievlMt34nVazv0c2Zq5VzpcGiBdLw+RrleGyNiEWZJyL13Xy8jJkjnJy6T9pf7SxZu/OWO3Tkc3POjNTloqLWN6Sc/YEbIqfZPcvV88pkQV/Mo61xdsbJfxfzwFYjKZiq/MnOsy5dp8ee9MM3nxRA2peqaR9IkbJbHZCZ7XdluGXJ0kzS72kA0ZO9T2XT+qntwdz6YnLZIG5zvKqrTNMiVpgTT3ljtx86x6izOTFkvNc61laeo6WZCySuqd76DrF0dRBT9CTuDzqOCHse1r165Z6GsylUD7PZjVONdKlqdulLXp2+TIzVPq0d31PL/ke6ky4upUWZy6Jm/pj3Xm1gVpFdNb/pjyYN4tD5QsO/bqTIm9c1W6Xxkms5OX6rw797NlnOcxdvM8xxwvaC5KUQU/XlIQCkhlaYS+dHzwOF0kdPnyZVm1apUaoLcQ21QRdOrWOalzrp0MjBuvsLp0Jy5vjkh89jXp5YWshLuLUlbLzsz9+fm7AzeOSZtLfeXQjRP6+54X0i5LXS89POjtyTok3S8Pyw+D8QTxDhud7yTXc4p+PDVq4Merp8i3PUqvD2P7PEpH3cMpvMn27dvL888/L7Vr15YPPvhA3nvvPdmzZ0/eEqHFekePHrVXc5nKtfDKgFats63l1ZN1pMvlwXLwxnEFFiExOb1esSOlf9wYaXihk7S71F/ivJAYj7HJhS5emHtGy8Gjo5xmF7vJxoydmifcmXlA56EdWfukzvk2Xjh9NW9KwYoa+FFJ9/xuKCiVlbF9ept5e0y4xL61bt1a3njjDVm9erW+ggsPEKilpaXpMryii0fteNqE/yOAt3TpUmnatKn2RHM8nfg/yzIYPFCsQ/qAeRkZGZq/dOUhfjMvcP94usUZ5THgO9QrwPBSzVM1FaajXrjb7cpQzeGRu9udddDDn3d9e55eVs4NNby8xhc6y4TEObI9c68X9vaSYzdP6/p0jgC/tjF9ZXPmbul4eaDs8DxFp62Ze7yyO0jy3QftpjBFDfxooOUFfrz+KpydHlu2bJEXX3xRlixZkjflk2JbgwcPlmeffVaeeeYZadiwoRw7dkyfcHnnnXfky1/+svzud7+TCRMm6DHdu3ev1KxZUx5//HF55ZVXZNmyZXqcAemAAQPktddeUw/zJz/5ibz00kuyfv16XW/BggXy+uuv63p4nYTeAA6Pe9y4cdKrVy+dXrlyZa3D9OnT88FJKqBHjx7565hMgcLDQ+T5yPlt9zy0LlcGy7jEWTo9WGMSZ8qAuLGyK+uAdL48SP8ienKnXVukYS+dHv08T3Fd+nadh+j4oOfXba8wGfxKaJGA38SJE6Vu3brqvYUS3tbBgwfV4+J4NW/eXPr376/TR4wYIe+++64cOHBA64RXWqdOHZk0aZJ6bwsXLpT69evL7t27Zf78+Z9YFo+xT58+uhweZJUqVXR5YDd16lSpUaOGHDlyRD3RqlWrKjDxTAEddSY8x0NFgLt69epFhukmf+pqdqLMT14hw+OneCFtP+l+ZYh6fusztuv4vsS7Sfnj+s7djvHC2u4yO2mJ5gMHx0+U0Qkz1OvjN97erKTFkn4vU4bET9JQ+UEZydrZMSphupZTlAx+JbRIwG/YsGHSuHFj9eQKEiHqrl27FDLVqlWTDh06aPg6e/ZsXZf5iJMApPAUFy1aJKNGjZLf/OY3CsMZM2ZIkyZN8kPp7t27S8uWLXW/evfurb85J4gQu169egq5EydO6P/x/pzo+AGybINz07lzZ13flW0yBSreg9/YhJleONtFKp2qo2Hr3utHdB7QGuIBjk6P/p63R+8uQEvJC133Zh1WYPaNHeV5gQOlXUy//A6TAzeOS9tL/aXr5cHaMUK5jB8sjqIGfvSu4mWUB/iFO+c3ZcoUqVWrlpYfLELIjRs3SrNmzaRLly754W+7du0UeDNnztQQ1EEHj+0Pf/iDhr2tWrVS2DVo0EBD4ePHj+t2PvzwQ+nUqZN6c8ALT49lKZuTifAqO3bsKMOHD1dPkf/jObqQlotm0KBBCuH9+/frdijLZCpM2fezZZ8HvaS7KXlTHkwDYhMT53oe3nTPG9whd+5/Mnd8/vZlmZa0UP6YslqS76bmTX0QTp+5dVGmXluovchxHmSLq6iBn8s9lQf44YG6XFc4tG3bNnnhhRdk3rx5eVM+Ft4dXhdwYqgPAoJt2rRR4OHNAT/n+c2dO1fefvttOXTokB5bOiDcMebpGEJmygK4QA1xHvDcAKJ7eQOeLZAEpkAT+AG3wHzehg0bFHpt27bV+Rwbk6kwEbrezLlV7KcwIqmogR8qL+P8gHA4x/kBJcJP8nErV67U33xYid5e8oCEtYSl7D9e4BNPPKFgAlCEwXRgrFixQkNVQEXujY4NIM2JoXMEqOGxvvnmmwo61tu0aZNuB6CtXbtWoTlnzhzN6dF5wrLkGnmqBmAC50D4kYMkZ/i9731Pc48lOZcm06NWVMEP76YiPuFBZwTwobOBIS90NOAJdu3aVd9gA9Dw/ujRJYQFbHRQcOyoS7du3RSAQ4cOVSC55X/xi19oz23Pnj0VnDt27NDe4UqVKikgWYde5p07d+oQGMBLKAxcASGdG4g6jBkzRsEbLHp8qdeaNZ8enW8ylWdFFfzwtiris70MdTl58mTeL1FPjeEnhLWAh95WjO3iwWF4h+RAyT0CPMBEHRHH1S2Hkb+j3o0aNdKODzcWDw+WzpMhQ4boeQCAlMuyHGfK4TfLUQ4i3MdbZCwgF87o0aM1BGeayRRNiir4IRpZMJTKygh5gVC4B/Ju3bpVPT88NnJ1DmSAjY4KwlPya4TAgAmPjGmMqWNdjgneI3UDWoSqgR0y+/btk+XLl2uozDg9cneM/aMTBQ+PXlw8QwCMR4knSFi8ePFi3S4eoSvz8OHDGmKTM2RcH54i4wPD6QmbTGWhqIMfHsijCH3ZHvDBywq38PwADL2mdH4AILYXmFcEPuvWrVOQAT9SABwL1gXKQBCoEX7iLQaK9YAoBrDwAMnhMWiZbbEu5W7fvl3rwQllOA8AZDvAFSACZrbNWD5yfIB08uTJeh5NpmhT1MGPhPuj6PgARkCgpPUtjoBPYNhLmOk8OqYz0BjPcPPmzQpBIEb4CZiAJfPx0qZNm6bA4mQEivGB7AMijAWQeJmE13Sq4GmyPZajPKBLGcCYc0Q92CbzgCPwI39IXbh4TKZoVNTBD5X1gGe243JgkRBQAzTsF+DB6wJGQAmPy728AM8MDw3wUBeGwbh1gSMeILBkvcDBxizv4EpoTIhMOZTNiQNiLEP5hNNcEC6UxrtkHcDI0BjCYH6TR6R32V6oYIpWRSX8EPmnsnidvSufcDdwmEc4BWQIP/GsgBneFQAkzAaCQIccHf/HW+M3Bx0A4YUBRv4CLOCJl0adHZhYnvIQywBLcneB4ARuQJC/lAFwWYZzxMkl5KWTg/kAElDy5Ie9yMAUrYpa+CF6P2nUeDyBwAqXOfABgkiEu04AhH3Bkws+Jq43l4PsBixzwgAxJw9Q4TFiDnb8pRwHa+Y5SLE+v1mX7eEhUgbTXVnMw1iHv5Tn1uf/rIO57ZlM0Siu7aiFH4rU2D9XHp0H1shNpoqnqIcfwmsiBxgMsIc1wAdQ8W4iFeqaTKZHqwoBP0TIRk8mYTDwKqkn6NYhz0ZejLqZTKaKqwoDP4SX5ioDBAOhVpixHMvzTCs5NgtzTaaKrwoFPye3UyT0qRjvyaNnmFDWGb8xxtQR3rITFuKaTP5RhYRfsNhJeitdr6jr/TTYmUz+lS/gZzKZTMEy+JlMJl/K4GcymXwpg5/JZPKlDH4mk8mXMviZTCZfyuBnMpl8KYOfyWTypQx+JpPJlzL4mUwmX8rgZzKZfCmDn8lk8qUMfiaTyZcy+JlMJl/KV/BjZ52ZTCZ/q8LCjx3jvX18+YzK8a3Zy5cv5xu/mc63Z/k2rb292WTylyoc/CiPNzgDON7YzDc5eFU9n7cMtsBX2PMBJEDIt0BMJlPFV4WBH29lBnruK27B3+gozAKX45X3QNB9p9ZkMlVMVQj4sQNUwIEsEGwlNQdCwmJ2zGQyVUxFPfzI1+HtlRZ6wUZ5eIF8FJ2DZDKZKpaiGn6AD0CFG3zOyAuSDyScNgCaTBVLUQs/NhoTExMx8DkDgHSc8D1fk8lUcRSV8GNYChuMNPicAUB6jzlQJpOpYigq4ZecnKxDWEKBKhLmIJuYmGjjAU2mCqKogx/j8MjzBQMq0gYAyf9lZmbm1cRkMpVUud6/27l3JOd+bt6UR6eog19Ze32BBgDj4uIeOk9ZlNi3uXPnSt++faV///4yffp0iY+Pz5trMkW/0u9lyJr0rXLudkzeFA9C3r/YbA8gqWtkVtIStZVpmyQz50Ge/Z7kyPas/dIndqSMSZgpZ299ct1dWQek55VhMvzqVDkbUG5Riir4sWwkhrUU18j94XXSyxxu7d27V959912pWrWqtGvXTq1t27Zy5MiRvCVCi/qsW7fOnkwxlWvdu58j2zL3Sb3z7eXlk7Wk+tnm8lH8WIm9c1Xnjb82V94+00T6x42VjzybnrRI0nOyPD/xvqxK3yz1z3eUofGTpOPlAdL8Yg+5dDtOy92WtU8+ONtSulweJAPixkmHS/3l6I1TOq8oRRX8srKytOf1UcHPGR4aBy5corx33nlH3nvvPTl58mTe1Af7y8lhW4TbABLQOW+Qp1pGjx4tr7/+uqxcuVIHZrucJB00GzZs0FA9sK6Ae+fOnbJ+/XrZs2ePHDx4UK5du6bzKO/EiROyZs0aOXbsmG4b8Yw0yzDmkfK2bdum83lu2pXNX+rFhWB5UVOw8PSaXOgqvT3vbVD8BIXbTs9jy8jJ9CCXKSM8r21K4nxdlisKjw5dzU6UXrEjZFrSQv2d5nmO3a4M8ZZdINfupui8wXETdB7h9GCv7GHxk/V3UeKajRr40QBDwagsDe+PRh7O0Hf16tXy6quvyvbt2/OmfFKE2i1atJBatWqpd/j73/9eIchN4M0335RvfOMbUrlyZZk9e7YCaerUqfLWW29JgwYN9O+IESP0WHOSWrVqpdObNm0qP/nJT3Q9AEhnTqdOnbS8OnXqyCuvvCIDBgxQWAJV/l+9enVdnnWbN2+uoTlARBcuXJAmTZrIsmXLPgFbkwntv35Uap1rI0tT18vK9E0S70HN6erdazIwbrxMv7ZQUu6ly/WcjyOrozdPSWfPqztw/Zj+vnf/rsxNXiY9vDB3X9YR6XR5oGzK2KnzuO6WeeU3vtBFsu4VPTQtauBHRYHAo/b6gB8wwBsKl4YNGyZ169ZVgIQS++6OE3+bNWsmvXv3Vs9w4sSJUrt2bR3zyInct2+fepF4b3hyW7ZsUWjhGQLHevXqaahMmNymTRsNrfE858yZI9WqVZMDBw4o8FgP0G7atEnLpkzKIQxnPmUxHw8QLViwQPfh8OHD+ttkClSqBzU8vkqn6kg1L+SdnbREkjzPDeHB9YkdJTXPtZamF7tJq5heMi95udzMva3QbBbTQ47fPK3L5ngh8vLUDdIupq9sytwtHS8NkB2Z+3Ue2pq5R2p7kI3LTsibUrCiBn68aIBQ7lHDj+2HO+83ZMgQ9ZqATEE6fvy4LFy4UKHz9ttvS8eOHdXr4nfjxo3zPbBZs2bJs88+K+3bt9eQuHPnzvKzn/1MvUE6U95//30FOCetdevW0qtXL00l4PX16NFDzwliUDeQHT58uAINz3PGjBk6D8XGxqr3N3nyZN029WE/bDC4qSDdvX9PVqdvkTrn28qbp+t74PpITt86r/MSspPkxK1zcubWBVmculbePdNU5iYtk93XD0rLmJ7evLO6HL3FwK/5xe6yLmO7tI3pJzszD+g8tCNrn9Q+30Y7UIpS1MAPT+tRdnY4Y/vhHvIyc+ZMBRpQChbQJ5QkFAVGffr0kZdfflk7RHjsjnUbNWokaWlpujyQe+mllxSIHTp0UGMdyuYkATFCW8JfPD/yfoS8lDd06FA9mQi4A9CBAweqNwlEOcF4k4i/48aNU4Di9bG9zZs36zyTqSBl5GTJ2oxtssXz2lp73tvohOl5cz4WHSBD4idJX88b3Jq5Vzpe/kg9wAfz7snClFXS6dJA2ZN1WLpdGSpbMnbrPPKEq9M2SxMv7CX/V5QMfiW0SMCPcp9//nkZNGjQp44Hr9fCW8OrcgJaLVu2VODhjRFukutDgNKFwcEivMXTwwiDKRuxTSAHEB1EOaE1atRQzxJwAkIg5+CH6IABflWqVNG/hXmuJn+LXN7WjD2yPXOfdnZMvDZXGp7vJEs8Ly9Y2fezpW/caAUgniCdGoTJ6EbOTel+ZZgMiZuo3uKguAkyJXGezruTe1dGeTDtGztafxclg18JLRLwQ+TcnnjiCfnwww81PJ02bZp6dWwPrwugAbbx48fL008/rTCiDkDshRdeUHCSfyMcxUMkH8c4wXnz5inAOEHMw8PE8AgJdcnpoaNHj2peD6gCOTzE+vXra6oBqAHcYPhxTgDpf/zHf8ioUaOsl9dUoK7cuSq9r4yUd858KC+frCl1z7fTcX3A7Gr2NR2jNy5hlsxJXqawq3u+vRy8flw9vRVpG6X++Q4yPnGO9POgWOdcOzl766J6eqs8T4+yhl2drDlFhr0EhsGFyeBXQmP75MjobAingAq9vT179lQAYsCL0DYpKUnzd4BpwoQJsnTpUl2WA49x4IHVokWLtCMjISFBxowZo94YIASk9FDTOUKnRvfu3TXEZf6LL76onSMIeAIztk2uj9wmwkNctWqVzueCCRR1ZIgOHSUmU0GiowLvb3fWQRmXOOsTgGL4yqLU1TLGg99QD2Kzk5fIxduX8+Z63l7uLdmYsVOHwwDIwEHOeInbvNCY9Zi/M3O/bqs4ihr4sRy9rOUBfnhC1D0SAoIOaoGeFCeKbRbkXXESgwc6c8Nw5XCC3njjDQWhE1BlUDWdFk4sy3YCPbzC1LVrV/UgXYeLyVSY8OQYu3c799OjJYDW3fsFv0GdXGBuAY/FsW5xoecUNfCjongvjxp+5L8IHzlo0SRCZCBF+IwXOWnSJA19CW1LOjwFqDKAGm/TDYcxmaJNUQM/RFL/UT3X6wz40TtaXM+oPAnvDC+vYcOGOtB55MiRD9VJwXmjV5mhLgzQjsZjYTJFFfxYnoHAj8r7Y7vA1/WImkym6FVUwQ8Pg9A3FJjKwvD6IvlSU04GZjKZIq+ogh/iCYJH8XIDt73Ah/nDJQ4ePak8OsaTHCV9dpgcHHlIeoZNJlPxFHXwc95fWcMPr4+hNpF4ddTWrVtlx44d+uIGnl+mA4GnKoo7bg7o8aaVgp4NNplMn1bUwQ/x6BXeXyhIRcJcri9SX3HjJQKBr7Li/zwqRg+tC/Pd88QYHS6AjumMwcMbBX4sAzCBKMfWiTGJeIbsAwDnkTlOmhs36V504DxIji3T6CBheBGDut1QFspiHhbugd4mU1kqKuFHpcuq5xc4YJH8fgfwW758ub5aavfu3dqDCoAAHdN4/x7TeJyM0JgnLdauXavTeC8fPbYsAxAJmwFhYAiMJ8nJYfqKFSv0nX2M8Tt06JAOlmYAM/vKtnhcjuWXLFmi6zCfulE+oN21a5eW47xVzqHJFI2KSvghwl+AFAyrcBvhLt4X3lKkBPyAEmAj3AU+eFtuCAnbBjqAjvmMsQOMHD+WZT3K4FE2wMgTHoHi3X+ADuHtsQ5eHiKHCuAAGsaybA+gUie2Q3lsH/guXrxY9u/frzDkhBOmm0zRqKiFH2JdFxZGIgdImTTuSOT5AoUXBWSdgI0LhYEMcOMvcOIxMt7EwkEnFGVdPDYeecN4VI0e6UABLvYFEdYCO+AGECkPmFI2y1Ee+8sJBXKcI44B4KMOLIt3yfHBO7XQ1xStimr4IUJR3lbieoBLC8HAMoBQJD0+Jzwxwl1AwjFh+0AILwzgsH+AauPGjQohF24S2rIu3iDLEvYCPv6PV8zJRSxPqIuYD/woHyM/CFxZhulsgwuCmwp1wjMk70c9ADSABIakHQBpWRwfkykSinr4OZGIp2EDDhrpw0DQrQdEaNxl9eQC8OKlBOTxgA8GcNgfOj6AFDk4AIQ3yBtYCFsBE54b0/D+gDXHE1ACOwcm4EYHBWIZHmdjfymXMvlLOSyHt4fnR06Q4TecXEDK/znGHCPqSQiOB2jwM0WrKgz8EGWRlCev5WBWGAiZjgEP/gIIGj0H5FGIk+G8NSf2ifpEAsR4zQ/TiQPwAGRwXU2maFKFgp8TjZOQEC8HENJ54CDnDCjSW0zuizAOaLpOAJPJVPFVIeEXKDwUeizJpwFEZ3QWEDZGyqsymUzlWxUefiaTyRRKBj+TyeRLGfxMJpMvZfAzmUy+lMHPZDL5UgY/k8nkSxn8TCaTL2XwM5lMvpTBz2Qy+VIGP5PJ5EsZ/Ewmky9l8DOZTL6Uwc9kMvlSBj+TyeRLGfxMJpMv5Sv4sbO8u4+/JpPJ36rQ8ONFpnx3gu9x8Hp6vkVBRfnLb6bzklPe4GxANJn8pQoHP3YIoAE49y0P99r6YAv8dgevsucNz5H6MLnJZCpfqlDww8sDYnybwwEv+KNFocx934P1+GqaQdBkqviqEPCjDMJYvt0L8IBZKMgVZazH+kCQHeLAmEymiqmohx95PT6w7eAVDLSHMcrBCJv5+JHJZKp4imr4Ab7Y2NiwQS/YKJdPWxoATaaKp6iFH+uR34sU+JwZAE2miqmohB9j9ejNDQWrSBh5QDpC+Bi6yWSqGIpK+DGU5dy5cyFBFSmjEyQ5Odk+cG4yVRBFHfzI812+fDkkoCJphL8XLlzQOkdKgDUhIUGOHj0qJ06cUO/2YdMCJlN5VGbOdTl685Qk303Nm/JAd+/fk/R7mZLkTcfS7mVIzv2Ph5vdzL0tl27HScLdZF02UNdzbsr5W5flcna8ZN8vfnQWdfDjqYyy9vqcAUCAFAnvLyMjQwYMGCBPPfWUPPPMM/LEE09I1apV5dChQ3lLhBbrAWWTqTwLkF24fVmGxk+S9882lx6xw2Rjxk65mXNLbufekXGJs+Tp4+9IpZN1pNKpOtIqppdczb4m971/J2+dk+YxPeSNU/Wl+pnmMvLqVA+Gt7TcwzdOSt1z7eXlEzXlzdMNZIhXfnpOls4rSlEFPwYek3sLBaayMHJ/dH6ww+EUx6Bbt27yzjvvyNatW/WE0MHCNoE9YhpPolAHjhtivblz50rjxo3lwIEDkpKSoicUAcVjx47p+MdgUQ6eJcfSDep2Ynm24baL2A77DPSZz82HmwB1ChSDzK9fv55fB5PJ6fztS9LsYneFV8MLnaTz5YEeqCZKzJ1Y9fJ6x46UMQkzFYRY9v1sBd+1eynSP36MfBQ3Rr3GYzfPSPuY/rI2fZt6fIO9MvrGjpIb3v/P3roo7WL6yfyUFXlbLVxRBT8aF15OpHt4CzK2S+4vEAzh0J49e+T111+XjRs35k35pIDTuHHjpEWLFlKzZk1p3759/tMo1atXl+9+97s6nRPAyTh8+LAuU6dOHWnevLls2LBBj3NaWppMmTJFmjVrJh9++KG88cYb0qhRIwUn6YRly5ZJ06ZNpV69eroM63HD4eTOmjVLBg4cqPNbtWolXbp0kUWLFul6iGX69Omj6xj8TMHae/2wtInpKzuzDsiilFUKQ6crd+JlyNVJukywgF3XK4Pl4PVj+hswjk+cLQPix8l+b1q7S/1lXcY2nUc4PD1pkQfWAd7/iw5/owp+eB00+lBgKivDK2JQdUnqXZTGjBmjwMGjCiW8uLVr18revXtl37598tZbbymIyA/27NlTKlWqpODCK+Uxvbp160rfvn3l+PHjMnz4cAUj4fPq1at13RUrVqjn9/777yv8GDJE+cwbNWqU7N69WwYNGiTvvvuulgdk8Uqff/55mT59usKS5YArNwS0ePFiefvtt2XHjh3622QK1CXPw2vreWU1zrbyQtrecsQLV50ue/BrcrGrvH26iQJyyNWJctyDHtqSuUdDXvf7nge4xalrpMvlQbI+Y4d09DzIgzeO6zxgtjpti7S82EvzhkUpauBHRctiXF9RxvbpcOFNMOHSiBEj1EPjiZLCRG/zwYMH1Svr2rWresLz5s1Tb8zVZ86cOfLcc8/JpEmT1KNk/rPPPitTp05Vr69JkybqAaL+/furB8djgd27d5dOnTrlj2ekbMLpmTNn6j7XqFFDhg0bpvMQ0wA2J51zSFl4fuH2ik0VQ4Swp2+e13D3iWNVpPLp+jLl2nzJuJel3tz+60dlbvJymZH0R+l6eYjUP99Btmfuk+WpG/X/x24+uMnm3s+VVembpdOlAbLBg1/PKyPk+I2P5y1JWSd1z7WThOxPp3uCFTXwYzk8kPIAP3Jm4Rz0PG3aNPXW8GqDxQnCawM0GJDCAyOsJRwGTg0bNsyHDoB78sknNRwGinh2H3zwgWzfvl09NrwzIDdy5EgNe4EjHmTr1q3Vm+RkIs4Nyw0ePFi9zY4dO8rChQu1PgjYArwePXpouWxryZIl+fNNplCKvXNVhsZPlqFemNv0Qnf14oKVlXNd+sSOlImJc2Vb5l7p6IHuRJ7nl517V+YkLZUOMf1lU8ZO6X5lmBy9cUrn5XrX3qq0zdLa8yzT72XotMIUNfCjseEZlQf44SnhGYVLwOWVV17RHFqwGNPYoEEDhROQIsfWtm1bNTw4wImHxrFEAIrwFa+PE8vyrneaTgqgybp4guQGEesyrV27dvkeJGAFaJRP+AwIqV9gTzc5Stbr0KGDlsvxMZlC6U5utly7myKHbpyQCR7UlqSs9cLT3jLZ8/6CBZTGJs7SeUdunpK+caNk9/WDOu+2Vw49usOvTpEzty6ql7gsdb3OQ/OTV0ifKyPV0yxKBr8SGtsnNweUwiWOAXD59a9/rbm0/fv3K7z4i5dJzo6wGA9w586dmuMDTOQCAdLLL7+sOTc8Y3KS5Oooj/UBHKEy9WW+mzd//nzNAQJygMbJI683Y8YMXY8Ql+2Q/2MZtk9IHQg/l3N87LHHZMiQIfmdHyZTsM7dipEenpf24YVu8s6ZJlL9TDPpHzdG4rITJOVummzJ2K15PYbDLEheKbXPt9WwFi+QDg48PObj2TW92E22Ze3VcHly4nxpG9NXh7ysz9gm9c61l5Vpm/K2WrgMfiW0SMAP4cWRMwNkhKyAqHPnzgo/PCxyboTGhJ+9evVS2HFMOPD0vlapUkVDYOrFcJlatWpphwZ/KYd6A0JCZHKCL730kvzud79TjxPQAi56dNkO2ydcXr58eX5v7+TJk7UzIzisnThxojz++OOyatWqvCkm06d1I/emHL5+UiYlzpPGFzrLrKTFOg2dvnXB8+AGS4uYntoZ0uhCJ5mdvES9RcRwmBFXp+q8Fhd7ysKUlZIjD27CsXcSFKLkBZtc6CKjr87wgFm8lJTBr4QWKfg5kbvDeyP/x5g5Jzo72K4LSzlxDkQcQyBJWOvENHp/GRrEOowBpLODnKATHUh4d/QIu7IId9nHwG0DQOAY6gWveIiEvIHbNpkK0q2c23Lyptd+PI8uUAyCPns7RvZdP+LN+3RKieuT4THxHuyCdc9bF4DyBEhJFDXwY7mK2uFRFgKqhM/k9QifGeoyduxYqVy5soa/geFsUQoc+4fHSQhtMkWbogZ+iI08avjhlQFhDlo0CbjRK0vvbLVq1RSEPFVCKFvSfQH8dJgwzo8hNeQeTaZoU1TBj9CvPAxyZmdDhYDRIE4WHRUYx/9hBEgBHnnKkniMJlN5UlTBD4/jUT7ehgFfG8hrMkW/ogp+eBmEnKGgVBaG10enS7hDXjpPeGoEsLMdOg84McUVxxBPjBNhMpmKp6iCHyLUotezrL0/tocBpnCHegw12bRpk3ZCHDlyRP/PNosLQMDHeDx6d00mU/EUdfDjVfJ4SY8CfpF4nRXavHmzPkXhxKuotmzZokNUOD680IFQm5PljCdM3CusGJ7C8u69fuQjme7E/zluLMd6bh77Qtlu2A5QZ0gLMMVYjmWYH1gev6mP5ftM0Syu6aiCH6IBl6X357YT+L68cApw0esKiOjUwYvDA8TLxSvctm2beoPAl/1euXKlrF+/XtatW6cDmvmCHU9+MJ/1gWfg43eUx8lhOwxrIW/JCaNsnvmlPMJ59pHhK7zhhbfE8PYXymc7vF2a88UwGeqK8X97qsMUrYpK+OFxAIpAMEXSyPUxIDhSHzACSjyTC+TwAnmygv3Cg6OTB+jyOivm8RwwT1NwwDGmUT8gxZMg/OaVW4FeGcBjHmWxLMDj/5w4YMl2ASRluBcdADteVEBZwJJl8E6pK78J0YHktWvX8rZiMkWXohJ+iPXYaKTh5zo52MlICeg4Lwrg4cEBG8BDKIsXuHTpUlmzZo2O1QNUhMR4dyzHusxnzB0nIRhIu3bt0uOEgDjr4FUCOWDKOkCT5agLkGfbbIf95v/Al3lAmnpggJCbkMkUjYpa+CEaKRsGUpGAIGVGGnwIiOBJOQE8vCq8NcJL9tMBEVgR4nLsyMuxLkDkDcp4ZNSZdQIfv2N5XkqKyJcyH9CxHhBlngtlgSAXBMeVsBgPkR52QMgLD/Aa3aNvrGt5P1O0Kqrhh1gfD8bBKhhgD2OUg5FLo4FHWsCJ/Bpgw8sjn8dLCPA6HfDIu7Ec8/nNQQdwAAvPj3l4ddSXaYDQgYnlyRUilsGLA2SAjnXJJzq4AUU8UHq1eRsM5wjPD1ASIvMXD5DlqV9pz5/J9KgU9fBDhIr0ZPLqJQeuUFAryliPBg0oCB0jleMLFh4c3h7A4i8wZ5+AF7CibnigwA6vi7/M49i5Hlz+OlBzQpjm4MfyznvlZPMbjw64u+0xjXVc2QCQ39SDdfg/Fwvl8Gwzx4hlTaZoVYWAnxONH48FCDqYFQbDwPkY8AE2gIEDYzKZKq4qFPyQ2yFCNLwlQAjUgmHHb6YzH08G74f6OG/JZDJVbFU4+AUKkOENEhLSK0koS0UxfjOdOhDamUwmf6lCw89kMpkKksHPZDL5UgY/k8nkSxn8TCaTL2XwM5lMvpTBz2Qy+VIGP5PJ5EsZ/Ewmky9l8DOZTL6Uwc9kMvlSBj+TyeRLGfxMJpMvZfAzmUy+lMHPZDL5UgY/k8nkSxn8TCaTL+Ur+LGzgWYymfyrCg0/yqZyfGiHD3/zJmdngW9y5mM99vp6k8lfqnDwA2KUyzc8+EZtqA8VBRrzA79gZmG4yeQPVSj4uYrwYSI+xO3gVpSxHJ+s5C8f6AaCFhabTBVbFQJ+eHuEtXhwDmKhIFccY33giSdIOGwymSqmoh5+VD4+Pl6BVxroBZrzBPEC3YfAy1KcFPM8TabIKqrhB5hiY2NL7e0VZJTJN32vX7+et8XIio6Y+fPnS79+/dQ4oHi0hQmvl09vGixNppIpauF39+5dBV8oaIXTACsdJ5H2AHft2iVVqlSRF198Ubp37y69evWSunXr6vTCxEfXlyxZkvfLZDIVV1EJPyrNUJVIeHuhjO0AWoAbCZFfrFy5sjRr1ky9v2Cx3cOHD8vcuXNl1qxZcvToUfX4GKrTt29fefbZZ2Xq1Kk6HS+QY7pt2zaZMWOGbNiw4ROeK3nRefPmybRp02TBggWyaNEizXEiylu5cqXO27hxo3b8IE5wYmKiHoP169fL4sWLZf/+/XoOAocIxcTEaAoicJrJFKh79+/J1exrcvf+p9tSdm623My99cBybkvu/Y+vo3v3cyTmTqyk3kvPm/Kxcr1/sXcSJOlu4VFSsKISfllZWdpgQ4EqEuYgy/CZSISXwOTNN9+U3bt35035pAh9hwwZIq1atZL69esrKNeuXaswqlGjhjz22GPy4YcfyurVqyUjI0PGjx8vb7zxhjRq1Ejee+89XTctLU3h1KBBA6lTp46C9kc/+pG88sorsnfvXrl06ZJ06NBBy65Xr55UrVpVBgwYoMea7eCNvvPOO1KtWjVp3769tG7dWj766KN8QHJ8mjdvLqtWrTL4mUIq2wPekpR10vBCZ5mUOE/O3Y7xpmV7ILwnG9J3SNtLfaXrlcHS7coQGZcwS1LvPgDdhdtXZGDceGkZ00vaecusSt/k4e5BO8zIyZIJiXOk2cUe0vnyQFmQslIhWhxFHfzwgghDy8rrc8b28Joikf8bMWKEgor8YijR64xX5gToANWNGzfUu2vYsGF+bhCP7K233lIQut/vv/++rFixQj0+4Jeamqrz+vTpI/37988HJmE33iPasWOHlrNu3Tqt19tvvy21atXSY4CAXPXq1eXIkSP6G88TqJ44cUJ/m0yBSr6bKiMTpkm1M82l6pnGHqy6y9RrCzxPLk3S72VKrysj5MOLXWVF2ka1nVn71QNMu5chH8WNU/DtzDwg05MWSWMPnkdunFRozkpeIk0udJVNGbtkSepaaXCho6xN35631cIVVfCjsjTcsvT6Ao38HyFquD2bUaNGKfwcWILF9vbt2ycjR45UWL3wwgvSpk0bBSJhMOs6OALDJ598Uj0zPLfOnTvLr3/9aw1lFy5cqKBkXzj2LNO1a1f9jWdH2S63CeTxDtkmgOP/bMuJ8JZpY8aM0fC3ZcuW6mFyMZhMwTp044QCb07SUpl0ba7s8OCWeDdZARabnSD948fKxoydeUt/rFO3zkv3K0Nl5/UD+vt27h3PC5wg4xNny1nPc2x3qZ/MS1mu89DMpMXSN3ZU3q/CFVXwI5/F8JOy9vqcAT/Cw3B3fsyePVu9LOd1BQrwzZw5U959910ZNmyYbN++XQGG5wfwgF0g/PDA8ODGjRsnS5cuVeBxYjhBgLtFixZSqVIlDWHxAg8dOqThfNu2bRVebt84N4S3gwYNUvB26tRJy3Lg58KZPHmyhrrLli3TcskTmkyhdOzmGWlxsacHrnEyKmG6nLn18Y3+0p046R03UqG4wQMgoMzKuaHzDtw4Jp0uD5Djt87o7zteSDvz2mLpeOkj2ex5e10vD5HD3vKIHOHqtC3SPqafZHjeZFGKKvjhjeAdPSr4sV28Thc2hktAldxbz549NQQNFB0NNWvWVDA5ATugA/CmT5+u4aYLxwl3gd+ePXv0d6BIF9SuXVs9PMJhFypzDgYPHixNmzbNn8YJJVymU4R9B4SB8EMHDx5U6JFfxIPEGzSZQumW57EtTlkr75z+UJ49Xk26XB6kYMu5n6Oh7eiEGVL/fAfN6bFMi5iecvH2FVmTvk0aXejkwfO0lsPyK9M2SadLAzxQ7pCeXrh8/MYDMAK/5akbvHI6ymUPqEUpquBHePWoQl5ngIqdxQsNp5YvXy4vvfSSfPDBB+ptYeThjh8/rlCk4wJvjvzg008/rWEvnRH06j7//PP6m//HxcVpCEt+bujQoRpSE/K6Z51fffVV9fyAJ6EqXiedFuTqXEcI2yGv2KRJEy2PjhKWpbc5EH7kIvFGv/3tb+s6XEwmU2G6dDtO+sSOlHrnOkjtc21la+anb9Lnbl2Sphe7ybjEWbLOgx8dISduPRiRAPyWpK6TDjH9NUzu5oXEeIqI62912mZpebGXpIToFQ5W1MCPRkdDfFRenzPgR+jNQQu36O3FgwJC9LgCFKCFR4VnBozGjh2rw00IV4EP9WBgNNACZHiAQHHChAk6TpCypkyZomUQIpPnYwA10GrXrp3mA1kfnTt3Tnr37q1hNT25LgdJT/HmzZt134MBN2fOHA3Z6TE2mYpS4t0UmZ+8UoFFJ8doLwQOVo7kag8utvv6IemMl3j9mM67lXtbxibMlu5Xhsne60e98HdAfq6Q/OG85OVeKDzIK6No5yRq4MdyjzLf54zt0/tJT2s0ifCZ8JT8YaAIg/EwAz264orzB6wZkA1wTaaCFON5fP3jxkqnywOlzvn2Uv1sCy+c7Sx7s45oJ0bg+L3Tty5I0wvdZHHqWrnmwbJ/3BgZc/XBdRufneh5hT1kUcpqSb+XJUPjJ8vQq5PUIwSsrWJ66zCZ4ihq4EclH8UQl2Bj+zxVEW2NnWPdo0cPHbKCF0k4zJhB7NixB3fV4oqy6ORgXfKLdMKYTIWJMXsLUlZo72yV0w1lUPwEOX7zjAetXDl/+5K09qD11unG8naekQMkF4j2Zh3WPB7zK59qID28UNfNO3TjpDS+2Fkqn/auxTONvHnDvJA3TecVpaiBH72Q9LSWB/gRHrrBvdEk6rxlyxbNAeLtATDC4eBQtihxwRB6Uw6h8MN4jSZ/6tytGJl6baHnCcbmTXkwfIXOjcMeyLCzty7q4Gen+96/q9lJOu/EzbOSmfPxWFvmMWTmyI1Tn5pXlAx+JbRohp8TJ720HTYlBabJ5IS3B7QetQx+JbSKAD+TyRRF8HtUj7UFG9sPd4cHHTmMuztw4ID24jKcpySP0XEcqVO4xx+aTBVZUQM/RH7qUcOPHBcQDudTHuTPeBqDN7cw3o68HCAs7ltkgN6mTZsUmiaTqXiKKvgxyDkUkMrSIjHIeevWrZ94IQDfH6EHlQOLVwgM8QzxNnkChJsAj8Lx8gHqwlMZLE9agHoxHpKnP1xejrGC9FDv3LlToUq5zGPwMttmIDWgpQeb5Xhyg/KBKn8Zw+cenyPcpwweeWP8n8kUrYoq+NE4K+LjbcCN9+gR8gI0vEAgy/Fhf3kml5cLABz+8kgbQMJT5HE2cpC89JS6ATKWCxyKg1fIyQGwDFYGbpTJenixrMv+UR4DofnL0yKsA/z4P3XkXYOUzbJsh2klCc9NpvKkqIIfXg3vlnuU8MO7YofDKSDCq6OAEZ7XmjVr8j0/4IKHBZDw0oAPMANueIGsC6CYxhudgSgecqAoG88RAVMASLl4kniNgBToAjm2zXaph3s/IMccr5Hl2J575I3/M3jaZIpGRRX8EI0RSISCU6QN+OH9uHAyXAJqgQONAQpgYRreINABagCOkJOXFnDQCUFZl2WYzzv7eM8enR+BY+/w7Kg7AmQuRMYDBHqM9wOILEd5PDaHZwhoOUfAzgGSZQEh2wSkzDeZolFRB79H+TJToEKdwy2gBnjw8DD+TycIr6DHq2OfgQ+/HYSoB3k41mUa8OK4ACrAGej9ATuXU2QZ1scbZDuUA0xZn+V4LRUXBHlF5uMhkncEeNx0WAaA4jFSVnE7ZUym8qaogx/C4yEsCwWpSJgDLUAJt9eHKJ+QEwgRnuJxARw8QMJdjHkOwPx1Jw2ouTwoHRt4fOT+AJPrlKHuQBGxDL9ZB7jxMgX+0snCMSXXyDnBw2ZbbAfQAT62xzIuB8g6Bj9TtCoq4UelCT8dlCJtbAd4ROoj5kDK5faCB0+Tl2O6O04sC3A4BhjTMaa7UNedVP4iNx+xjCuLbQJDlmU6y7jlWJdp7q9bB+Fxut5fkyla5dpJKC4V18ocfggAAKRQsAqn4QlFKtw1mUyPTlELP0TFXe9vuL1AynPgw0MymUwVS1ENP0TlnQcYLgA68JF3Y+dMJlPFU9TDD1EGSXmX+C8NBIEeHQYM9YhUjs9kMj16VQj4OVEeFaFnsiQQdMti9JLS6eA6D0wmU8VUhYIfAlpUiGEpPIUQCnCBxjw8RoaVkNuzoRsmkz9U4eDnxI5RNpVjWAZDYwAcFcX4zRAShpK4oSMmk8k/qrDwCyV21pnJZPK3fAU/k8lkcjL4mUwmX8rgZzKZfCmDn8lk8qUMfiaTyZcy+JlMJl/K4GcymXwpg5/JZPKlDH4mk8mXMviZTCZfyuBnMpl8KYOfyWTypQx+JpPJlzL4mUwmX8rgZzKZfCmDn8lk8qUMfiaTyZcy+JlMJl/K4GcymXwpg5/JZPKlDH4mk8mXMviZTCZfyuBnMpl8qUcOP/tguMlkehTKzc2V27dvh+RSca1U8IO8Bj+TyVTWysnJUXiF4lJxrVTwY2UIbDKZTGWp7OzskEwqiZUKfhjen8lkMpWV6GsordeHlRp+mHV8mEymslA4cn3OwgI/zABoMpkiKfJ84QIfFjb4YVQMCFoniMlkCodgCd5euELdQAsr/JwBQRKSVNjMzCy8xhAzPxgMoU8h3NBzFhH4mZmZmZV3M/iZmZn50gx+ZmZmvjSDn5mZmS/N4GdmZuZLM/iZmZn50gx+ZmZmvjSDn5mZmS/N4GdmZuZLM/iZmZn50gx+ZmZmvjSDn5mZmS/N4GdmZuZLM/iZmZn50gx+ZmZmvjSDn5mZmS/N4GdmZuZLM/iZmZn50gx+ZmZmvjSDn5mZmS/N4GdmZuZLM/iZmZn50gx+ZmZmvjSDn5lZlBmN1qz0xvfFExISHsAv1AeSzczMypfl5OSYhcFyc3MlJSVFFi9eLJ8Rk8lk8pHS0tIMfiaTyX8y+JlMJl/K4GcyPQJlZ2dLenq6NkAS8BVBd+7ckevXr8u1a9ckPj5e/2ZmZuq+lkcZ/EymMhYwoNG9/fbb8s4770jTpk1lwIABsn79egVGNAnYHT58WIYPHy5VqlSR3/72t/Jf//Vf8uUvf1m+853vyP/93//pfg4aNEj2798vN27cyFvz0cvgZzKVsRiyAgwqV64sw4YNk65du0rVqlXlqaeeUoAw7dKlS3lLl08BsWXLlskrr7win/vc5+SrX/2q1v/NN9+URo0a6T61atVK4f773/9eYfi3f/u38tprr+nwEo7Bo5bBz2SKkBhScejQIZk6dar07NlTunTpIitXrlTvbvTo0dKjRw8dvuJ0/vx5GTp0qDz99NPy7LPPasMsjzp58qRC7W/+5m/kN7/5jQwePFj27NnziX0J1P3792XXrl3St29f+eUvfymf//znpVq1anLs2LG8JR6NDH5h1NmzZzV8adKkidqHH36Yb/xu0aKFXvRXrlzJW+PTIkcyc+ZMad68uTRu3PgTZbhyevXqJUeOHMlbw1TelJSUJOPHj5fXX39dnnnmGfXwgMWvfvUr+eCDD7TRMx8Ycr6DFRsbq7B84oknFJA00vKi1atXy49+9CP19Hr37q37WhIxsLh///7yn//5n/LYY4/JihUr8uaUvSICPwYQBg8qjLSxzUepdevWyS9+8Qv5h3/4Bz2x3/ve9+S73/1uvvGbCwbX/9VXX9W7Z7BiYmLk/fff1zvjP//zP2vOJLAc/v/f//3f8sUvflEvHE4c+17eRB4oOTlZG0akrTzlkDIyMmTSpEny4osvKvhGjBihHk9cXJweEzxAboAHDx4sFH5OeIlcKx06dCgXAFy6dKnm8/7nf/5HNmzYkDf14bRlyxbND37729+WJUuW5E0tW4UNfjTCbdu2Sa1ateTHP/6x/OAHP9CDVFYGeGrUqCGbN28ucxCSn2H77PeqVav07kZok5iYmG/8phGQGAaOJLlpLE70lHXq1EnncUcFhIHrBxoNitDo8ccfl+PHj+eV8OhFAyds+9///V/5yle+UibGdUaOLCsrK68Wj0Z4/XXr1tW8F2DjPAULj75ly5YaChcHfghQvvXWW+oBlkWvMCEq+0IYyyNgThs3btSbL8A6cOBA3tTS6dSpU3qjoNzSwvRhFBb40XAHDhwof/d3fyd/9Vd/pRcljbisjLsR2/zzP/9z9bzGjBmjdSorATw8M45BUeICJgQCXhcuXMibKpKamqp5nkqVKqnXVJTwIn7yk5/ItGnTyo33R4MBRp/5zGfK1PCCd+zYkVeLsheAoqOCPBZgCyVuyNOnTy8x/NDy5csVEvPmzYv4jR3gkZsjRN+9e7dOu3z5sobuhLtbt27VaeESPcVPPvmktoczZ87kTS0bhQV+nBSg8x//8R+a0+LOEeytRNIIf9jmkCFDtFfpX//1X2XRokV5tYu85syZIz/96U/14ubOWZgY5oDXh9fGiXcCeL/73e/kvffeK1aIQ67k17/+te5zWYK+MJGwB+ChABVJAwx4EY9C7HPNmjU1P4tnX5BKAz/OLxEDIfDOnTvzpkZGXL/04jJEhbCd65UODZyMiRMn5i0VXgEgUjxEPmV5Iy81/BioSfc2uaz58+fnTX10mjFjhvz1X/+1VK9eXb2pstDcuXMVfnhjRcGPOyudFoQPgZ0WwI+QCfjxwHVR4gIFfoSZ5QV+7DveQr9+/TRPVRbGtgrytiItOibohAJ8DOotTKWBHzp37pxGBc2aNYv4MBE65IhOuKmsXbtW/vCHP2gumt7cu3fv6ng9opairvXiinZKmyBtRPRQVio1/GjA5HhouOSpHrW4E5N/w5Uuq650g5//xHkGYIxbK04OrLTwAzrc2MlrhyvnVpCA3KhRo7QzgmuM4SyzZ8/Waw7v85vf/KamlsIFP0TOD4507949rOUWplLDj3wHLis5ARL9j1rctRheQFhZVh6Bwc9/Onr0qIJo7NixxcrDlRZ+iLC6TZs2Cp5Ii9EIDLUhrcDoAvJ9pJPIr7J9vN5wiheLkjN96aWXNJVVFgoL/Ej245Lj+XHXeFRGvoDwAIiUJfxczq+48CNUChf8ylPOzy8CZBMmTJA6depopFEchQN+XBeM8STMDhwpEAnRc9+2bVvtROQJDkDI9c11Ggnh2VI++dOLFy/mTY2swgI/3NWvf/3rmmfjxDRs2PCRGFABHv/+7/+ucAnsUIik6PD5+c9/rhd3UfADVHh+hBKB8KPThguMux8npSjRA0gZ5vmVvbjJ02nFEJviKhT8CPFCPfTPsB0iGLxLhm4R7gI9xgjyOFn9+vXVU4qkuI7JvzFon9EM3LQjLY4R1zJ/y0JhgR8u8Z/92Z/pUBd6fRmk+yjsC1/4gtbhs5/9rIIkEC6R1Jo1a3SIB3mSosTF/u6772rPbqDXQNKXZyAZHEsnUlFizBjHvTwNdfGLABJeHy8iKK6C4Tdu3DgNYQHc3r17daAv1w/eFp0Lb7zxhjz//PN6nbzwwgsKvJEjR+oTFkV1rpiKp7DA7/vf/752jdMQOTmMTH8UxrYnT54sDHouy7CXni/GReGJ8aQHoQFhCRBzxm/GS3EBk0jGcwgMeXD7u3XrpvO427JscBkYoc/27dvlueee0+1x/E1lKzz92rVra4qluAqEH8DjOiBdxPg2UkYAjhsfLwXgpQekNU6cOKE9u3hhDJLneualADxFUtZj4iqiwpbzY7hLccK1SIuLhLFmZQk/PC/gy03gH//xH/XhbcBETs4Zv0kWMwyHOzpeaXCIzJMi3PHJsbBscBkYN5l/+Zd/0XFXhEOhwqZHKUJCvFJCQsaJRdIY+8YNt7h5t3CIsIxxb6QuSpJ3c/DjmW3GpAJOcsU0Pq5TkvyUTZmMUmCcKsN4yIG9/PLLek0zkJreVm7u5BxNpVPY4EeXf7h7gB5GJEvdo19lBT8n7uh4beQfedSpXr16+cZvpjNQtLDjRI8e3iuNJLgMVw65Iga74i2WJwE+HsUi9fCnf/qnmgqJtHGj4GUBZZUkx1sHSnjpdLIVV8CPhD4evxsSBgB5XpYnKug55rrl5sa4OvLnjOljHjeTTZs2KRQxOkro6KpoItdZlg6UwS8CwhMM7ol2VlzRWEKtj5VXkSDnxQvBT2BE2rj+SAWUhWighKU8f13Sc0HHARESf8nbEe6SK+ZGR5mEtLQnPFk6wEI9y+s8Tx6lLKpzrTTi+tu3b5/mIkvSI11S0VYAOp05PKbKkLmy8uQNfqawiQZLOPi1r31Nx4SVhfGmHBpOYY+WhVMACfC0b9++xL3s5GzxGPFUyecRujKujRdVFFeUgedZnM610ggokVrgYYFIPFJHLpOngRo0aKBpHDpKuZGRFiKVEUmwOxn8TGEV48MI/3llUVkY55htlqWmTJmijfZhBvWT1+XNR7ylhU4tnmdliFZxH8U8ffq0pk/KIufHo228PIMwO5wwYhgP+0B6hDx569atNbdJvpxXufHa++KMdS2tDH5hFJ0PHA+GQGA8suOM3+RtitNDiBdDww4uA6M3mf0qqddhCp8YYwnAHvYxM84jPbsLFixQD5ChT+SKi9N5RXhPTzMjGyItOmEYN8twm8A3EJVWABzo48GS/2TMIs8R06GDR02HDsOJIi2DX5hEDx7eAGEYSfhQ9vd///d6p6MnNNRLON0od3qLCQN4TXhwGUwjrCQhjodlKntxzdP5RG/tw4hcISElACSvRq6P/B+5wMJEHo7OD8YYcr1FWnh7AJqRB3SyRWo8KV4w7/QD6NxQ6PRp165dxG/wBr8wiOEJgO/f/u3fNIThgOIdBNusWbN0PBev/qLXN/BOz4XG+LFvfetb+nQK83ltVXAZlE2Y8KUvfUl7Vv0+4JXcES/RJUQrydCT0ogwm15YvJSHfYkqITM9v4z7Iwzs06eP3tBcT3AoMYyLQdAPk298WJHH5drmKa6SDOourjhvjG3Fm+WmgFPAiIaf/exnJRpH+TAy+IVBJG65OIpzt+IY8fQJY/0CH1GiR40xftS7qMfyACXfeOCOzGDYskgOl0fRWEj8cyPgxgOQyir/BwhosISwDyu8HB5nJH/ncoFcQ6GAyjmm55UQuTTbfBjxBApjTmlX4Xxqiv1n7CpPKgW+kZwxs3RiRbrXN2Lwg+CcUHYglJHsjcTzgo8CfrzHkHeR0UtVlGiw9IhSv8CwladCgCIXd3E8GLxCnirx87O9XLwAww15wasuqzcLse2OHTtqI6UH9mEE0AhjuemR4yLPy4Bm3hIULHJudATgLZZ1Bw8iJKWd07YI1UsrhkUR4eD14f0FiuNCOyHMj6QiAj8qzx2ZFwzwvC29OIHGNPJWDPAMtx4F/NxbXYrTRR+ut7oQAnPXLI9vdSGcx3sprRXWAcA+ExYRKjr48Ww0HQhldTxowACJt5c/bEMFnLyUlUHOhLwMcKct8cJQJ64ZwmI6BcryZZ/BIspgHCd5a274xemgCRZ5Q94NCPR4SikSoXRxFTb4kbx18ONCYAdp4CQv8VACjWmMH4L4RcGipOICohGUJfzsfX4PRGMgb8mwBT7CXVoDCNxQAj0dhoSQD+Xhfx71+sY3vpEPP0Jfxs0xj3fORer1S4HiOmebpbmR8+48wl8+6UgqhDwgeTZuALQl3hnINoI9pEchxvzxqB3v+CNKwSMszvVHZx7hOjcr3vpOGyVX+yhVavgBGOBHb1Vg2MtJc18sIykfaEyjgUfCrSWkBizFyZ2FSwa/B+J4//CHP8yHUTgMLyPwozl4vPSoh1o20OhZJ6SMtBj07ODE+L+HTeXgAfH0Bz2/tCkgQQ6TCIqX89JZVl7EEBhAzRMZjD7gJRv0BuMNsh+E73ztjbcdsT+MEyTH/U//9E/q8TFInI6UR61Sw48wE9Dwamu8wEctRsuTACd3Qt3KQga/ByLkpE6hYPSwBvwCQyOS/vSWh1o20PAuyurhfzxewlWeycVre5g3rpAjZ+AvTgQOAo2SR99oW1xf4Y6QwiHSDnjYgJ/ByaSz8L5Jd/GXJ3DwEHndHADnGBXWm13WKjX8iOEhOxccj+2wcyQrOVllaWyTDhbqQF0YQBmpcUnBIudH13xJcn7BnqmDH3f84oz2L49fb+McAGXyYKQ1uOAf1sjb4gkFh71csOTYeKknPZA0NAc8xkaSViFnxji6snodOuK8ExISvgJBxnIShRT2sSEiH3J+rMdLDAgF2TdCRK4TwtxIPFoWbnF+6JDBQ+d80fYYjYDnTY6S40AIX95UavghRmxz4rgASWLy4kXGItFtXxZGwpiBn3if1IGGEekxQoHCtae7njtbUQLI1BX4ketxAn54g4CjOA+Sk2NiMLRrLOVJrvGW1orq8OBGS37PwQ/oMPj3YRLx4RI3LsJf8pHcABizBogZvsG3hYlMgAS5Qp5yIFfOTYyXGxDuFnXzNIVPYYEfwovhrgf8cHPJBZSl8Zwg2+ZiC4RKWYieOXrBSPQXFbJSN74uh1cTmJDnzsiQB8I8HoMrTOSZGPLAsuRV/Cq8psChLiTiCRnLg4AzXhu5MN5UAuB4Thbjkwc8Mga4yReG89ExU/EVNvgh7lpAEK+E5GdZGT2MeF9l1cERLNx+nrogv8FYM9IAvPIo2LjT4yGSyyF3FeixcezIbdE4+BoeuaNQZfAtByBJiIeHHQhQv4njh+fLh+rJOfGYVCRfv1Qa4cnyJAchoJ/PWXlSWOHnZxHu0PnAMB7yUHS68NcZv7/yla9oRwwhUEE93fSUMcyDIRzBZWAkkulRBbDlxct5lGJAOEMmGEbxsIONTf6UwS/MIslO3gkj7+jM/S5O4hdPknxWcBmuHIYKWW7IZCqdDH4mk8mXMviZTCZfyuBnMpl8KYOfyWTypQx+JpPJlzL4mUwmX8rgZzKZfKkH8Fss/x9pptCUoXzP7gAAAABJRU5ErkJggg==;movable=0;resizable=0;rotatable=0;deletable=0;editable=0;locked=1;connectable=0;" vertex="1" parent="1">
          <mxGeometry x="520" y="620" width="230.87" height="513.13" as="geometry" />
        </mxCell>
        <mxCell id="b-o21iaNYB_1QmSjUm_C-6" value="" style="endArrow=none;html=1;rounded=0;" edge="1" parent="1">
          <mxGeometry width="50" height="50" relative="1" as="geometry">
            <mxPoint x="220" y="370" as="sourcePoint" />
            <mxPoint x="520" y="320" as="targetPoint" />
            <Array as="points">
              <mxPoint x="440" y="320" />
            </Array>
          </mxGeometry>
        </mxCell>
        <mxCell id="b-o21iaNYB_1QmSjUm_C-7" value="1. Пользователь нажимает кнопку для перехода на страницу &lt;br&gt;регистрации" style="text;html=1;strokeColor=none;fillColor=none;align=left;verticalAlign=middle;whiteSpace=wrap;rounded=0;" vertex="1" parent="1">
          <mxGeometry x="440" y="280" width="380" height="30" as="geometry" />
        </mxCell>
        <mxCell id="b-o21iaNYB_1QmSjUm_C-8" value="" style="endArrow=none;html=1;rounded=0;" edge="1" parent="1">
          <mxGeometry width="50" height="50" relative="1" as="geometry">
            <mxPoint x="310" y="770" as="sourcePoint" />
            <mxPoint x="520" y="360" as="targetPoint" />
            <Array as="points">
              <mxPoint x="440" y="360" />
            </Array>
          </mxGeometry>
        </mxCell>
        <mxCell id="b-o21iaNYB_1QmSjUm_C-9" value="" style="endArrow=none;html=1;rounded=0;" edge="1" parent="1">
          <mxGeometry width="50" height="50" relative="1" as="geometry">
            <mxPoint x="310" y="820" as="sourcePoint" />
            <mxPoint x="520" y="400" as="targetPoint" />
            <Array as="points">
              <mxPoint x="440" y="400" />
            </Array>
          </mxGeometry>
        </mxCell>
        <mxCell id="b-o21iaNYB_1QmSjUm_C-10" value="" style="endArrow=none;html=1;rounded=0;" edge="1" parent="1">
          <mxGeometry width="50" height="50" relative="1" as="geometry">
            <mxPoint x="310" y="890" as="sourcePoint" />
            <mxPoint x="520" y="440" as="targetPoint" />
            <Array as="points">
              <mxPoint x="440" y="440" />
            </Array>
          </mxGeometry>
        </mxCell>
        <mxCell id="b-o21iaNYB_1QmSjUm_C-11" value="" style="endArrow=none;html=1;rounded=0;" edge="1" parent="1">
          <mxGeometry width="50" height="50" relative="1" as="geometry">
            <mxPoint x="310" y="940" as="sourcePoint" />
            <mxPoint x="520" y="480" as="targetPoint" />
            <Array as="points">
              <mxPoint x="440" y="480" />
            </Array>
          </mxGeometry>
        </mxCell>
        <mxCell id="b-o21iaNYB_1QmSjUm_C-12" value="" style="endArrow=none;html=1;rounded=0;" edge="1" parent="1">
          <mxGeometry width="50" height="50" relative="1" as="geometry">
            <mxPoint x="310" y="1000" as="sourcePoint" />
            <mxPoint x="520" y="520" as="targetPoint" />
            <Array as="points">
              <mxPoint x="440" y="520" />
            </Array>
          </mxGeometry>
        </mxCell>
        <mxCell id="b-o21iaNYB_1QmSjUm_C-13" value="" style="endArrow=none;html=1;rounded=0;" edge="1" parent="1">
          <mxGeometry width="50" height="50" relative="1" as="geometry">
            <mxPoint x="520" y="620" as="sourcePoint" />
            <mxPoint x="520" y="560" as="targetPoint" />
            <Array as="points">
              <mxPoint x="440" y="560" />
            </Array>
          </mxGeometry>
        </mxCell>
        <mxCell id="b-o21iaNYB_1QmSjUm_C-14" value="2. Пользователь вводит свой email" style="text;html=1;strokeColor=none;fillColor=none;align=left;verticalAlign=middle;whiteSpace=wrap;rounded=0;" vertex="1" parent="1">
          <mxGeometry x="440" y="330" width="380" height="30" as="geometry" />
        </mxCell>
        <mxCell id="b-o21iaNYB_1QmSjUm_C-15" value="3. Пользователь вводит nickname" style="text;html=1;strokeColor=none;fillColor=none;align=left;verticalAlign=middle;whiteSpace=wrap;rounded=0;" vertex="1" parent="1">
          <mxGeometry x="440" y="370" width="380" height="30" as="geometry" />
        </mxCell>
        <mxCell id="b-o21iaNYB_1QmSjUm_C-16" value="4. Пользователь вводит пароль&amp;nbsp;" style="text;html=1;strokeColor=none;fillColor=none;align=left;verticalAlign=middle;whiteSpace=wrap;rounded=0;" vertex="1" parent="1">
          <mxGeometry x="440" y="410" width="380" height="30" as="geometry" />
        </mxCell>
        <mxCell id="b-o21iaNYB_1QmSjUm_C-17" value="5. Пользователь вводит пароль повторно&amp;nbsp;" style="text;html=1;strokeColor=none;fillColor=none;align=left;verticalAlign=middle;whiteSpace=wrap;rounded=0;" vertex="1" parent="1">
          <mxGeometry x="440" y="450" width="380" height="30" as="geometry" />
        </mxCell>
        <mxCell id="b-o21iaNYB_1QmSjUm_C-18" value="6. Нажимает кнопку &quot;Create&quot; для создания аккаунта и перехода &lt;br&gt;дальше&amp;nbsp;" style="text;html=1;strokeColor=none;fillColor=none;align=left;verticalAlign=middle;whiteSpace=wrap;rounded=0;" vertex="1" parent="1">
          <mxGeometry x="440" y="487" width="380" height="30" as="geometry" />
        </mxCell>
        <mxCell id="b-o21iaNYB_1QmSjUm_C-19" value="7. После успешной регистрации открывается окно операций" style="text;html=1;strokeColor=none;fillColor=none;align=left;verticalAlign=middle;whiteSpace=wrap;rounded=0;" vertex="1" parent="1">
          <mxGeometry x="440" y="530" width="380" height="30" as="geometry" />
        </mxCell>
      </root>
    </mxGraphModel>
  </diagram>
</mxfile>
